<svg width="53" height="77" viewBox="0 0 53 77" fill="none" xmlns="http://www.w3.org/2000/svg">
<path d="M8.39843 7.26338L11.2892 4.37259L15.1436 3.44222L25.2614 1L37.467 5.49679L38.554 8.22698L39.5771 10.7966L51.2785 40.1863L48.0331 55.7645L46.4605 63.3126L43.8909 66.8458L24.1372 76L19.6404 74.8269L9.36204 72.1456L2.13504 66.8458C1.25231 64.8045 0.969749 59.1956 1.00252 52.5525C1.01096 50.8401 1.04036 49.0591 1.08582 47.2527C1.27474 39.7471 1.74113 31.804 2.13504 26.5353L8.39843 7.26338Z" fill="#145AE3"/>
<path d="M11.2892 4.37259L8.39843 7.26338L2.13504 26.5353C1.74113 31.804 1.27474 39.7471 1.08582 47.2527M11.2892 4.37259L15.1436 3.44222M11.2892 4.37259L11.6104 8.70878M2.13504 66.8458L9.36204 72.1456L19.6404 74.8269M2.13504 66.8458C1.25231 64.8045 0.969749 59.1956 1.00252 52.5525M2.13504 66.8458L8.15753 68.4518M46.4605 63.3126L43.8909 66.8458L24.1372 76L19.6404 74.8269M46.4605 63.3126L48.0331 55.7645M46.4605 63.3126L42.6062 64.2762M15.1436 3.44222L25.2614 1L37.467 5.49679L38.554 8.22698M15.1436 3.44222L17.392 5.49679M17.392 5.49679L38.554 8.22698M17.392 5.49679L11.6104 8.70878M38.554 8.22698C38.9054 9.10964 39.2459 9.96488 39.5771 10.7966M39.5771 10.7966C43.9282 21.725 46.6607 28.5881 51.2785 40.1863L48.0331 55.7645M39.5771 10.7966L36.1822 53.1949M36.1822 53.1949L44.8545 57.5311M36.1822 53.1949L28.9552 55.2827M44.8545 57.5311L48.0331 55.7645M44.8545 57.5311L42.6062 64.2762M42.6062 64.2762L21.7282 72.9486M21.7282 72.9486L19.6404 74.8269M21.7282 72.9486L18.998 71.3426M18.998 71.3426L8.15753 68.4518M18.998 71.3426L28.9552 55.2827M1.00252 52.5525L8.15753 68.4518M1.00252 52.5525C1.01096 50.8401 1.04036 49.0591 1.08582 47.2527M28.9552 55.2827L6.79245 29.7473M6.79245 29.7473L1.08582 47.2527M6.79245 29.7473L11.6104 8.70878" stroke="white" stroke-opacity="0.9" stroke-width="1.5"/>
</svg>
