<svg width="375" height="225" viewBox="0 0 375 225" fill="none" xmlns="http://www.w3.org/2000/svg">
<path fill-rule="evenodd" clip-rule="evenodd" d="M-201 89.2964L-178.066 82.5322C-155.922 75.768 -110.845 62.2396 -65.7675 89.2964C-19.8992 116.353 25.1783 183.995 70.2558 231.344C115.333 278.694 160.411 305.75 205.488 271.929C250.566 238.109 296.434 143.41 341.512 123.117C386.589 102.825 431.667 156.938 476.744 177.231C521.822 197.523 566.899 183.995 612.768 143.41C657.845 102.825 702.923 35.1829 725.066 1.36195L748 -32.459V332.807H725.066C702.923 332.807 657.845 332.807 612.768 332.807C566.899 332.807 521.822 332.807 476.744 332.807C431.667 332.807 386.589 332.807 341.512 332.807C296.434 332.807 250.566 332.807 205.488 332.807C160.411 332.807 115.333 332.807 70.2558 332.807C25.1783 332.807 -19.8992 332.807 -65.7675 332.807C-110.845 332.807 -155.922 332.807 -178.066 332.807H-201V89.2964Z" fill="white" fill-opacity="0.1"/>
<path fill-rule="evenodd" clip-rule="evenodd" d="M-201 -14.666L-161.458 31.6636C-121.917 77.9933 -42.8333 170.653 36.25 188.026C115.333 205.4 194.417 147.488 273.5 141.697C352.583 135.905 431.667 182.235 510.75 199.609C589.833 216.982 668.917 205.4 708.458 199.609L748 193.817V332.806H708.458C668.917 332.806 589.833 332.806 510.75 332.806C431.667 332.806 352.583 332.806 273.5 332.806C194.417 332.806 115.333 332.806 36.25 332.806C-42.8333 332.806 -121.917 332.806 -161.458 332.806H-201V-14.666Z" fill="white" fill-opacity="0.15"/>
</svg>
