<svg width="35" height="35" viewBox="0 0 35 35" fill="none" xmlns="http://www.w3.org/2000/svg">
<path opacity="0.4" d="M4.51001 13.7169H30.5033" stroke="#1482E9" stroke-width="2.1875" stroke-linecap="round" stroke-linejoin="round"/>
<path opacity="0.4" fill-rule="evenodd" clip-rule="evenodd" d="M9.92818 19.4101C9.92818 18.8061 10.4179 18.3164 11.0219 18.3164H11.0354C11.6395 18.3164 12.1292 18.8061 12.1292 19.4101C12.1292 20.0142 11.6395 20.5039 11.0354 20.5039H11.0219C10.4179 20.5039 9.92818 20.0142 9.92818 19.4101ZM17.5068 18.3164C16.9028 18.3164 16.4131 18.8061 16.4131 19.4101C16.4131 20.0142 16.9028 20.5039 17.5068 20.5039H17.5203C18.1244 20.5039 18.6141 20.0142 18.6141 19.4101C18.6141 18.8061 18.1244 18.3164 17.5203 18.3164H17.5068ZM23.9782 18.3164C23.3741 18.3164 22.8844 18.8061 22.8844 19.4101C22.8844 20.0142 23.3741 20.5039 23.9782 20.5039H23.9917C24.5957 20.5039 25.0854 20.0142 25.0854 19.4101C25.0854 18.8061 24.5957 18.3164 23.9917 18.3164H23.9782ZM23.9782 23.9842C23.3741 23.9842 22.8844 24.4739 22.8844 25.0779C22.8844 25.682 23.3741 26.1717 23.9782 26.1717H23.9917C24.5957 26.1717 25.0854 25.682 25.0854 25.0779C25.0854 24.4739 24.5957 23.9842 23.9917 23.9842H23.9782ZM16.4131 25.0779C16.4131 24.4739 16.9028 23.9842 17.5068 23.9842H17.5203C18.1244 23.9842 18.6141 24.4739 18.6141 25.0779C18.6141 25.682 18.1244 26.1717 17.5203 26.1717H17.5068C16.9028 26.1717 16.4131 25.682 16.4131 25.0779ZM11.0219 23.9842C10.4179 23.9842 9.92818 24.4739 9.92818 25.0779C9.92818 25.682 10.4179 26.1717 11.0219 26.1717H11.0354C11.6395 26.1717 12.1292 25.682 12.1292 25.0779C12.1292 24.4739 11.6395 23.9842 11.0354 23.9842H11.0219Z" fill="#1482E9"/>
<path d="M23.3972 2.91797V7.71702" stroke="#1482E9" stroke-width="2.1875" stroke-linecap="round" stroke-linejoin="round"/>
<path d="M11.6164 2.91797V7.71702" stroke="#1482E9" stroke-width="2.1875" stroke-linecap="round" stroke-linejoin="round"/>
<path fill-rule="evenodd" clip-rule="evenodd" d="M23.6808 5.22266H11.3327C7.04998 5.22266 4.375 7.60839 4.375 11.9937V25.1911C4.375 29.6454 7.04998 32.0863 11.3327 32.0863H23.6673C27.9635 32.0863 30.625 29.6868 30.625 25.3015V11.9937C30.6385 7.60839 27.977 5.22266 23.6808 5.22266Z" stroke="#1482E9" stroke-width="2.1875" stroke-linecap="round" stroke-linejoin="round"/>
</svg>
