<svg width="35" height="35" viewBox="0 0 35 35" fill="none" xmlns="http://www.w3.org/2000/svg">
<path fill-rule="evenodd" clip-rule="evenodd" d="M4.375 9.47917C4.375 5.65073 4.41599 4.375 9.47917 4.375C14.5423 4.375 14.5833 5.65073 14.5833 9.47917C14.5833 13.3076 14.5995 14.5833 9.47917 14.5833C4.35885 14.5833 4.375 13.3076 4.375 9.47917Z" stroke="#1482E9" stroke-width="2.1875" stroke-linecap="round" stroke-linejoin="round"/>
<path opacity="0.4" fill-rule="evenodd" clip-rule="evenodd" d="M20.4167 9.47917C20.4167 5.65073 20.4577 4.375 25.5209 4.375C30.5841 4.375 30.6251 5.65073 30.6251 9.47917C30.6251 13.3076 30.6412 14.5833 25.5209 14.5833C20.4006 14.5833 20.4167 13.3076 20.4167 9.47917Z" stroke="#1482E9" stroke-width="2.1875" stroke-linecap="round" stroke-linejoin="round"/>
<path fill-rule="evenodd" clip-rule="evenodd" d="M4.375 25.5221C4.375 21.6937 4.41599 20.418 9.47917 20.418C14.5423 20.418 14.5833 21.6937 14.5833 25.5221C14.5833 29.3506 14.5995 30.6263 9.47917 30.6263C4.35885 30.6263 4.375 29.3506 4.375 25.5221Z" stroke="#1482E9" stroke-width="2.1875" stroke-linecap="round" stroke-linejoin="round"/>
<path fill-rule="evenodd" clip-rule="evenodd" d="M20.4167 25.5221C20.4167 21.6937 20.4577 20.418 25.5209 20.418C30.5841 20.418 30.6251 21.6937 30.6251 25.5221C30.6251 29.3506 30.6412 30.6263 25.5209 30.6263C20.4006 30.6263 20.4167 29.3506 20.4167 25.5221Z" stroke="#1482E9" stroke-width="2.1875" stroke-linecap="round" stroke-linejoin="round"/>
</svg>
