<svg width="35" height="35" viewBox="0 0 35 35" fill="none" xmlns="http://www.w3.org/2000/svg">
<path opacity="0.4" fill-rule="evenodd" clip-rule="evenodd" d="M14.7749 13.215C14.3479 12.7878 13.6553 12.7877 13.2281 13.2148C12.801 13.6419 12.8009 14.3344 13.228 14.7616L15.9532 17.4874L13.2316 20.2089C12.8045 20.636 12.8045 21.3286 13.2316 21.7557C13.6588 22.1828 14.3513 22.1828 14.7784 21.7557L17.4998 19.0343L20.2222 21.7572C20.6492 22.1844 21.3418 22.1845 21.7689 21.7574C22.1961 21.3303 22.1962 20.6378 21.7691 20.2106L19.0466 17.4875L21.7668 14.7674C22.1939 14.3402 22.1939 13.6477 21.7668 13.2206C21.3396 12.7934 20.6471 12.7934 20.22 13.2206L17.5 15.9406L14.7749 13.215Z" fill="#1482E9"/>
<path fill-rule="evenodd" clip-rule="evenodd" d="M23.821 4.00781H11.1787C6.77307 4.00781 4.01099 7.12719 4.01099 11.5416V23.4532C4.01099 27.8676 6.75994 30.987 11.1787 30.987H23.8195C28.2397 30.987 30.9902 27.8676 30.9902 23.4532V11.5416C30.9902 7.12719 28.2397 4.00781 23.821 4.00781Z" stroke="#1482E9" stroke-width="2.1875" stroke-linecap="round" stroke-linejoin="round"/>
</svg>
