<svg width="275" height="275" viewBox="0 0 275 275" fill="none" xmlns="http://www.w3.org/2000/svg">
<path d="M248.435 31.788C248.765 29.588 245.63 27.773 243.32 27.608C242.22 27.498 241.065 27.663 240.02 27.333C237.71 26.563 236.83 23.593 234.575 22.658C232.925 21.943 231 22.603 229.405 23.373C227.81 24.198 226.215 25.188 224.4 25.298C222.805 25.408 221.155 24.803 219.78 25.573C218.735 26.123 218.24 27.333 217.305 27.993C216.37 28.653 215.16 28.818 214.06 28.873C212.905 28.928 211.75 28.928 210.705 29.423C209.66 29.918 208.78 31.018 209 32.118L248.435 31.788Z" fill="#EAEAEA"/>
<path d="M88.715 34.3744C89.21 30.9094 84.315 28.1044 80.685 27.8294C78.925 27.6644 77.165 27.9394 75.515 27.3894C71.94 26.1244 70.51 21.5044 67.045 20.0744C64.46 18.9744 61.435 19.9644 58.905 21.2294C56.375 22.4944 53.9 24.0894 51.04 24.2544C48.565 24.4194 45.925 23.4844 43.78 24.6944C42.185 25.5744 41.36 27.4444 39.875 28.5444C38.445 29.5894 36.575 29.8094 34.76 29.9194C32.945 30.0294 31.13 30.0294 29.48 30.7994C27.83 31.5694 26.51 33.2744 26.84 35.0344L88.715 34.3744Z" fill="#F5F5F5"/>
<path d="M215.05 53.9017C215.49 50.5467 210.76 47.7967 207.185 47.4667C205.48 47.3567 203.72 47.5767 202.125 47.0267C198.66 45.8167 197.23 41.3067 193.82 39.8767C191.29 38.7767 188.32 39.7667 185.9 40.9767C183.425 42.2417 181.005 43.7817 178.255 43.9467C175.835 44.1117 173.25 43.2317 171.16 44.3867C169.62 45.2667 168.795 47.0817 167.365 48.1267C165.935 49.1717 164.12 49.3917 162.36 49.5017C160.6 49.6117 158.785 49.6117 157.19 50.3267C155.595 51.0417 154.275 52.7467 154.605 54.4517L215.05 53.9017Z" fill="#F5F5F5"/>
<path d="M208.78 255.964C197.175 250.629 192.445 237.649 190.685 225.549C190.41 223.514 189.805 221.479 190.41 219.499C191.07 217.574 193.05 215.979 195.03 216.474C196.625 216.914 197.615 218.509 198.715 219.829C200.145 221.534 202.125 222.799 204.215 223.459C205.59 223.899 207.24 224.009 208.395 223.074C209.935 221.809 209.715 219.389 209.385 217.409C208.67 213.669 208.01 209.984 207.295 206.244C206.91 204.264 206.525 202.229 206.855 200.194C207.13 198.214 208.175 196.179 209.99 195.299C211.805 194.419 214.335 195.079 215.105 197.004C215.435 197.774 215.38 198.654 215.6 199.479C215.82 200.304 216.37 201.129 217.195 201.239C218.02 201.349 218.735 200.634 219.23 199.919C220.935 197.554 221.87 194.694 222.695 191.889C223.52 189.084 224.345 186.224 225.83 183.639C227.315 181.109 229.57 178.909 232.43 178.249C235.235 177.589 238.645 178.799 239.855 181.494C241.065 184.189 239.965 187.324 238.59 189.909C236.555 193.759 233.97 197.334 230.89 200.414C230.34 200.964 229.735 201.569 229.625 202.339C229.405 203.769 230.945 204.869 232.32 205.034C233.915 205.254 235.51 204.814 237.05 204.704C238.645 204.594 240.46 204.979 241.285 206.354C242.495 208.224 241.12 210.699 239.745 212.404C236.885 215.814 233.42 218.729 229.625 220.929C228.25 221.754 226.765 222.469 225.775 223.734C224.785 224.999 224.4 226.924 225.335 228.189C226.325 229.454 228.195 229.564 229.735 229.014C231.22 228.464 232.43 227.364 233.805 226.539C236.39 224.999 239.965 224.559 242.11 226.594C243.54 227.969 244.035 230.114 243.76 232.039C243.485 234.019 242.605 235.834 241.615 237.539C238.15 243.479 233.255 248.649 227.315 252.004C221.32 255.469 215.545 257.119 208.78 255.964Z" fill="#EAEAEA"/>
<path d="M210.54 247.878C211.2 241.498 212.575 234.568 214.17 227.363C214.61 225.548 214.995 223.788 215.38 222.028C215.765 220.268 216.205 218.563 216.7 216.858C217.69 213.503 218.9 210.368 220.11 207.398C221.32 204.428 222.64 201.678 223.85 199.093C225.06 196.508 226.27 194.143 227.425 192.053C229.735 187.818 232.045 184.628 233.695 182.483C234.52 181.438 235.18 180.613 235.62 180.063C235.84 179.788 236.005 179.623 236.17 179.458C236.28 179.348 236.335 179.238 236.335 179.238C236.335 179.238 236.28 179.293 236.17 179.458C236.06 179.623 235.895 179.843 235.675 180.118C235.235 180.668 234.575 181.493 233.805 182.593C232.21 184.738 229.955 187.928 227.645 192.218C226.49 194.308 225.335 196.728 224.125 199.258C222.915 201.843 221.65 204.593 220.44 207.563C219.23 210.533 218.02 213.668 217.03 216.968C216.535 218.618 216.15 220.378 215.71 222.083C215.325 223.843 214.885 225.603 214.5 227.418C212.85 234.623 211.53 241.553 210.815 247.933" fill="#E0E0E0"/>
<path d="M216.81 216.805C216.81 216.805 216.645 216.53 216.48 215.98C216.26 215.43 215.985 214.66 215.71 213.67C215.05 211.745 214.28 209.05 213.4 206.025C212.52 203.055 211.695 200.36 211.035 198.435C210.705 197.5 210.43 196.675 210.21 196.18C209.99 195.63 209.935 195.355 209.935 195.355C209.935 195.355 210.1 195.63 210.32 196.125C210.54 196.62 210.87 197.39 211.255 198.38C211.97 200.305 212.85 202.945 213.73 205.97C214.555 208.94 215.325 211.58 215.93 213.615C216.205 214.55 216.425 215.32 216.59 215.925C216.755 216.475 216.865 216.805 216.81 216.805Z" fill="#E0E0E0"/>
<path d="M241.615 207.401C241.615 207.401 241.285 207.511 240.625 207.731C239.965 207.896 239.03 208.171 237.875 208.501C235.565 209.161 232.43 210.206 228.965 211.526C225.555 212.846 222.475 214.166 220.33 215.156C219.23 215.651 218.35 216.091 217.745 216.366C217.14 216.641 216.81 216.806 216.81 216.806C216.81 216.806 217.14 216.586 217.69 216.256C218.295 215.926 219.12 215.431 220.22 214.936C222.365 213.836 225.445 212.516 228.855 211.196C232.32 209.876 235.455 208.886 237.82 208.281C238.975 207.951 239.91 207.731 240.57 207.621C241.285 207.401 241.615 207.346 241.615 207.401Z" fill="#E0E0E0"/>
<path d="M210.76 247.341C210.76 247.341 210.65 247.231 210.54 247.066C210.375 246.846 210.155 246.571 209.935 246.241C209.385 245.526 208.67 244.426 207.79 243.051C206.03 240.356 203.72 236.506 201.19 232.216C198.66 227.926 196.405 224.076 194.7 221.326C193.875 220.006 193.16 218.906 192.665 218.081C192.445 217.751 192.28 217.421 192.115 217.201C192.005 216.981 191.95 216.871 191.95 216.871C191.95 216.871 192.06 216.981 192.17 217.146C192.335 217.366 192.555 217.641 192.775 217.971C193.325 218.686 194.04 219.786 194.92 221.161C196.68 223.856 198.99 227.706 201.52 231.996C204.05 236.286 206.305 240.081 208.01 242.886C208.835 244.206 209.55 245.306 210.045 246.131C210.265 246.461 210.43 246.791 210.595 247.011C210.705 247.231 210.76 247.341 210.76 247.341Z" fill="#E0E0E0"/>
<path d="M242.88 230.238C242.88 230.238 242.77 230.293 242.55 230.458C242.275 230.568 242 230.788 241.615 230.953C240.735 231.393 239.58 232.053 238.15 232.768C235.235 234.308 231.275 236.508 226.875 238.928C222.475 241.348 218.46 243.493 215.545 245.033C214.06 245.803 212.905 246.353 212.025 246.793C211.64 246.958 211.31 247.123 211.035 247.233C210.815 247.343 210.705 247.398 210.705 247.343C210.705 247.343 210.815 247.288 211.035 247.123C211.31 247.013 211.585 246.793 211.97 246.628C212.85 246.188 214.005 245.528 215.435 244.813C218.35 243.273 222.31 241.073 226.71 238.653C231.11 236.233 235.125 234.088 238.04 232.548C239.525 231.778 240.68 231.228 241.56 230.788C241.945 230.623 242.275 230.458 242.55 230.348C242.77 230.238 242.88 230.238 242.88 230.238Z" fill="#E0E0E0"/>
<path d="M260.04 117.92L249.48 109.23L249.425 113.96L219.945 113.575L219.89 121.275L249.315 121.66L249.26 126.17L260.04 117.92Z" fill="#EAEAEA"/>
<path d="M244.31 130.403L237.49 124.793V127.818L218.46 127.598L218.405 132.548L237.435 132.768L237.38 135.683L244.31 130.403Z" fill="#EAEAEA"/>
<path d="M20.405 60.5558C20.405 60.5558 14.245 62.4808 20.075 75.6258C25.85 88.8258 30.03 95.4258 30.03 95.4258C30.03 95.4258 31.02 98.4508 28.49 98.7808C25.96 99.1108 20.515 97.9008 19.195 100.926C17.875 104.061 19.965 107.141 24.53 110.056C29.04 112.971 38.72 119.681 39.6 120.286C40.48 120.891 41.25 122.321 39.6 122.816C37.895 123.311 25.465 123.916 26.07 129.801C26.675 135.686 40.645 141.681 42.13 142.396C43.615 143.056 43.945 143.771 43.78 144.596C43.615 145.421 39.38 145.256 35.86 145.531C32.34 145.861 28.27 146.796 28.93 150.206C29.59 153.561 37.62 161.041 57.97 164.231L67.485 165.111L73.15 157.356C84.26 140.031 83.985 129.031 81.895 126.336C79.805 123.641 76.395 126.006 73.81 128.426C71.225 130.846 68.585 134.146 67.87 133.706C67.1 133.266 66.825 132.606 67.32 131.011C67.815 129.416 72.545 115.006 68.53 110.661C64.515 106.261 55.825 115.226 54.34 116.161C52.855 117.096 52.305 115.556 52.415 114.511C52.525 113.466 53.9 101.751 54.725 96.4708C55.55 91.1358 54.615 87.5058 51.425 86.4608C48.345 85.4158 45.595 90.3108 43.67 92.0158C41.8 93.5008 40.15 90.7508 40.15 90.7508C40.15 90.7508 37.95 83.2708 31.955 70.1808C25.905 57.0908 20.295 60.5558 20.295 60.5558" fill="#EAEAEA"/>
<path d="M67.8698 167.256C63.4698 157.631 55.9348 140.416 49.4448 125.676C42.8998 110.936 37.0148 97.5709 32.6698 87.9459C30.4698 83.1609 28.7098 79.2559 27.4998 76.5609C26.8948 75.2409 26.3998 74.1959 26.1248 73.4809C25.9598 73.1509 25.8498 72.8759 25.7948 72.6559C25.7398 72.4909 25.6848 72.3809 25.6848 72.3809C25.6848 72.3809 25.7398 72.4909 25.8498 72.6559C25.9598 72.8209 26.0698 73.0959 26.2348 73.4809C26.5648 74.1959 27.0598 75.2409 27.6648 76.5609C28.9298 79.2559 30.6898 83.1059 32.8898 87.9459C37.2898 97.5709 43.2298 110.881 49.7748 125.621C56.3198 140.361 63.7998 157.631 68.1448 167.256" fill="#E0E0E0"/>
<path d="M26.7849 102.85C26.7849 102.85 27.0049 102.905 27.4449 103.07C27.8849 103.235 28.4349 103.455 29.2049 103.785C30.6899 104.39 32.6699 105.325 34.8149 106.425C36.9599 107.47 38.8849 108.405 40.3699 109.175C41.0299 109.505 41.5799 109.78 42.0749 110C42.4599 110.165 42.6799 110.33 42.6799 110.33C42.6799 110.33 42.4599 110.275 42.0199 110.11C41.5799 109.945 41.0299 109.725 40.2599 109.395C38.8299 108.735 36.8499 107.8 34.6499 106.755C32.5049 105.71 30.5799 104.775 29.0399 104.06C28.3799 103.73 27.7749 103.455 27.3349 103.235C27.0049 102.96 26.7849 102.85 26.7849 102.85Z" fill="#E0E0E0"/>
<path d="M43.3399 109.727C43.2849 109.672 44.9899 105.492 47.1899 100.377C49.3899 95.2623 51.2599 91.0823 51.3149 91.1373C51.3699 91.1923 49.6649 95.3723 47.4649 100.487C45.2649 105.602 43.4499 109.727 43.3399 109.727Z" fill="#E0E0E0"/>
<path d="M52.3599 132.823C52.3599 132.823 52.4699 132.603 52.7999 132.273C53.1299 131.888 53.5149 131.393 54.0099 130.788C55.0549 129.523 56.4299 127.818 57.9149 125.838C59.3999 123.858 60.7199 122.043 61.5999 120.723C62.0399 120.118 62.4249 119.568 62.6999 119.128C62.9749 118.743 63.1399 118.578 63.1399 118.578C63.1399 118.578 63.0299 118.798 62.8099 119.183C62.5899 119.568 62.2599 120.118 61.8199 120.833C60.9399 122.208 59.6749 124.078 58.1899 126.003C56.7049 127.983 55.2749 129.688 54.1749 130.898C53.6249 131.503 53.1849 131.998 52.8549 132.328C52.5799 132.658 52.3599 132.823 52.3599 132.823Z" fill="#E0E0E0"/>
<path d="M36.0248 129.91C36.0248 129.91 36.2448 129.91 36.6848 129.965C37.1798 130.02 37.7298 130.13 38.4448 130.185C39.9298 130.405 41.9648 130.735 44.2198 131.12C46.4748 131.505 48.5098 131.835 49.9948 132.11C50.6548 132.22 51.2598 132.33 51.7548 132.44C52.1398 132.55 52.4148 132.605 52.3598 132.605C52.3598 132.605 52.1398 132.605 51.6998 132.55C51.2048 132.495 50.6548 132.385 49.9398 132.33C48.4548 132.11 46.4198 131.78 44.1648 131.395C41.9098 131.01 39.8748 130.68 38.3898 130.405C37.7298 130.295 37.1248 130.185 36.6298 130.075C36.2448 129.965 36.0248 129.91 36.0248 129.91Z" fill="#E0E0E0"/>
<path d="M41.36 151.305C41.36 151.305 41.635 151.305 42.185 151.36C42.79 151.415 43.505 151.525 44.44 151.635C46.365 151.91 48.95 152.295 51.865 152.735C54.78 153.175 57.365 153.615 59.29 153.945C60.17 154.11 60.94 154.22 61.545 154.33C62.095 154.44 62.37 154.495 62.37 154.495C62.37 154.495 62.095 154.495 61.545 154.44C60.94 154.385 60.225 154.275 59.29 154.165C57.365 153.89 54.78 153.505 51.865 153.065C48.95 152.625 46.365 152.185 44.44 151.855C43.56 151.69 42.79 151.58 42.185 151.47C41.635 151.36 41.36 151.305 41.36 151.305Z" fill="#E0E0E0"/>
<path d="M61.875 154.327C61.875 154.327 62.04 154.052 62.37 153.612C62.755 153.117 63.25 152.457 63.855 151.687C65.12 150.037 66.825 147.782 68.64 145.252C70.455 142.722 72.05 140.357 73.205 138.652C73.755 137.827 74.195 137.167 74.58 136.617C74.91 136.122 75.075 135.902 75.13 135.902C75.13 135.902 75.02 136.177 74.69 136.672C74.415 137.167 73.975 137.882 73.425 138.762C72.325 140.522 70.785 142.887 68.915 145.417C67.1 147.947 65.34 150.202 64.075 151.852C63.415 152.677 62.92 153.282 62.535 153.722C62.095 154.107 61.875 154.327 61.875 154.327Z" fill="#E0E0E0"/>
<path d="M204.325 233.143C205.425 233.583 206.305 234.573 206.745 235.673C207.185 236.773 207.24 238.038 207.185 239.248C207.02 241.558 205.755 243.923 204.38 245.848C202.4 244.198 201.85 241.283 201.685 239.743C201.355 237.378 202.29 232.868 204.325 233.143Z" fill="#1C85E8"/>
<path d="M206.745 249.592C206.415 248.272 206.91 246.842 207.845 245.907C208.835 244.972 210.21 244.587 211.53 244.642C212.135 244.697 212.85 244.807 213.18 245.302C213.51 245.742 213.51 246.457 213.235 246.952C212.96 247.502 212.52 247.887 212.025 248.217C210.43 249.317 208.67 250.087 206.745 249.592Z" fill="#1C85E8"/>
<path d="M204.435 256.745C204.435 256.745 204.435 256.58 204.49 256.25C204.545 255.92 204.6 255.48 204.71 254.985C204.875 253.885 205.095 252.345 205.92 250.86C206.69 249.375 207.79 248.22 208.78 247.67C209.275 247.395 209.66 247.175 209.99 247.12C210.155 247.065 210.265 247.065 210.32 247.01C210.375 247.01 210.43 247.01 210.43 247.01C210.43 247.065 209.77 247.175 208.835 247.78C207.9 248.385 206.855 249.485 206.085 250.97C205.315 252.455 205.095 253.995 204.875 255.04C204.765 255.59 204.71 256.03 204.6 256.305C204.49 256.58 204.49 256.745 204.435 256.745Z" fill="#263238"/>
<path d="M203.885 236.666C203.885 236.666 203.885 236.721 203.94 236.886C203.94 237.051 203.995 237.216 203.995 237.491C204.05 237.986 204.105 238.756 204.16 239.691C204.27 241.561 204.38 244.091 204.49 246.896C204.545 249.701 204.6 252.286 204.545 254.156C204.545 255.091 204.545 255.806 204.49 256.356C204.49 256.576 204.49 256.796 204.49 256.961C204.49 257.071 204.49 257.181 204.49 257.181C204.49 257.181 204.49 257.126 204.49 256.961C204.49 256.796 204.49 256.631 204.49 256.356C204.49 255.806 204.49 255.091 204.49 254.156C204.49 252.286 204.435 249.756 204.38 246.896C204.325 244.091 204.215 241.506 204.105 239.691C204.05 238.756 204.05 238.041 203.995 237.491C203.995 237.271 203.995 237.051 203.995 236.886C203.885 236.721 203.885 236.666 203.885 236.666Z" fill="#263238"/>
<path d="M203.39 251.126C202.84 248.321 200.915 245.901 198.33 244.746C197.67 244.471 196.79 244.251 196.295 244.801C195.8 245.296 195.91 246.176 196.185 246.836C197.34 249.586 200.365 251.511 203.335 251.346" fill="#1C85E8"/>
<path d="M198.715 246.898C198.715 246.898 198.88 246.953 199.155 247.063C199.265 247.118 199.43 247.173 199.65 247.283C199.815 247.393 200.035 247.503 200.255 247.613C200.475 247.778 200.695 247.888 200.97 248.108C201.245 248.273 201.465 248.493 201.74 248.768C202.235 249.263 202.73 249.813 203.17 250.473C203.61 251.133 203.94 251.848 204.16 252.508C204.27 252.838 204.38 253.168 204.435 253.443C204.49 253.718 204.545 254.048 204.6 254.268C204.655 254.543 204.655 254.763 204.655 254.983C204.655 255.203 204.655 255.368 204.655 255.533C204.655 255.808 204.655 255.973 204.6 255.973C204.545 255.973 204.6 255.313 204.49 254.323C204.435 254.048 204.435 253.773 204.325 253.498C204.27 253.223 204.16 252.893 204.05 252.563C203.83 251.903 203.5 251.243 203.06 250.583C202.62 249.923 202.125 249.373 201.685 248.878C201.465 248.658 201.19 248.438 200.97 248.218C200.75 247.998 200.53 247.888 200.31 247.723C199.265 247.173 198.715 246.953 198.715 246.898Z" fill="#263238"/>
<path d="M39.2701 243.104C39.7651 241.124 38.5001 239.144 37.0151 237.714C35.5851 236.284 33.8251 235.019 33.1101 233.094C31.9001 230.014 33.5501 226.054 31.4601 223.524C30.2501 222.039 28.0501 221.544 26.9501 219.894C26.4001 219.069 26.1801 218.024 25.9601 217.034C24.8051 211.974 22.2751 207.244 18.7001 203.504C18.4251 208.014 19.4701 212.579 21.5601 216.539C22.3851 218.134 23.4301 219.729 23.7051 221.489C24.1451 224.404 22.5501 227.374 23.2651 230.234C24.0901 233.479 27.7751 235.679 27.9401 239.034C28.1051 241.894 25.6301 244.369 25.7951 247.229C25.8501 248.439 26.4551 249.539 27.0601 250.584C29.2601 254.214 32.5051 256.744 37.4001 256.689L43.3951 256.909L39.2701 243.104Z" fill="#1C85E8"/>
<g opacity="0.3">
<g opacity="0.3">
<g opacity="0.3">
<g opacity="0.3">
<g opacity="0.3">
<path opacity="0.3" d="M39.2701 243.104C39.7651 241.124 38.5001 239.144 37.0151 237.714C35.5851 236.284 33.8251 235.019 33.1101 233.094C31.9001 230.014 33.5501 226.054 31.4601 223.524C30.2501 222.039 28.0501 221.544 26.9501 219.894C26.4001 219.069 26.1801 218.024 25.9601 217.034C24.8051 211.974 22.2751 207.244 18.7001 203.504C18.4251 208.014 19.4701 212.579 21.5601 216.539C22.3851 218.134 23.4301 219.729 23.7051 221.489C24.1451 224.404 22.5501 227.374 23.2651 230.234C24.0901 233.479 27.7751 235.679 27.9401 239.034C28.1051 241.894 25.6301 244.369 25.7951 247.229C25.8501 248.439 26.4551 249.539 27.0601 250.584C29.2601 254.214 32.5051 256.744 37.4001 256.689L43.3951 256.909L39.2701 243.104Z" fill="black"/>
</g>
</g>
</g>
</g>
</g>
<path d="M44.6052 257.124C44.6052 257.124 45.1552 257.234 46.2552 257.069C46.8052 257.014 47.4652 256.849 48.1802 256.574C48.9502 256.299 49.7752 255.914 50.6002 255.254C50.9852 254.924 51.3702 254.484 51.5902 253.934C51.8102 253.384 51.8102 252.779 51.8652 252.119C51.9202 251.514 51.9202 250.854 52.0302 250.194C52.1402 249.534 52.4152 248.874 52.7452 248.269C53.4602 247.004 54.6152 245.849 55.0002 244.144C55.3852 242.494 55.1102 240.679 54.8352 238.919C54.5602 237.104 54.2852 235.179 55.0002 233.309C55.6602 231.439 56.9802 229.734 57.6402 227.644C58.3002 225.499 57.9702 223.244 58.1352 220.934C58.1902 219.779 58.4102 218.679 58.9052 217.634C59.4002 216.589 60.0602 215.599 60.6102 214.444C61.6552 212.189 61.8752 209.604 62.1502 207.129C62.3152 205.864 62.4252 204.599 62.5902 203.279C62.7552 201.959 62.8652 200.694 63.2502 199.429C63.6352 198.164 64.1302 196.954 64.6802 195.744C64.9552 195.139 65.2302 194.479 65.3952 193.819C65.5052 193.104 65.5602 192.444 65.6152 191.784C65.6702 190.409 65.6152 189.034 65.4502 187.659C65.2852 186.284 65.0652 184.909 64.9002 183.534C64.9002 183.479 64.9002 183.369 64.9002 183.314L64.8452 183.039L64.6252 183.149C63.3602 183.809 62.2602 184.744 61.3802 185.844C60.5002 186.944 59.8952 188.209 59.4002 189.474C58.4102 192.059 58.0252 194.754 57.5302 197.339C57.0352 199.924 56.3752 202.454 55.0552 204.599C54.3952 205.644 53.6252 206.634 52.9102 207.679C52.1952 208.724 51.5902 209.824 51.4252 211.089C51.0952 213.619 52.4702 215.874 52.1952 218.074C52.0852 219.174 51.6452 220.219 51.0952 221.209C50.5452 222.144 49.8852 223.079 49.2802 223.959C48.6752 224.839 48.0702 225.774 47.6852 226.709C47.2452 227.699 47.0252 228.689 46.9702 229.734C46.8052 231.769 47.1352 233.694 46.9702 235.454C46.8602 237.269 46.2002 238.919 45.4852 240.404C44.7702 241.889 43.9452 243.209 43.2852 244.529C42.9552 245.189 42.6252 245.794 42.3502 246.454C42.0752 247.059 41.9652 247.719 41.8002 248.324C41.5802 249.589 41.6352 250.744 41.7452 251.734C42.0202 253.769 42.7902 255.254 43.4502 256.079C43.6152 256.299 43.7802 256.464 43.9452 256.629C44.1102 256.794 44.2202 256.904 44.3302 256.959C44.4952 257.069 44.6052 257.124 44.6052 257.124C44.6052 257.069 44.1102 256.794 43.4502 255.969C42.7902 255.144 42.0752 253.659 41.8002 251.624C41.6902 250.634 41.6902 249.479 41.8552 248.269C41.9652 247.664 42.1302 247.059 42.4052 246.399C42.6802 245.794 42.9552 245.134 43.3402 244.529C44.0002 243.264 44.8252 241.944 45.5952 240.459C46.3102 238.974 46.9702 237.324 47.1352 235.454C47.3002 233.584 47.0252 231.659 47.1902 229.734C47.2452 228.744 47.4652 227.754 47.9052 226.819C48.3452 225.884 48.8952 225.004 49.5002 224.124C50.1052 223.244 50.7652 222.364 51.3152 221.374C51.8652 220.384 52.3602 219.339 52.4702 218.129C52.7452 215.764 51.3702 213.509 51.7552 211.144C51.9202 209.989 52.5252 208.889 53.1852 207.899C53.8452 206.854 54.6702 205.919 55.3302 204.819C56.7052 202.619 57.3652 200.034 57.8602 197.449C58.3552 194.864 58.7402 192.169 59.7302 189.694C60.2252 188.429 60.8302 187.219 61.6552 186.119C62.4802 185.019 63.5252 184.139 64.7352 183.534L64.4602 183.369C64.4602 183.424 64.4602 183.534 64.4602 183.589C64.6252 184.964 64.8452 186.339 65.0102 187.714C65.1752 189.089 65.2302 190.464 65.1752 191.784C65.1202 192.444 65.1202 193.159 65.0102 193.764C64.8452 194.369 64.5702 195.029 64.3502 195.634C63.8002 196.844 63.3052 198.109 62.9202 199.374C62.4802 200.639 62.3702 202.014 62.2602 203.279C62.0952 204.544 61.9852 205.864 61.8202 207.129C61.5452 209.659 61.3252 212.189 60.3352 214.334C59.8402 215.434 59.1802 216.424 58.6852 217.524C58.1902 218.624 57.9152 219.834 57.8602 220.989C57.7502 223.299 58.0252 225.554 57.4202 227.589C56.8152 229.624 55.4952 231.329 54.8352 233.254C54.1202 235.234 54.3952 237.214 54.7252 239.029C55.0002 240.844 55.3302 242.604 54.9452 244.199C54.6152 245.794 53.4602 246.949 52.7452 248.269C52.3602 248.929 52.0852 249.589 51.9752 250.249C51.8652 250.909 51.8652 251.569 51.8652 252.229C51.8102 252.834 51.8102 253.439 51.5902 253.989C51.4252 254.484 51.0402 254.924 50.6552 255.254C49.8852 255.914 49.0602 256.299 48.2902 256.574C47.5752 256.849 46.9152 257.014 46.3652 257.069C45.8152 257.179 45.4302 257.179 45.1552 257.179C44.7152 257.124 44.6052 257.124 44.6052 257.124Z" fill="#263238"/>
<path d="M63.5252 186.561C63.5252 186.561 63.5252 186.616 63.4702 186.726C63.4152 186.891 63.4152 187.056 63.3602 187.276C63.2502 187.771 63.0852 188.486 62.8652 189.366C62.6452 190.246 62.0952 191.236 61.6002 192.501C61.1052 193.711 60.6102 195.141 60.1702 196.736C59.7302 198.331 59.2902 200.091 58.9052 202.016C58.4652 203.886 58.0252 205.921 56.9802 207.846C56.4852 208.836 55.9352 209.826 55.4952 210.871C55.0552 211.971 54.7802 213.126 54.6152 214.281C54.3402 216.646 53.9002 219.066 53.3502 221.541C52.1402 226.436 50.9852 231.111 49.9402 235.401C48.8952 239.636 47.9052 243.486 47.0802 246.676C46.3102 249.866 45.6502 252.451 45.2102 254.321C44.9902 255.201 44.8252 255.916 44.7152 256.411C44.6602 256.631 44.6052 256.796 44.6052 256.961C44.6052 257.071 44.5502 257.126 44.5502 257.126C44.5502 257.126 44.6052 257.071 44.6052 256.961C44.6602 256.796 44.7152 256.631 44.7702 256.411C44.8802 255.916 45.1002 255.201 45.3202 254.376C45.8152 252.561 46.4752 249.976 47.3002 246.786C48.1252 243.596 49.1152 239.746 50.2152 235.511C51.2602 231.276 52.4152 226.601 53.6252 221.651C54.1752 219.176 54.6152 216.756 54.8902 214.391C55.0552 213.236 55.2752 212.081 55.7152 211.036C56.1552 209.991 56.7052 209.001 57.2002 208.011C58.2452 206.031 58.6852 203.941 59.1252 202.071C59.5102 200.146 59.9502 198.386 60.3352 196.791C60.7752 195.196 61.2152 193.766 61.7102 192.556C62.1502 191.346 62.7002 190.301 62.9202 189.366C63.1402 188.431 63.2502 187.771 63.3602 187.276C63.4152 187.056 63.4152 186.891 63.4702 186.726C63.5252 186.616 63.5252 186.561 63.5252 186.561Z" fill="#263238"/>
<path d="M45.6501 257.188C49.5551 254.878 50.7101 247.783 49.0601 243.548C47.4101 239.313 44.5501 235.408 44.1101 230.898C43.7801 227.433 44.9351 223.858 44.1101 220.448C43.0101 215.828 38.5551 212.308 38.6101 207.578C38.6651 204.938 40.1501 202.463 40.0401 199.768C39.8751 196.523 37.4001 193.938 35.8601 191.078C33.4951 186.678 33.3301 181.508 32.5601 176.613C31.7351 171.718 29.8651 166.438 25.5201 164.018C24.8601 168.198 23.7601 171.058 24.1451 176.668C24.2551 178.703 26.6201 182.553 26.9501 187.008C27.1151 189.648 27.2801 192.343 27.4451 194.983C27.6101 197.568 27.7751 200.208 28.7101 202.628C29.4251 204.498 30.5801 206.148 31.0751 208.073C32.0651 211.648 30.7451 215.553 31.5701 219.238C32.2301 222.318 34.3751 225.013 34.8151 228.148C35.4201 232.548 32.5601 237.113 34.0451 241.348C34.7601 243.438 36.4651 245.088 36.9601 247.233C37.3451 248.883 36.9051 250.698 37.2901 252.348C37.8401 255.043 43.0101 257.133 45.7601 256.968" fill="#1C85E8"/>
<path d="M26.5646 168.133C26.5646 168.133 26.5646 168.188 26.5646 168.353C26.5646 168.518 26.6196 168.738 26.6746 169.013C26.7846 169.618 26.8396 170.498 27.0596 171.653C27.2796 172.808 27.8846 174.073 28.3246 175.668C28.8196 177.208 29.3146 179.023 29.7546 181.003C30.1946 182.983 30.5796 185.238 30.9646 187.603C31.3496 189.968 31.7896 192.608 32.9446 195.083C33.4946 196.348 34.0996 197.558 34.5946 198.933C35.0896 200.253 35.3096 201.683 35.4196 203.168C35.6396 206.138 36.0246 209.163 36.5746 212.298C37.7846 218.458 38.9396 224.343 39.9296 229.678C41.0296 235.013 42.0196 239.798 42.8446 243.868C43.6696 247.883 44.3846 251.128 44.8246 253.438C45.0446 254.538 45.2646 255.418 45.3746 256.023C45.4296 256.298 45.4846 256.518 45.5396 256.683C45.5946 256.848 45.5946 256.903 45.5946 256.903C45.5946 256.903 45.5946 256.848 45.5946 256.683C45.5396 256.518 45.5396 256.298 45.4846 256.023C45.3746 255.418 45.2096 254.538 44.9896 253.438C44.5496 251.128 43.8896 247.883 43.1196 243.868C42.2946 239.798 41.3596 235.013 40.3146 229.678C39.2696 224.343 38.1696 218.458 36.9596 212.298C36.4096 209.218 36.0246 206.193 35.8046 203.223C35.6946 201.738 35.4196 200.253 34.9246 198.933C34.4296 197.558 33.8246 196.293 33.2746 195.083C32.1196 192.608 31.6796 190.078 31.2396 187.713C30.8546 185.348 30.4696 183.093 29.9746 181.113C29.5346 179.078 28.9846 177.318 28.4896 175.723C27.9946 174.183 27.3896 172.863 27.1696 171.763C26.9496 170.663 26.8396 169.728 26.7296 169.178C26.6746 168.903 26.6196 168.683 26.6196 168.518C26.5646 168.243 26.5646 168.133 26.5646 168.133Z" fill="#263238"/>
<path d="M147.95 256.954H71.3896C62.1496 256.899 54.3396 249.034 54.3396 239.794L55.1646 47.0188C55.2196 37.7788 62.7546 30.2988 71.9946 30.3538L148.885 30.6838C158.125 30.7388 165.605 38.2738 165.55 47.5138L164.725 240.289C164.725 249.529 157.19 257.009 147.95 256.954Z" fill="#263238"/>
<path d="M148.995 37.9997L134.09 37.9447C132.11 37.9447 130.46 39.6497 130.46 41.7397V44.4347C130.46 46.5247 128.81 48.2297 126.83 48.2297L97.7899 48.1197C95.8099 48.1197 94.1599 46.4147 94.1599 44.3247V41.6297C94.1599 39.5397 92.5649 37.8347 90.5299 37.8347H85.3049L72.2699 37.7797C65.7799 37.7247 60.4999 43.0047 60.4999 49.4397L59.7299 237.595C59.7299 244.085 64.9549 249.365 71.3899 249.365L148.115 249.695C154.605 249.75 159.885 244.47 159.885 238.035L160.655 49.8797C160.655 43.3347 155.43 38.0547 148.995 37.9997Z" fill="#F5F5F5"/>
<path d="M116.38 214.115C116.27 216.37 116.215 218.515 116.16 220.275H127.16L125.785 213.51L116.38 214.115Z" fill="#F5F5F5"/>
<path d="M71.6099 216.916L71.7199 220.271H115.06C115.115 218.401 115.225 216.311 115.28 214.166L71.6099 216.916Z" fill="#F5F5F5"/>
<path d="M126.39 213.453L127.765 220.273H148.06L147.84 212.078L126.39 213.453Z" fill="#F5F5F5"/>
<path d="M117.48 118.306L121.33 96.0314L111.265 95.3164V118.306H117.48Z" fill="#F5F5F5"/>
<path d="M70.6749 204.543L59.7849 208.833L59.7299 216.588L71.0049 215.873L70.6749 204.543Z" fill="#F5F5F5"/>
<path d="M70.6748 202.837L70.0698 182.047H70.0148V174.732L59.8948 175.832L59.7848 207.072L70.6198 202.782L70.6748 202.837Z" fill="#F5F5F5"/>
<path d="M70.0149 158.4L60.0049 157.08L59.8949 174.185L70.0149 173.085V158.4Z" fill="#F5F5F5"/>
<path d="M144.925 175.062L144.54 181.002L132.66 182.267L133.595 186.997L147.07 185.952L146.85 179.242L147.895 174.732L144.925 175.062Z" fill="#F5F5F5"/>
<path d="M123.53 187.771L133.045 187.056L130.955 176.496L122.705 177.321L123.53 187.771Z" fill="#F5F5F5"/>
<path d="M123.64 188.815L124.355 197.67L125.675 209.715L126.17 212.355L147.785 210.98L147.07 187.055L123.64 188.815Z" fill="#F5F5F5"/>
<path d="M86.4599 147.231L87.2849 148.661L70.5649 158.396V181.496L88.1649 180.231L122.1 176.821L120.835 161.696L88.4399 157.461L88.6599 155.811L120.725 159.991L118.635 134.416L86.8999 137.441L86.7899 136.341L118.525 133.316L117.425 119.951H86.8999L60.1149 124.846L60.0049 155.426L70.1249 156.746L86.4599 147.231ZM72.3249 179.296C72.3249 179.296 72.4349 160.266 72.3249 159.551L85.9099 152.291L87.6699 178.306L72.3249 179.296Z" fill="#F5F5F5"/>
<path d="M143.825 175.174L131.505 176.439L132.44 181.224L143.495 180.014L143.825 175.174Z" fill="#F5F5F5"/>
<path d="M116.545 210.045C116.49 211.035 116.49 212.025 116.435 213.015L125.62 212.41L125.125 210.045H116.545Z" fill="#F5F5F5"/>
<path d="M96.8 118.303L98.395 110.988H110.715V95.2584L72.215 92.3984V107.193L60.17 109.888L60.115 123.143L86.79 118.303H96.8Z" fill="#F5F5F5"/>
<path d="M122.485 74.525L122.155 73.15L136.84 67.32L127.27 48.125C127.105 48.125 126.94 48.18 126.72 48.18L110.55 48.125L110.99 75.02L122.485 74.525Z" fill="#F5F5F5"/>
<path d="M144.815 64.2412V38.0062L134.09 37.9512C132.11 37.9512 130.46 39.6562 130.46 41.7462V44.4412C130.46 45.7062 129.855 46.8612 128.865 47.5212L138.435 66.7162L144.815 64.2412Z" fill="#F5F5F5"/>
<path d="M89.4849 65.3388L88.2199 37.7288H85.2499L73.6449 37.6738L68.6949 62.3688L89.4849 65.3388ZM86.8449 40.5338L87.2299 63.0288L71.7749 60.7738L75.1849 40.5338H86.8449Z" fill="#F5F5F5"/>
<path d="M90.09 65.4482V65.6682C90.09 67.8132 90.145 71.7182 90.2 75.8432L110.44 75.0182L110 48.1232L97.735 48.0682C95.755 48.0682 94.105 46.3632 94.105 44.2732V41.5782C94.105 39.4882 92.51 37.7832 90.475 37.7832H88.77L90.09 65.4482Z" fill="#F5F5F5"/>
<path d="M67.045 62.1466L71.94 37.7266C65.56 37.8366 60.445 43.0066 60.445 49.3866L60.39 61.5966L60.445 61.2116L67.045 62.1466Z" fill="#F5F5F5"/>
<path d="M70.565 92.2876L60.28 91.5176L60.225 108.183L70.565 105.873V92.2876Z" fill="#F5F5F5"/>
<path d="M66.9349 62.644L60.3899 61.709L60.2799 88.769L61.7099 88.879L66.9349 62.644Z" fill="#F5F5F5"/>
<path d="M87.78 202.508L87.945 180.783L70.62 182.048L71.225 203.278L87.78 202.508Z" fill="#F5F5F5"/>
<path d="M90.9699 197.505L115.5 209.275C115.775 201.575 116.05 194.425 116.05 193.93L116.6 193.875L116.875 193.38C117.205 193.545 117.205 193.545 117.04 198.77C116.93 201.685 116.82 205.59 116.655 209.495H125.125L123.86 197.725L122.21 177.375L90.1449 180.62L90.9699 197.505Z" fill="#F5F5F5"/>
<path d="M151.085 161.479L150.81 158.619L121.44 161.699L122.65 176.769L148.06 174.184L151.085 161.479Z" fill="#F5F5F5"/>
<path d="M110.715 112.639H99.7699L98.5049 118.304H110.715V112.639Z" fill="#F5F5F5"/>
<path d="M146.575 114.564L119.075 112.639L117.975 119.129L119.13 133.264L148.17 130.459L146.575 114.564ZM120.065 119.129L121.55 115.004L145.475 116.489L146.85 128.204L120.89 131.284L120.065 119.129Z" fill="#F5F5F5"/>
<path d="M149.435 144.042L148.225 131.557L119.185 134.362L120.285 147.617L149.435 144.042Z" fill="#F5F5F5"/>
<path d="M71.0599 216.975L59.7849 217.69L59.7299 216.92V220.275H71.1699L71.0599 216.975Z" fill="#F5F5F5"/>
<path d="M160.435 58.0236L160.6 58.4636L160.655 49.8286C160.655 43.3386 155.43 38.0586 148.995 38.0586H145.365V64.0736L160.435 58.0236Z" fill="#F5F5F5"/>
<path d="M115.445 209.824L90.3649 197.834L89.4849 180.619L88.4399 180.729L88.2749 203.004L71.2249 203.829V204.324L71.5549 215.819L115.335 213.069C115.39 211.969 115.445 210.924 115.445 209.824ZM72.3249 205.259L96.2499 203.609L111.815 210.814L72.3799 212.959V205.259H72.3249Z" fill="#F5F5F5"/>
<path d="M153.34 86.8995L154.385 80.7945C145.42 77.6045 144.76 68.1995 144.815 65.3945L138.93 67.7045L147.785 85.4145L153.34 86.8995Z" fill="#F5F5F5"/>
<path d="M121.275 160.051L133.485 158.786L131.065 147.951L120.395 149.271L121.275 160.051Z" fill="#F5F5F5"/>
<path d="M146.63 96.194H123.805L121.88 96.084L119.35 110.989L146.41 112.914L145.75 106.369L148.445 96.799L146.63 96.194Z" fill="#F5F5F5"/>
<path d="M146.025 93.4455L146.3 86.2955L137.335 68.3105L123.42 73.8105L128.205 93.4455H146.025V93.4455ZM136.84 70.5105L145.035 86.1306L143.825 91.0255L129.745 90.4755L126.225 75.6806L136.84 70.5105Z" fill="#F5F5F5"/>
<path d="M149.6 179.52L150.04 193.545L159.885 192.94L159.94 193.49L150.04 194.095L150.535 210.815L159.885 210.265L159.94 211.365L150.59 211.915L150.81 220.275H159.94L160.105 173.525L150.81 174.46L149.6 179.52Z" fill="#F5F5F5"/>
<path d="M89.54 65.8902L68.585 62.8652L63.36 88.9352L89.595 90.8602C89.705 86.9002 89.65 74.5802 89.54 65.8902Z" fill="#F5F5F5"/>
<path d="M123.97 93.4423H127.105L122.65 75.0723L110.99 75.5123L111.265 92.5073L123.97 93.4423Z" fill="#F5F5F5"/>
<path d="M90.1449 90.9684L110.715 92.5084L110.44 75.5684L90.1999 76.3934C90.1999 82.1134 90.2549 88.2184 90.1449 90.9684Z" fill="#F5F5F5"/>
<path d="M149.6 145.695L131.615 147.895L134.035 158.73L150.7 156.97L149.6 145.695Z" fill="#F5F5F5"/>
<path d="M154.44 80.243L155.595 73.423L160.545 73.808L160.6 59.123L145.31 65.173C145.035 75.513 151.525 79.143 154.44 80.243Z" fill="#F5F5F5"/>
<path d="M148.555 106.645L149.215 113.08L160.38 113.85L160.435 100.595L151.085 97.625L148.555 106.645Z" fill="#F5F5F5"/>
<path d="M153.89 161.699L150.975 173.909L160.16 172.974L160.215 160.159C157.41 159.444 154.935 158.839 153.615 158.564L153.89 161.699Z" fill="#F5F5F5"/>
<path d="M147.675 93.6655L160.435 97.6805L160.49 90.4755L147.95 87.2305L147.675 93.6655Z" fill="#F5F5F5"/>
<path d="M153.45 156.858C154.495 157.023 156.42 157.408 160.215 158.398L160.325 130.348L150.975 131.228L153.45 156.858Z" fill="#F5F5F5"/>
<path d="M150.865 130.184L160.325 129.304L160.38 115.499L149.325 114.729L150.865 130.184Z" fill="#F5F5F5"/>
<path d="M155.485 80.6281C157.3 81.1781 158.95 81.6181 160.49 81.8931L160.545 74.9081L156.53 74.5781L155.485 80.6281Z" fill="#F5F5F5"/>
<path d="M154.385 87.1727L160.49 88.7677V82.4977C158.895 82.1677 157.19 81.7277 155.375 81.1777L154.385 87.1727Z" fill="#F5F5F5"/>
<path d="M159.94 211.362L159.885 210.262L150.535 210.867L150.04 194.092L159.94 193.542L159.885 192.992L149.985 193.542L149.545 179.517L150.755 174.457L160.05 173.522V172.972L150.865 173.907L153.78 161.697L153.505 158.562C154.825 158.837 157.3 159.442 160.105 160.157V158.452C156.31 157.462 154.385 157.022 153.34 156.912L150.865 131.337L160.215 130.457V129.357L150.755 130.292L149.27 114.837L160.27 115.607V113.957L149.05 113.187L148.445 106.752L150.975 97.7316L160.325 100.702V97.8416L147.565 93.8266L147.84 87.3366L160.38 90.5816V88.8766L154.275 87.2816L155.265 81.2866C157.08 81.8366 158.785 82.2766 160.38 82.6066V82.0566C158.84 81.7266 157.135 81.3416 155.375 80.7916L156.365 74.7966L160.38 75.1266V74.0266L155.43 73.6416L154.275 80.4616C151.36 79.3616 144.87 75.7316 145.145 65.3916L160.435 59.3416V58.6266L160.27 58.1866L145.145 64.1816V38.1666H144.595V64.4016L138.215 66.9316L128.645 47.7366C128.205 48.0666 127.655 48.2866 127.105 48.3416L136.675 67.5366L122.155 73.1466L122.485 74.5216L110.935 75.0166L110.55 48.1216H110L110.44 75.0166L90.2 75.8416C90.145 71.7166 90.145 67.8116 90.09 65.6666V65.4466L88.825 37.7816H88.275L89.54 65.3916L68.75 62.4216L73.7 37.7266H72.27C72.16 37.7266 72.105 37.7266 71.995 37.7266L67.1 62.1466L60.5 61.2116L60.445 61.5966V61.7616L66.99 62.6966L61.71 88.8766L60.28 88.7666V91.5166L70.565 92.2866V105.872L60.17 108.237V109.942L72.215 107.247V92.3966L110.715 95.2566V110.987H98.395L96.8 118.302H86.79L60.17 123.142V124.847L86.955 119.952H117.48L118.58 133.317L86.845 136.342L86.955 137.442L118.69 134.417L120.78 159.992L88.715 155.812L88.495 157.462L120.89 161.697L122.155 176.822L88.22 180.232L70.62 181.497V158.397L87.285 148.662L86.46 147.232L70.125 156.747L60.005 155.427V157.077L70.07 158.397V173.082L59.95 174.127V175.777L70.07 174.677V182.047L70.675 202.782L59.84 207.017V208.777L70.785 204.487L71.115 215.817L59.84 216.532V216.917L59.895 217.632L71.17 216.917L71.28 220.217H71.83L71.72 216.862L115.445 214.112C115.335 216.257 115.28 218.347 115.225 220.217H116.325C116.38 218.457 116.49 216.312 116.545 214.057L126.005 213.452L127.38 220.217H127.93L126.555 213.397L148.005 212.022L148.225 220.162H150.975L159.94 211.362ZM116.435 213.012C116.49 212.022 116.49 211.032 116.545 210.042H125.125L125.62 212.407L116.435 213.012ZM126.17 212.352L125.62 209.712L124.355 197.612L123.64 188.812L147.07 187.052L147.785 210.977L126.17 212.352ZM131.505 176.437L143.825 175.172L143.495 180.012L132.44 181.222L131.505 176.437ZM130.955 176.492L132.99 187.052L123.53 187.767L122.65 177.317L130.955 176.492ZM147.07 185.952L133.595 186.942L132.66 182.212L144.54 180.947L144.98 175.007L147.95 174.732L146.85 179.187L147.07 185.952ZM131.065 147.947L133.485 158.727L121.275 159.992L120.395 149.267L131.065 147.947ZM134.035 158.727L131.615 147.947L149.545 145.747L150.645 157.022L134.035 158.727ZM146.41 112.912L119.35 111.042L121.935 96.0816L123.805 96.2466H146.63L148.445 96.8516L145.805 106.422L146.41 112.912ZM144.76 65.3916C144.76 68.2516 145.365 77.6016 154.33 80.7916L153.285 86.8966L147.675 85.4666L138.82 67.7566L144.76 65.3916ZM137.39 68.3616L146.355 86.3466L146.08 93.4966H128.26L123.475 73.8616L137.39 68.3616ZM122.65 75.0716L127.105 93.4966H123.915L111.21 92.5616L110.935 75.5666L122.65 75.0716ZM110.44 75.5666L110.715 92.5066L90.145 90.9666C90.255 88.2166 90.2 82.1116 90.145 76.3916L110.44 75.5666ZM68.585 62.9166L89.54 65.9416C89.65 74.6316 89.76 86.9516 89.65 90.9666L63.415 89.0416L68.585 62.9166ZM121.33 96.0266L117.48 118.302H111.265V95.2566L121.33 96.0266ZM99.77 112.637H110.77V118.302H98.505L99.77 112.637ZM117.92 119.127L119.02 112.637L146.52 114.562L148.06 130.457L119.02 133.262L117.92 119.127ZM148.225 131.557L149.435 144.042L120.285 147.617L119.185 134.307L148.225 131.557ZM121.44 161.697L150.865 158.617L151.14 161.477L148.06 174.182L122.65 176.767L121.44 161.697ZM123.805 197.722L125.07 209.492H116.6C116.765 205.587 116.875 201.737 116.985 198.767C117.15 193.542 117.15 193.542 116.82 193.377L116.545 193.872L115.995 193.927C115.995 194.367 115.775 201.572 115.445 209.272L90.915 197.502L90.035 180.617L122.1 177.372L123.805 197.722ZM87.945 180.782L87.78 202.507L71.225 203.277L70.62 181.992L87.945 180.782ZM71.225 204.322V203.827L88.275 203.002L88.44 180.727L89.485 180.617L90.365 197.832L115.445 209.822C115.39 210.867 115.39 211.967 115.335 213.012L71.555 215.762L71.225 204.322Z" fill="white"/>
<path d="M96.195 203.553L72.325 205.258V212.903L111.76 210.813L96.195 203.553Z" fill="#EBEBEB"/>
<path d="M145.42 116.544L121.55 115.059L120.065 119.129L120.89 131.394L146.85 128.314L145.42 116.544Z" fill="#EBEBEB"/>
<path d="M59.7299 213.016L59.6749 233.696V237.931C59.8399 244.256 64.9549 249.316 71.3349 249.371L148.06 249.701C154.55 249.756 159.83 244.476 159.83 238.041L159.885 213.071H59.7299V213.016Z" fill="#EBEBEB"/>
<path d="M87.2299 63.0282L86.8449 40.5332H75.1849L71.7749 60.7732L87.2299 63.0282Z" fill="#EBEBEB"/>
<path d="M143.88 91.0228L145.035 86.1828L136.84 70.5078L126.28 75.7328L129.8 90.5278L143.88 91.0228Z" fill="#EBEBEB"/>
<path d="M72.325 159.555C72.435 160.27 72.325 179.3 72.325 179.3L87.6699 178.31L85.9099 152.295L72.325 159.555Z" fill="#EBEBEB"/>
<path d="M123.53 175.01L122.76 163.185L149.105 159.83V161.865L145.915 172.7L123.53 175.01Z" fill="#EBEBEB"/>
<path d="M148.115 205.04L147.785 197.34L124.63 198.44C124.025 198.495 123.42 198.33 122.87 198.055L90.035 181.5C89.265 181.115 88.77 180.345 88.715 179.52L84.26 92.7853C84.26 92.3453 84.37 91.9603 84.7 91.6853C84.975 91.4103 85.415 91.2453 85.8 91.3003L99.88 92.3453V76.9453H101.53V92.5653C101.53 92.9503 101.365 93.3353 101.09 93.6103C100.815 93.8853 100.375 94.0503 99.99 93.9953L85.91 92.9503L90.365 179.465C90.365 179.74 90.53 179.96 90.75 180.07L123.64 196.68C123.915 196.845 124.245 196.9 124.575 196.9L147.95 195.745C148.335 195.745 148.72 195.855 148.995 196.13C149.27 196.405 149.435 196.735 149.49 197.12L149.82 204.985L148.115 205.04Z" fill="white"/>
<path d="M141.35 67.4283C141.35 69.1883 139.92 70.6183 138.16 70.6183C136.4 70.6183 134.97 69.1883 134.97 67.4283C134.97 65.6683 136.4 64.2383 138.16 64.2383C139.865 64.2383 141.35 65.6683 141.35 67.4283Z" fill="#1C85E8"/>
<g opacity="0.6">
<path opacity="0.6" d="M139.787 70.1491C141.287 69.2248 141.753 67.2596 140.829 65.7596C139.905 64.2597 137.94 63.7929 136.44 64.7172C134.94 65.6414 134.473 67.6066 135.397 69.1066C136.321 70.6066 138.287 71.0733 139.787 70.1491Z" fill="white"/>
</g>
<path d="M140.25 67.3188C140.25 68.4738 139.315 69.4638 138.105 69.4638C136.95 69.4638 135.96 68.5288 135.96 67.3188C135.96 66.1638 136.895 65.1738 138.105 65.1738C139.315 65.1738 140.25 66.1638 140.25 67.3188Z" fill="#1C85E8"/>
<path d="M148.83 206.194L148.445 197.174C148.445 197.064 148.39 196.899 148.28 196.844C148.17 196.734 148.06 196.734 147.95 196.734L123.75 197.999L120.835 161.369L117.205 119.184V119.129L121.33 96.579C121.495 95.754 122.21 95.094 123.09 95.094L144.925 95.039C145.75 95.039 146.41 94.379 146.465 93.554L146.85 87.504C146.905 86.734 146.74 85.964 146.41 85.249L137.885 67.429L138.38 67.209L146.905 85.029C147.29 85.799 147.455 86.679 147.4 87.559L147.015 93.609C146.96 94.709 146.025 95.589 144.925 95.589L123.09 95.644C122.485 95.644 121.99 96.084 121.88 96.634L117.755 119.129L121.385 161.259L124.245 197.394L147.895 196.184C148.17 196.184 148.445 196.239 148.665 196.459C148.885 196.624 148.995 196.899 148.995 197.174L149.38 206.194H148.83Z" fill="#1C85E8"/>
<path d="M150.315 205.479C150.315 206.249 149.71 206.854 148.94 206.854C148.17 206.854 147.565 206.249 147.565 205.479C147.565 204.709 148.17 204.104 148.94 204.104C149.71 204.104 150.315 204.709 150.315 205.479Z" fill="#1C85E8"/>
<path d="M123.86 180.069C123.915 180.784 123.365 181.389 122.65 181.444C121.935 181.499 121.33 180.949 121.275 180.234C121.22 179.519 121.77 178.914 122.485 178.859C123.2 178.859 123.805 179.409 123.86 180.069Z" fill="#1C85E8"/>
<path d="M122.705 181.168C121.44 181.278 120.45 182.378 120.56 183.643L125.18 183.313C125.07 182.048 123.97 181.113 122.705 181.168Z" fill="#1C85E8"/>
<path d="M141.02 166.434H129.58C128.645 166.434 127.82 167.204 127.82 168.194V175.344C127.82 176.279 128.59 177.104 129.58 177.104H129.8V178.809L131.78 177.104H140.965C141.955 177.104 142.725 176.334 142.725 175.344V168.194C142.78 167.204 142.01 166.434 141.02 166.434Z" fill="#1C85E8"/>
<g opacity="0.4">
<g opacity="0.4">
<path opacity="0.4" d="M141.02 166.434H129.58C128.645 166.434 127.82 167.204 127.82 168.194V175.344C127.82 176.279 128.59 177.104 129.58 177.104H129.8V178.809L131.78 177.104H140.965C141.955 177.104 142.725 176.334 142.725 175.344V168.194C142.78 167.204 142.01 166.434 141.02 166.434Z" fill="white"/>
</g>
</g>
<path d="M133.21 172.041V172.976H132.825V172.041L131.725 170.281H132.165L133.045 171.711L133.925 170.281H134.31L133.21 172.041Z" fill="white"/>
<path d="M134.2 171.986C134.2 171.381 134.64 170.941 135.245 170.941C135.85 170.941 136.29 171.381 136.29 171.986C136.29 172.591 135.85 173.031 135.245 173.031C134.695 173.031 134.2 172.591 134.2 171.986ZM135.96 171.986C135.96 171.546 135.685 171.271 135.245 171.271C134.86 171.271 134.53 171.546 134.53 171.986C134.53 172.426 134.805 172.701 135.245 172.701C135.685 172.701 135.96 172.426 135.96 171.986Z" fill="white"/>
<path d="M138.765 170.941V172.976H138.435V172.701C138.27 172.921 138.05 173.031 137.72 173.031C137.17 173.031 136.84 172.756 136.84 172.151V170.941H137.225V172.096C137.225 172.481 137.445 172.701 137.775 172.701C138.16 172.701 138.435 172.481 138.435 172.041V170.996H138.765V170.941Z" fill="white"/>
<path d="M73.315 223.63C73.4062 223.63 73.48 223.261 73.48 222.805C73.48 222.35 73.4062 221.98 73.315 221.98C73.2239 221.98 73.15 222.35 73.15 222.805C73.15 223.261 73.2239 223.63 73.315 223.63Z" fill="#263238"/>
<path d="M73.3149 226.929C73.406 226.929 73.4799 226.56 73.4799 226.104C73.4799 225.649 73.406 225.279 73.3149 225.279C73.2238 225.279 73.1499 225.649 73.1499 226.104C73.1499 226.56 73.2238 226.929 73.3149 226.929Z" fill="#263238"/>
<path d="M73.3149 230.23C73.406 230.23 73.4799 229.861 73.4799 229.405C73.4799 228.949 73.406 228.58 73.3149 228.58C73.2238 228.58 73.1499 228.949 73.1499 229.405C73.1499 229.861 73.2238 230.23 73.3149 230.23Z" fill="#263238"/>
<path d="M73.315 233.529C73.4062 233.529 73.48 233.16 73.48 232.704C73.48 232.248 73.4062 231.879 73.315 231.879C73.2239 231.879 73.15 232.248 73.15 232.704C73.15 233.16 73.2239 233.529 73.315 233.529Z" fill="#263238"/>
<path d="M73.3149 236.392C73.406 236.392 73.4799 236.121 73.4799 235.787C73.4799 235.453 73.406 235.182 73.3149 235.182C73.2238 235.182 73.1499 235.453 73.1499 235.787C73.1499 236.121 73.2238 236.392 73.3149 236.392Z" fill="#263238"/>
<path d="M75.6798 239.196C75.6798 237.766 74.3598 236.611 72.8748 236.886C71.9398 237.051 71.1698 237.821 71.0048 238.756C70.8948 239.361 71.0048 239.911 71.2798 240.351C71.3898 240.516 71.4998 240.626 71.6098 240.791L72.9848 242.606C73.1498 242.826 73.4798 242.826 73.6448 242.606L74.9648 240.846C74.9648 240.846 75.2398 240.571 75.2948 240.406C75.5148 240.021 75.6798 239.636 75.6798 239.196ZM73.3148 240.186C72.7648 240.186 72.2698 239.746 72.2698 239.141C72.2698 238.591 72.7098 238.096 73.3148 238.096C73.9198 238.096 74.3598 238.536 74.3598 239.141C74.3598 239.746 73.8648 240.186 73.3148 240.186Z" fill="#455A64"/>
<path d="M132.66 240.186C132.66 240.241 120.78 240.351 106.205 240.351C91.575 240.351 79.75 240.296 79.75 240.186C79.75 240.131 91.63 240.021 106.205 240.021C120.78 240.076 132.66 240.131 132.66 240.186Z" fill="#263238"/>
<path d="M111.76 237.878C111.76 237.933 104.555 238.043 95.6998 238.043C86.8448 238.043 79.6398 237.988 79.6398 237.878C79.6398 237.823 86.8448 237.713 95.6998 237.713C104.555 237.713 111.76 237.823 111.76 237.878Z" fill="#1C85E8"/>
<path d="M88.3299 242.827C88.3299 242.882 86.4049 242.992 84.0949 242.992C81.7299 242.992 79.8599 242.937 79.8599 242.827C79.8599 242.772 81.7849 242.662 84.0949 242.662C86.4599 242.662 88.3299 242.772 88.3299 242.827Z" fill="#263238"/>
<path d="M75.6798 220.937C75.6798 219.507 74.3598 218.352 72.8748 218.627C71.9398 218.792 71.1698 219.562 71.0048 220.497C70.8948 221.102 71.0048 221.652 71.2798 222.092C71.3898 222.257 71.4998 222.367 71.6098 222.532L72.9848 224.347C73.1498 224.567 73.4798 224.567 73.6448 224.347L74.9648 222.587C74.9648 222.587 75.2398 222.312 75.2948 222.147C75.5148 221.762 75.6798 221.377 75.6798 220.937ZM73.3148 221.982C72.7648 221.982 72.2698 221.542 72.2698 220.937C72.2698 220.332 72.7098 219.892 73.3148 219.892C73.9198 219.892 74.3598 220.332 74.3598 220.937C74.3598 221.542 73.8648 221.982 73.3148 221.982Z" fill="#1C85E8"/>
<path d="M143.825 221.979C143.825 222.034 129.47 222.144 111.76 222.144C94.0497 222.144 79.6947 222.089 79.6947 221.979C79.6947 221.924 94.0497 221.814 111.76 221.814C129.47 221.814 143.825 221.869 143.825 221.979Z" fill="#263238"/>
<path d="M125.07 219.671C125.07 219.726 114.895 219.836 102.355 219.836C89.8149 219.836 79.6399 219.781 79.6399 219.671C79.6399 219.616 89.8149 219.506 102.355 219.506C114.895 219.506 125.07 219.561 125.07 219.671Z" fill="#1C85E8"/>
<path d="M104.775 224.567C104.775 224.622 99.2199 224.732 92.3449 224.732C85.4699 224.732 79.9149 224.677 79.9149 224.567C79.9149 224.512 85.4699 224.402 92.3449 224.402C99.1649 224.457 104.775 224.512 104.775 224.567Z" fill="#263238"/>
<path d="M235.62 89.8698L233.09 84.3148C230.56 84.0948 228.03 83.2148 225.83 81.6198C219.505 76.9448 218.13 68.0348 222.75 61.7098C227.425 55.3848 236.335 54.0098 242.66 58.6298C248.985 63.3048 250.36 72.2148 245.74 78.5398C243.815 81.1798 241.12 82.9398 238.205 83.8198L235.62 89.8698Z" fill="white"/>
<path d="M235.621 89.8697C235.786 89.4297 236.556 87.5597 238.151 83.7647L238.206 83.8747H237.656L238.206 83.7097C240.131 83.1597 242.496 82.0047 244.476 79.9147C244.971 79.3647 245.466 78.8147 245.851 78.1547C246.071 77.8247 246.291 77.4947 246.511 77.1647C246.676 76.8347 246.896 76.4497 247.061 76.1197C247.721 74.6347 248.216 72.9847 248.326 71.2247C248.601 67.7047 247.446 63.6347 244.696 60.6097C243.321 59.1247 241.561 57.8597 239.581 57.0347C237.601 56.2647 235.401 55.8247 233.146 56.0447C230.891 56.2647 228.691 56.9247 226.821 58.1347C224.951 59.2897 223.411 60.8847 222.311 62.6447C221.211 64.4047 220.496 66.3847 220.276 68.3097C220.001 70.2347 220.221 72.1597 220.661 73.9197C221.156 75.6797 221.926 77.2197 222.916 78.5397C223.906 79.8597 225.061 80.9047 226.216 81.7297C228.581 83.3797 231.111 84.0397 233.091 84.2047H233.146V84.2597C234.741 87.7797 235.456 89.4297 235.621 89.8697C235.401 89.4297 234.686 87.7797 233.036 84.3147L233.091 84.3697C231.111 84.2047 228.526 83.5997 226.106 81.8947C224.896 81.0147 223.741 79.9697 222.751 78.6497C221.761 77.3297 220.936 75.7347 220.441 73.9747C219.946 72.2147 219.781 70.2347 220.001 68.2547C220.221 66.2747 220.936 64.2947 222.091 62.4797C223.191 60.6647 224.786 59.0697 226.656 57.9147C228.526 56.7047 230.781 55.9897 233.091 55.8247C235.346 55.6047 237.601 55.9897 239.636 56.8147C241.671 57.6397 243.431 58.9047 244.861 60.4447C246.291 61.9847 247.281 63.7997 247.886 65.6697C248.491 67.5397 248.711 69.4647 248.546 71.2797C248.381 73.0947 247.941 74.7997 247.226 76.2847C247.061 76.6697 246.841 76.9997 246.676 77.3847C246.456 77.7147 246.236 78.0447 246.016 78.3747C245.576 79.0347 245.081 79.5847 244.586 80.1347C242.551 82.2247 240.186 83.3797 238.206 83.9297V83.7647H238.316L238.261 83.8747C236.666 87.6147 235.841 89.4297 235.621 89.8697Z" fill="#263238"/>
<path d="M240.35 69.5695C240.35 66.2695 237.38 63.6845 233.97 64.2895C231.825 64.6745 230.12 66.4345 229.735 68.5795C229.515 69.8995 229.79 71.1645 230.395 72.2095C230.615 72.5395 230.835 72.8145 231.11 73.1445L234.245 77.2695C234.63 77.7645 235.4 77.7645 235.785 77.2695L238.865 73.1995C238.865 73.1995 239.415 72.5395 239.635 72.1545C240.075 71.4945 240.35 70.5595 240.35 69.5695ZM234.96 71.8795C233.64 71.8795 232.595 70.8345 232.595 69.5145C232.595 68.1945 233.64 67.1495 234.96 67.1495C236.28 67.1495 237.325 68.1945 237.325 69.5145C237.325 70.8345 236.28 71.8795 234.96 71.8795Z" fill="#1C85E8"/>
<path d="M195.526 63.8028C196.021 61.9878 197.396 61.0528 199.211 60.4478C201.026 59.8428 203.116 60.1728 204.601 61.3278C205.591 62.0978 206.416 63.1978 207.626 63.6378C209.606 64.2978 211.916 62.8678 213.786 63.7478C214.886 64.2978 215.546 65.6178 215.271 66.8278C214.996 68.0378 213.731 68.9178 212.521 68.8628C213.786 69.3578 214.226 71.1728 213.456 72.3278C212.686 73.4828 211.146 73.9228 209.826 73.6478C208.451 73.3728 207.296 72.6028 206.306 71.6678C205.261 70.7328 204.381 69.6878 203.281 68.8628C202.181 68.0378 200.861 67.3778 199.486 67.4878C197.616 67.5978 196.021 68.9728 195.196 70.6778C194.371 72.3278 194.151 74.2528 194.096 76.1228C193.986 77.9928 193.986 79.8628 193.436 81.6228C193.381 81.8428 193.271 82.0628 193.051 82.1178C192.776 82.2278 192.501 81.8978 192.336 81.6228C190.631 78.4878 189.586 75.0228 189.201 71.5028C188.981 69.4678 189.036 67.4878 190.191 65.7828C191.236 63.9678 194.096 62.7028 195.526 63.8028Z" fill="#263238"/>
<path d="M191.95 72.4275L191.015 93.2725C190.85 96.7925 191.345 102.073 196.955 102.073C201.795 101.688 203.28 97.1775 203.39 93.8775C203.445 92.3375 203.5 91.0175 203.555 90.8525C203.555 90.8525 208.89 90.5775 209.495 85.3525C209.77 82.8225 209.99 77.5975 210.1 72.8125C210.21 67.6975 206.415 63.3525 201.355 62.8025L200.86 62.7475C195.305 62.4175 192.06 66.9275 191.95 72.4275Z" fill="#FFBE9D"/>
<path d="M203.555 90.6791C203.555 90.6791 200.2 90.5691 196.955 88.0391C196.955 88.0391 198.165 91.9991 203.445 92.0541L203.555 90.6791Z" fill="#EB996E"/>
<path d="M208.726 76.61C208.671 76.995 208.341 77.325 207.901 77.27C207.461 77.27 207.186 76.885 207.186 76.5C207.241 76.115 207.571 75.785 208.011 75.84C208.451 75.895 208.781 76.225 208.726 76.61Z" fill="#263238"/>
<path d="M208.67 75.1798C208.56 75.2898 208.065 74.7948 207.24 74.6848C206.415 74.5748 205.81 74.9598 205.7 74.8498C205.645 74.7948 205.755 74.6298 206.03 74.4648C206.305 74.2998 206.745 74.1898 207.24 74.2448C207.735 74.2998 208.12 74.5198 208.34 74.7398C208.67 74.9598 208.725 75.1248 208.67 75.1798Z" fill="#263238"/>
<path d="M200.805 76.067C200.75 76.452 200.42 76.782 199.98 76.727C199.54 76.727 199.265 76.342 199.265 75.957C199.32 75.572 199.65 75.242 200.09 75.297C200.53 75.352 200.86 75.682 200.805 76.067Z" fill="#263238"/>
<path d="M200.75 74.4747C200.64 74.5847 200.145 74.0897 199.32 73.9797C198.495 73.8697 197.89 74.2547 197.78 74.1447C197.725 74.0897 197.835 73.9247 198.11 73.7597C198.385 73.5947 198.825 73.4847 199.32 73.5397C199.815 73.5947 200.2 73.8147 200.42 74.0347C200.75 74.2547 200.805 74.4747 200.75 74.4747Z" fill="#263238"/>
<path d="M203.06 80.7298C203.06 80.6748 203.555 80.6748 204.38 80.6198C204.6 80.6198 204.765 80.6198 204.82 80.4548C204.875 80.2898 204.82 80.0698 204.765 79.8498C204.6 79.3548 204.49 78.8048 204.325 78.1998C203.72 75.8898 203.28 73.9648 203.39 73.9648C203.5 73.9648 204.05 75.7798 204.655 78.0898C204.82 78.6398 204.93 79.1898 205.095 79.7398C205.15 79.9598 205.26 80.2348 205.095 80.5648C205.04 80.7298 204.875 80.7848 204.71 80.8398C204.6 80.8398 204.435 80.8398 204.38 80.8398C203.555 80.8398 203.06 80.7848 203.06 80.7298Z" fill="#263238"/>
<path d="M201.3 71.3364C201.19 71.5564 200.42 71.3364 199.43 71.3914C198.495 71.3914 197.67 71.5564 197.56 71.3914C197.505 71.2814 197.67 71.1164 198 70.8964C198.33 70.7314 198.825 70.5664 199.43 70.5664C199.98 70.5664 200.53 70.7314 200.86 70.8964C201.19 71.0614 201.355 71.2814 201.3 71.3364Z" fill="#263238"/>
<path d="M208.615 72.8192C208.45 72.9842 207.9 72.7642 207.24 72.6542C206.58 72.5442 205.975 72.6542 205.865 72.4342C205.81 72.3242 205.92 72.1592 206.195 71.9942C206.47 71.8292 206.855 71.7742 207.35 71.8292C207.79 71.8842 208.175 72.1042 208.395 72.3242C208.67 72.5442 208.725 72.7642 208.615 72.8192Z" fill="#263238"/>
<path d="M191.951 76.3462C191.841 76.2912 188.486 74.9162 188.211 78.4912C187.936 82.0662 191.621 81.6262 191.621 81.5162C191.621 81.4062 191.951 76.3462 191.951 76.3462Z" fill="#FFBE9D"/>
<path d="M190.63 80.0338C190.63 80.0338 190.575 80.0888 190.465 80.0888C190.355 80.1438 190.19 80.1438 189.97 80.0888C189.585 79.9238 189.31 79.3188 189.365 78.6588C189.365 78.3288 189.475 77.9988 189.585 77.7788C189.695 77.5038 189.915 77.3388 190.08 77.3388C190.3 77.2838 190.41 77.4488 190.41 77.5588C190.465 77.6688 190.41 77.7238 190.465 77.7238C190.465 77.7238 190.52 77.6688 190.52 77.5038C190.52 77.4488 190.465 77.3388 190.41 77.2838C190.355 77.2288 190.19 77.1738 190.08 77.1738C189.805 77.1738 189.53 77.3938 189.365 77.6688C189.2 77.9438 189.09 78.2738 189.09 78.6588C189.035 79.3738 189.365 80.0888 189.86 80.2538C190.135 80.3638 190.3 80.2538 190.465 80.1988C190.575 80.1438 190.63 80.0888 190.63 80.0338Z" fill="#EB996E"/>
<path d="M211.31 71.7802C208.945 72.1652 206.415 71.2852 204.765 69.5252C203.61 68.3152 202.785 66.6652 201.245 66.0052C200.2 65.5652 198.99 65.6752 197.945 66.1152C196.9 66.5552 196.02 67.3252 195.25 68.0952C195.965 70.8452 194.975 73.7602 193.985 76.4552C193.875 76.7302 193.765 77.0602 193.49 77.2252C193.05 77.5002 192.445 77.1702 192.115 76.7852C191.565 76.1252 191.455 75.1902 191.4 74.3652C191.235 72.3852 191.4 70.4052 192.06 68.5902C192.665 66.7202 193.82 65.0152 195.36 63.8052C197.285 62.3202 199.87 61.7152 202.29 61.9902C204.71 62.2652 207.02 63.4752 208.78 65.1252C209.605 65.8952 210.375 66.8302 210.705 67.8752" fill="#263238"/>
<path d="M203.28 83.0499C203.17 83.3799 203.005 83.7099 202.84 83.9849C202.62 84.2599 202.345 84.4799 201.96 84.4799C201.575 84.4799 201.245 84.2599 201.025 83.9849C200.805 83.7099 200.75 83.3249 200.75 82.9399C200.75 82.6099 200.915 82.2249 201.245 82.1699C201.355 82.1699 201.52 82.2249 201.63 82.2799C202.18 82.4999 202.785 82.7199 203.335 82.9949" fill="#EB996E"/>
<path d="M202.62 84.423C202.62 84.368 202.235 84.533 201.685 84.313C201.41 84.203 201.135 83.983 200.97 83.708C200.805 83.378 200.805 82.938 200.97 82.608C201.025 82.498 201.08 82.443 201.135 82.333C201.19 82.278 201.19 82.278 201.245 82.278C201.3 82.278 201.41 82.333 201.52 82.388C201.63 82.443 201.685 82.443 201.795 82.498C202.18 82.663 202.51 82.773 202.785 82.883C203.335 83.103 203.72 83.213 203.72 83.158C203.72 83.103 203.39 82.938 202.895 82.663C202.62 82.553 202.29 82.388 201.96 82.223C201.85 82.168 201.795 82.168 201.685 82.113C201.575 82.058 201.52 82.003 201.355 82.003C201.3 82.003 201.19 81.948 201.08 82.003C200.97 82.058 200.915 82.113 200.915 82.168C200.86 82.278 200.75 82.388 200.695 82.498C200.475 82.993 200.53 83.488 200.75 83.873C200.97 84.258 201.3 84.478 201.63 84.588C201.96 84.698 202.18 84.643 202.4 84.643C202.51 84.533 202.62 84.478 202.62 84.423Z" fill="#263238"/>
<path d="M234.905 232.549L238.92 244.154C238.92 244.154 252.065 243.989 253.055 246.079L230.725 254.659L223.74 236.784L234.905 232.549Z" fill="#1C85E8"/>
<path d="M231.66 245.853C231.275 246.128 231.165 246.733 231.44 247.118C231.715 247.503 232.32 247.613 232.705 247.338C233.09 247.063 233.255 246.348 232.925 245.963C232.595 245.578 231.88 245.523 231.605 245.853" fill="#E0E0E0"/>
<g opacity="0.6">
<g opacity="0.6">
<g opacity="0.6">
<path opacity="0.6" d="M230.725 254.655L230.065 252.84L251.625 245.305C251.625 245.305 252.78 245.36 252.945 246.075L230.725 254.655Z" fill="white"/>
</g>
</g>
</g>
<path d="M239.195 243.93C239.25 244.04 238.7 244.315 238.315 244.865C237.875 245.415 237.82 245.965 237.71 245.965C237.6 245.965 237.49 245.25 237.985 244.59C238.48 243.93 239.195 243.82 239.195 243.93Z" fill="#263238"/>
<path d="M241.89 243.986C241.945 244.096 241.56 244.426 241.34 245.031C241.12 245.636 241.23 246.186 241.12 246.186C241.01 246.241 240.68 245.636 240.955 244.866C241.23 244.151 241.89 243.876 241.89 243.986Z" fill="#263238"/>
<path d="M244.31 246.24C244.2 246.295 243.87 245.8 243.925 245.14C243.98 244.425 244.365 243.985 244.475 244.095C244.585 244.15 244.365 244.59 244.31 245.195C244.255 245.745 244.42 246.185 244.31 246.24Z" fill="#263238"/>
<path d="M237.985 241.339C237.985 241.449 237.435 241.504 236.83 241.779C236.225 242.054 235.84 242.439 235.73 242.384C235.62 242.329 235.95 241.724 236.665 241.449C237.38 241.119 238.04 241.229 237.985 241.339Z" fill="#263238"/>
<path d="M153.175 231.002L152.9 231.332L148.06 237.602L142.065 241.672L150.04 257.072H158.84C158.84 257.072 158.18 254.982 153.945 253.882L153.67 245.412L161.26 237.052" fill="#1C85E8"/>
<g opacity="0.6">
<g opacity="0.6">
<path opacity="0.6" d="M142.175 241.728L150.15 257.128H158.95L157.96 255.808L150.81 255.368L143.44 240.848L142.175 241.728Z" fill="white"/>
</g>
</g>
<path d="M154 250.034C153.945 250.144 153.45 249.814 152.735 249.869C152.075 249.869 151.58 250.144 151.47 250.089C151.36 250.034 151.91 249.484 152.735 249.484C153.615 249.429 154.11 249.979 154 250.034Z" fill="#263238"/>
<path d="M153.89 247.944C153.78 247.999 153.395 247.504 152.735 247.339C152.02 247.174 151.47 247.504 151.415 247.449C151.36 247.394 151.47 247.284 151.745 247.119C151.965 247.009 152.405 246.899 152.845 246.954C153.285 247.064 153.615 247.284 153.78 247.504C153.89 247.724 153.945 247.889 153.89 247.944Z" fill="#263238"/>
<path d="M153.945 245.247C153.835 245.302 153.56 244.807 152.955 244.587C152.35 244.367 151.8 244.587 151.745 244.477C151.745 244.422 151.855 244.312 152.075 244.202C152.295 244.092 152.68 244.092 153.065 244.202C153.45 244.312 153.725 244.587 153.835 244.807C153.945 245.082 154 245.247 153.945 245.247Z" fill="#263238"/>
<path d="M156.31 243.156C156.2 243.211 155.98 242.716 155.43 242.331C154.88 241.946 154.33 241.946 154.33 241.836C154.275 241.726 154.99 241.561 155.65 242.056C156.255 242.441 156.42 243.156 156.31 243.156Z" fill="#263238"/>
<g opacity="0.6">
<g opacity="0.6">
<path opacity="0.6" d="M149.16 241.449C149.16 241.999 148.72 242.494 148.115 242.494C147.565 242.494 147.07 242.054 147.07 241.449C147.07 240.899 147.51 240.404 148.115 240.404C148.72 240.404 149.16 240.844 149.16 241.449Z" fill="white"/>
</g>
</g>
<path d="M182.49 167.643L209.715 207.518L224.4 242.388L236.885 235.733L224.29 200.808L205.755 164.123L182.49 167.643Z" fill="#263238"/>
<path d="M171.27 164.123L166.705 196.243L148.115 236.723L159.225 243.158L182.82 203.008L195.91 164.123H171.27Z" fill="#263238"/>
<path d="M159.225 243.156C159.225 243.156 159.28 243.101 159.335 242.936C159.39 242.826 159.5 242.606 159.665 242.386C159.94 241.891 160.38 241.176 160.875 240.241C161.92 238.371 163.46 235.731 165.385 232.486C169.18 225.941 174.46 216.866 180.29 206.856C181.225 205.206 182.16 203.611 183.095 202.071C186.34 192.336 189.2 183.701 191.235 177.486C192.28 174.406 193.105 171.931 193.71 170.171C193.985 169.346 194.205 168.686 194.37 168.191C194.425 167.971 194.48 167.806 194.535 167.696C194.59 167.586 194.59 167.531 194.59 167.531C194.59 167.531 194.59 167.586 194.535 167.696C194.48 167.806 194.425 167.971 194.37 168.191C194.205 168.631 193.985 169.346 193.765 170.171C193.215 171.876 192.39 174.406 191.4 177.486C189.365 183.701 186.505 192.336 183.315 202.126C182.435 203.666 181.5 205.261 180.565 206.911C174.735 216.866 169.455 225.941 165.605 232.486C163.68 235.731 162.14 238.371 161.04 240.241C160.49 241.121 160.105 241.836 159.775 242.331C159.61 242.551 159.5 242.716 159.445 242.881C159.225 243.101 159.225 243.156 159.225 243.156Z" fill="#455A64"/>
<path d="M207.515 146.737L206.58 132.932L203.115 100.427L204.38 93.6621L190.63 88.1621L188.98 91.4621C180.73 92.7271 177.265 109.007 177.265 109.007L176.99 142.117L167.75 164.667L170.115 166.757C173.855 169.012 208.89 167.582 208.89 167.582L207.515 146.737Z" fill="#1C85E8"/>
<g opacity="0.3">
<g opacity="0.3">
<path opacity="0.3" d="M171.27 156.033C173.745 159.168 176.385 161.643 179.575 164.063C181.28 165.328 183.315 166.538 185.405 166.208C187.44 165.878 188.98 164.228 190.3 162.633C192.83 159.663 195.305 156.693 197.835 153.778C198.275 153.283 198.715 152.733 198.825 152.073C198.935 151.248 198.44 150.368 197.78 149.873C197.065 149.378 196.24 149.213 195.36 149.103C190.08 148.498 184.91 151.083 179.63 151.138C177.815 151.138 174.845 150.808 173.14 151.413L171.27 156.033Z" fill="black"/>
</g>
</g>
<path d="M199.595 134.419C202.4 137.169 202.84 141.569 200.585 144.814L195.91 151.689L189.09 160.599C187.11 163.184 183.37 163.404 181.06 161.149L149.93 137.169C147.95 135.629 147.51 132.824 148.995 130.789L161.645 112.969C163.13 110.879 166.045 110.384 168.135 111.869L199.595 134.419Z" fill="#455A64"/>
<path d="M183.48 162.467C183.48 162.467 183.48 162.412 183.59 162.302C183.645 162.192 183.755 162.027 183.865 161.807C184.14 161.422 184.47 160.817 184.965 160.047C185.955 158.507 187.385 156.362 189.2 153.667C191.015 150.972 193.16 147.837 195.525 144.262C196.075 143.382 196.735 142.447 197.175 141.457C197.395 140.962 197.56 140.412 197.505 139.862C197.505 139.312 197.23 138.817 196.9 138.377C196.185 137.497 195.195 136.892 194.205 136.177C193.215 135.462 192.225 134.802 191.235 134.087C183.205 128.367 175.945 123.197 170.665 119.402C168.08 117.532 165.935 115.992 164.45 114.947C163.735 114.397 163.185 114.012 162.745 113.737C162.58 113.627 162.415 113.517 162.305 113.407C162.195 113.352 162.14 113.297 162.14 113.297C162.14 113.297 162.195 113.352 162.305 113.407C162.415 113.462 162.58 113.572 162.745 113.682C163.13 113.957 163.735 114.342 164.45 114.892C165.935 115.937 168.08 117.422 170.72 119.292C176 123.032 183.26 128.202 191.345 133.867C192.335 134.582 193.325 135.297 194.315 135.957C195.25 136.672 196.295 137.277 197.065 138.212C197.45 138.707 197.67 139.257 197.725 139.862C197.78 140.467 197.56 141.017 197.34 141.567C196.845 142.612 196.24 143.492 195.635 144.427C193.27 148.002 191.07 151.137 189.255 153.832C185.68 159.167 183.48 162.467 183.48 162.467Z" fill="#263238"/>
<path d="M195.305 92.6203C195.305 92.6203 186.45 87.9453 173.14 109.12L175.505 111.87C175.505 111.87 186.67 92.2903 194.04 94.6553C201.41 97.0203 190.575 127.93 190.575 127.93C190.575 127.93 206.745 97.1303 195.305 92.6203Z" fill="#263238"/>
<path d="M165.77 116.433C162.03 120.283 161.315 126.223 164.23 130.678C164.34 130.843 164.45 131.008 164.56 131.118L176.55 149.763L186.615 143.548L176.88 125.948C176.88 125.948 181.39 121.273 186.34 115.993C192.995 108.898 200.035 100.208 194.975 95.2026C194.975 95.2026 191.51 92.4526 186.23 96.5776C182.38 99.5476 171.49 110.548 165.77 116.433Z" fill="#1C85E8"/>
<path d="M229.075 103.186L234.3 101.866C234.3 101.866 235.73 103.131 234.96 104.451C234.245 105.771 232.98 109.071 232.98 109.071L228.91 110.391L227.755 113.691L220.77 110.721L222.64 104.561L226.545 99.7213L229.515 99.2812L231.495 100.986C231.495 100.986 229.845 102.196 228.745 100.876L227.37 101.371L227.48 102.196C227.7 102.911 228.36 103.351 229.075 103.186Z" fill="#FFBE9D"/>
<path d="M234.3 102.087L237.71 100.437C237.71 100.437 238.535 100.217 238.975 100.712L239.14 101.042L235.015 103.737L234.3 102.087Z" fill="#FFBE9D"/>
<path d="M227.095 107.419C227.04 107.419 227.205 107.089 227.425 106.539C227.645 106.044 227.975 105.274 227.92 104.449C227.92 104.009 227.81 103.624 227.645 103.294C227.535 103.129 227.48 102.964 227.425 102.799C227.37 102.634 227.37 102.414 227.37 102.304C227.37 101.699 227.425 101.369 227.48 101.369C227.535 101.369 227.535 101.754 227.59 102.304C227.59 102.579 227.7 102.854 227.92 103.184C228.14 103.514 228.25 103.954 228.25 104.449C228.25 105.384 227.92 106.154 227.645 106.649C227.315 107.144 227.15 107.474 227.095 107.419Z" fill="#EB996E"/>
<path d="M242.605 94.9395C242.66 95.0495 243.375 96.0944 243.375 96.0944L227.755 107.589L226.765 106.324L242.605 94.9395Z" fill="#263238"/>
<path d="M232.98 108.85C233.31 108.52 233.09 107.915 232.705 107.64C232.32 107.365 231.825 107.365 231.33 107.31C230.56 107.31 229.79 107.255 229.02 107.42C228.8 107.475 228.525 107.53 228.305 107.695C228.14 107.86 227.975 108.135 228.085 108.355C228.195 108.63 228.525 108.74 228.855 108.795C229.68 108.96 230.505 109.015 231.33 109.015" fill="#FFBE9D"/>
<path d="M231.385 109.07C231.385 109.125 230.835 109.18 229.9 109.125C229.68 109.125 229.405 109.07 229.13 109.015C228.855 108.96 228.58 108.96 228.25 108.74C228.085 108.63 227.975 108.465 227.92 108.3C227.92 108.08 227.975 107.915 228.085 107.75C228.305 107.42 228.745 107.31 229.075 107.255C229.79 107.145 230.45 107.145 231.055 107.145C231.66 107.145 232.21 107.2 232.65 107.475C233.09 107.75 233.2 108.19 233.145 108.465C233.09 108.74 232.925 108.85 232.925 108.795C232.925 108.795 233.035 108.685 233.035 108.41C233.035 108.19 232.925 107.805 232.54 107.585C232.155 107.365 231.66 107.365 231.055 107.365C230.45 107.365 229.79 107.365 229.13 107.475C228.8 107.53 228.47 107.64 228.305 107.86C228.14 108.08 228.14 108.355 228.36 108.465C228.58 108.63 228.855 108.63 229.13 108.685C229.405 108.74 229.625 108.795 229.845 108.795C230.835 109.07 231.385 109.015 231.385 109.07Z" fill="#EB996E"/>
<path d="M234.3 105.659C233.035 105.329 232.155 105.219 230.89 104.944C230.505 104.834 230.065 104.724 229.68 104.889C229.295 105.054 229.075 105.604 229.35 105.879C229.46 105.989 229.57 106.044 229.735 106.099C231 106.594 232.21 107.089 233.475 107.584" fill="#FFBE9D"/>
<path d="M233.42 107.584C233.42 107.639 232.87 107.419 231.99 107.144C231.495 106.979 231 106.759 230.45 106.594C230.175 106.484 229.845 106.374 229.515 106.264C229.35 106.209 229.13 106.044 229.075 105.824C229.02 105.604 229.075 105.384 229.185 105.219C229.295 105.054 229.46 104.889 229.68 104.834C229.845 104.779 230.065 104.724 230.23 104.779C230.615 104.779 230.89 104.889 231.22 104.999C231.825 105.109 232.32 105.274 232.815 105.384C233.75 105.604 234.3 105.769 234.3 105.824C234.3 105.879 233.695 105.769 232.815 105.604C232.375 105.549 231.825 105.439 231.165 105.274C230.835 105.219 230.56 105.109 230.23 105.109C229.9 105.109 229.625 105.164 229.46 105.439C229.405 105.549 229.35 105.714 229.405 105.824C229.46 105.934 229.515 106.044 229.68 106.099C230.01 106.209 230.285 106.319 230.56 106.484C231.11 106.704 231.605 106.924 232.1 107.144C232.925 107.309 233.42 107.529 233.42 107.584Z" fill="#EB996E"/>
<path d="M235.07 103.736C233.805 103.516 232.98 103.351 231.715 103.131C231.33 103.076 230.835 102.966 230.505 103.186C230.12 103.351 229.9 103.956 230.23 104.231C230.34 104.341 230.505 104.396 230.615 104.451C231.88 104.836 233.145 105.276 234.41 105.661" fill="#FFBE9D"/>
<path d="M234.41 105.603C234.41 105.658 233.86 105.493 232.925 105.218C232.43 105.053 231.935 104.943 231.33 104.723C231.055 104.613 230.725 104.558 230.395 104.448C230.23 104.393 230.01 104.283 229.955 104.063C229.9 103.843 229.9 103.623 230.01 103.458C230.12 103.293 230.285 103.128 230.45 103.018C230.615 102.908 230.835 102.908 231 102.908C231.385 102.908 231.715 102.963 231.99 103.018C232.595 103.128 233.09 103.238 233.585 103.348C234.52 103.513 235.07 103.678 235.07 103.733C235.07 103.788 234.465 103.678 233.53 103.568C233.035 103.513 232.485 103.403 231.88 103.293C231.55 103.238 231.275 103.183 230.945 103.183C230.615 103.183 230.34 103.293 230.175 103.568C229.79 104.228 230.835 104.283 231.33 104.503C231.88 104.668 232.43 104.888 232.87 105.053C233.86 105.328 234.41 105.548 234.41 105.603Z" fill="#EB996E"/>
<path d="M228.25 113.245L218.075 134.97C217.085 137.06 215.16 138.435 212.905 138.765C209.99 139.15 207.13 137.555 205.975 134.805L198.385 117.425L202.675 98.6699L212.85 120.56L221.21 108.735L228.25 113.245Z" fill="#1C85E8"/>
<path d="M209.88 127.879C209.825 127.824 210.375 126.119 211.2 124.029C212.025 121.939 212.685 120.289 212.795 120.289C212.85 120.344 212.3 122.049 211.475 124.139C210.65 126.229 209.935 127.879 209.88 127.879Z" fill="#263238"/>
<path d="M207.625 146.52C207.625 146.52 207.57 146.355 207.57 146.08C207.515 145.75 207.515 145.31 207.46 144.76C207.35 143.55 207.24 141.9 207.02 139.81C206.635 135.63 206.14 129.855 205.59 123.475C204.985 117.095 204.435 111.32 203.995 107.195C203.775 105.16 203.555 103.455 203.445 102.245C203.39 101.695 203.335 101.255 203.28 100.925C203.225 100.595 203.225 100.43 203.225 100.43C203.225 100.43 203.28 100.595 203.335 100.87C203.39 101.2 203.445 101.64 203.555 102.19C203.72 103.345 203.94 105.05 204.215 107.14C204.71 111.32 205.315 117.04 205.92 123.42C206.525 129.8 206.965 135.575 207.24 139.755C207.405 141.845 207.515 143.495 207.57 144.705C207.625 145.255 207.625 145.695 207.625 146.08C207.625 146.355 207.625 146.52 207.625 146.52Z" fill="#263238"/>
<path d="M184.47 144.871L185.79 147.621C185.79 147.621 188.43 147.951 189.53 148.446C190.63 148.941 194.535 152.351 194.535 152.351C194.535 152.351 194.04 153.341 193.05 153.066C192.61 152.956 190.575 151.416 190.575 151.416C189.64 151.581 189.145 152.626 189.695 153.451C190.465 154.606 191.345 155.981 191.455 156.201C191.565 156.421 193.27 157.136 194.59 157.686C195.36 158.016 195.305 159.226 194.48 159.336C194.37 159.336 194.315 159.336 194.26 159.336C194.26 159.336 194.865 160.656 192.61 160.271C192.61 160.271 191.125 161.316 189.915 160.656C189.915 160.656 187.77 161.151 186.835 160.821C185.9 160.491 181.94 154.936 181.94 154.936L178.53 148.721L184.47 144.871Z" fill="#FFBE9D"/>
<path d="M188.045 154.828C187.99 154.828 188.155 155.268 188.485 155.928C188.815 156.588 189.31 157.523 190.245 158.183C191.18 158.843 192.225 159.008 192.94 159.063C193.655 159.118 194.095 159.118 194.095 159.063C194.095 159.008 193.655 158.953 192.94 158.843C192.225 158.733 191.235 158.513 190.355 157.908C189.475 157.248 188.98 156.368 188.595 155.763C188.32 155.213 188.1 154.828 188.045 154.828Z" fill="#EB996E"/>
<path d="M186.945 156.146C186.89 156.146 187 156.586 187.275 157.191C187.44 157.466 187.66 157.851 187.88 158.181C188.155 158.511 188.43 158.951 188.925 159.226C189.365 159.501 189.86 159.611 190.3 159.721C190.685 159.831 191.07 159.941 191.4 159.996C192.06 160.161 192.445 160.216 192.445 160.216C192.445 160.161 192.06 159.996 191.455 159.831C191.125 159.721 190.795 159.611 190.355 159.446C189.97 159.336 189.475 159.171 189.09 158.951C188.705 158.731 188.375 158.346 188.1 158.016C187.825 157.686 187.605 157.356 187.44 157.081C187.11 156.476 187 156.091 186.945 156.146Z" fill="#EB996E"/>
<path d="M185.735 157.688C185.625 157.742 186.34 158.732 187.275 159.887C187.44 160.107 187.605 160.162 187.77 160.217C187.935 160.272 188.1 160.327 188.265 160.382C188.595 160.492 188.87 160.547 189.09 160.547C189.585 160.602 189.86 160.547 189.86 160.492C189.86 160.437 189.585 160.437 189.09 160.327C188.87 160.272 188.595 160.217 188.32 160.107C188.155 160.052 188.045 159.997 187.88 159.942C187.715 159.887 187.605 159.777 187.495 159.667C187.055 159.062 186.615 158.567 186.285 158.237C185.955 157.907 185.79 157.688 185.735 157.688Z" fill="#EB996E"/>
<path d="M201.85 92.8438C201.905 92.8438 201.685 94.0537 201.465 95.5387C201.19 97.0237 201.025 98.2338 200.915 98.2338C200.86 98.2338 200.915 96.9688 201.135 95.4838C201.41 93.9988 201.74 92.8438 201.85 92.8438Z" fill="#263238"/>
<path d="M197.615 94.5474C197.56 94.5474 197.67 93.8324 197.945 93.0074C198.22 92.1824 198.495 91.5224 198.55 91.5774C198.605 91.5774 198.495 92.2924 198.22 93.1174C197.945 93.8874 197.67 94.5474 197.615 94.5474Z" fill="#263238"/>
<path d="M194.48 93.0052C194.425 92.9502 194.645 92.3452 195.03 91.6302C195.415 90.9152 195.745 90.3652 195.8 90.3652C195.855 90.4202 195.635 91.0252 195.25 91.7402C194.92 92.4552 194.59 93.0052 194.48 93.0052Z" fill="#263238"/>
<path d="M190.41 92.5073C190.355 92.4523 190.85 91.7373 191.51 90.8573C192.17 89.9773 192.775 89.3173 192.83 89.3723C192.885 89.4273 192.39 90.1423 191.73 91.0223C191.07 91.9023 190.465 92.5623 190.41 92.5073Z" fill="#263238"/>
<path d="M176.88 126.117C176.825 126.172 176.55 125.842 175.945 125.457C175.395 125.072 174.515 124.577 173.525 124.302C172.535 124.027 171.545 123.917 170.885 123.972C170.17 123.972 169.785 124.082 169.785 124.027C169.785 123.972 170.17 123.862 170.885 123.752C171.6 123.697 172.59 123.697 173.635 124.027C174.68 124.357 175.56 124.852 176.11 125.292C176.66 125.732 176.935 126.117 176.88 126.117Z" fill="#263238"/>
<path d="M173.965 119.076C173.965 119.076 174.35 119.296 174.845 119.846C175.34 120.396 175.945 121.221 176.385 122.211C176.825 123.256 177.045 124.246 177.155 124.961C177.21 125.676 177.155 126.116 177.155 126.116C177.045 126.116 177.045 124.301 176.165 122.321C175.23 120.396 173.855 119.186 173.965 119.076Z" fill="#263238"/>
<path d="M186.67 143.495C186.67 143.495 186.615 143.385 186.45 143.165C186.285 142.945 186.12 142.615 185.9 142.175C185.405 141.295 184.69 140.03 183.81 138.49C182.05 135.355 179.575 131.01 176.825 126.06L176.77 125.95L176.825 125.895C177.485 125.18 178.255 124.41 178.97 123.64C183.37 119.02 187.33 114.84 190.245 111.815C191.675 110.33 192.83 109.12 193.71 108.24C194.095 107.855 194.425 107.525 194.645 107.305C194.865 107.085 194.975 106.975 194.975 106.975C194.975 106.975 194.865 107.085 194.645 107.36C194.425 107.58 194.095 107.965 193.71 108.35C192.885 109.23 191.73 110.44 190.355 111.98C187.44 115.06 183.48 119.24 179.135 123.86C178.42 124.63 177.705 125.4 176.99 126.115V125.95C179.74 130.9 182.105 135.245 183.865 138.435C184.69 139.975 185.405 141.24 185.9 142.175C186.12 142.615 186.285 142.945 186.45 143.165C186.615 143.385 186.67 143.495 186.67 143.495Z" fill="#263238"/>
<g opacity="0.3">
<g opacity="0.3">
<path opacity="0.3" d="M181.39 121.332L185.295 124.137C185.735 123.972 186.45 123.312 186.725 122.927C189.695 118.802 191.84 114.127 193.105 109.232L181.39 121.332Z" fill="black"/>
</g>
</g>
<path d="M187.055 115.113C187 115.113 187.11 114.233 186.395 113.023C186.065 112.418 185.57 111.813 184.855 111.263C184.14 110.713 183.26 110.273 182.325 109.888C181.335 109.503 180.4 109.228 179.52 108.898C178.64 108.568 177.925 108.073 177.485 107.578C176.99 107.028 176.825 106.478 176.715 106.093C176.66 105.708 176.715 105.488 176.715 105.488C176.715 105.488 176.715 105.708 176.825 106.093C176.935 106.478 177.155 106.973 177.595 107.468C178.035 107.963 178.75 108.403 179.575 108.678C180.4 109.008 181.39 109.283 182.38 109.668C183.37 110.053 184.25 110.548 185.02 111.098C185.735 111.703 186.285 112.363 186.615 112.968C186.945 113.573 187.055 114.178 187.11 114.563C187.11 114.893 187.055 115.113 187.055 115.113Z" fill="#F5F5F5"/>
<path d="M205.04 117.588C205.04 117.588 204.765 117.588 204.325 117.533C203.83 117.478 203.17 117.478 202.345 117.533C201.52 117.588 200.53 117.753 199.43 117.918C198.33 118.083 197.12 118.248 195.8 118.248C194.48 118.248 193.215 118.028 192.225 117.533C191.18 117.038 190.41 116.323 189.915 115.608C189.42 114.893 189.255 114.178 189.2 113.738C189.2 113.518 189.2 113.298 189.2 113.188C189.2 113.078 189.2 113.023 189.255 113.023C189.31 113.023 189.255 113.298 189.31 113.738C189.365 114.178 189.585 114.838 190.08 115.553C190.575 116.213 191.345 116.928 192.335 117.368C193.325 117.808 194.535 118.028 195.8 118.028C197.065 118.028 198.275 117.863 199.375 117.698C200.475 117.533 201.465 117.423 202.345 117.368C203.17 117.313 203.885 117.368 204.38 117.423C204.765 117.478 205.04 117.588 205.04 117.588Z" fill="#F5F5F5"/>
<path d="M208.725 112.473C208.78 112.528 208.23 113.518 207.075 114.398C205.92 115.278 204.765 115.498 204.765 115.443C204.71 115.333 205.81 115.003 206.91 114.178C208.01 113.298 208.67 112.418 208.725 112.473Z" fill="#F5F5F5"/>
<path d="M210.32 116.16C210.375 116.215 209.605 117.48 208.12 118.525C206.635 119.57 205.205 119.9 205.15 119.845C205.095 119.735 206.525 119.35 207.955 118.305C209.385 117.26 210.21 116.105 210.32 116.16Z" fill="#F5F5F5"/>
<path d="M205.755 123.754C205.755 123.809 204.655 122.984 202.565 122.764C201.52 122.654 200.31 122.709 198.88 122.764C197.505 122.874 195.965 122.929 194.37 122.709C191.125 122.379 188.375 121.224 186.56 120.179C185.625 119.684 184.965 119.134 184.47 118.804C184.03 118.419 183.755 118.199 183.755 118.199C183.755 118.199 184.03 118.364 184.525 118.694C185.02 119.024 185.735 119.519 186.615 120.014C188.43 121.004 191.18 122.104 194.37 122.434C195.965 122.599 197.45 122.544 198.88 122.489C200.255 122.434 201.52 122.379 202.565 122.544C203.61 122.654 204.435 122.984 204.985 123.259C205.26 123.369 205.425 123.534 205.59 123.589C205.7 123.699 205.755 123.754 205.755 123.754Z" fill="#F5F5F5"/>
<path d="M184.8 116.986C184.8 116.986 184.8 117.096 184.69 117.371L184.635 117.481L184.58 117.371C184.415 116.931 183.865 116.161 182.82 115.556C182.27 115.281 181.665 115.006 180.95 114.786C180.235 114.566 179.465 114.401 178.64 114.126C176.66 113.411 175.175 112.146 174.295 111.101C173.855 110.551 173.525 110.111 173.36 109.781C173.195 109.451 173.085 109.231 173.085 109.231C173.14 109.176 173.525 109.946 174.46 110.936C175.34 111.926 176.825 113.136 178.75 113.851C179.52 114.126 180.29 114.291 181.005 114.566C181.72 114.786 182.38 115.061 182.93 115.391C184.03 116.051 184.525 116.931 184.69 117.371H184.635C184.745 117.096 184.8 116.986 184.8 116.986Z" fill="#F5F5F5"/>
<path d="M262.955 257.124C262.955 257.179 206.305 257.289 136.4 257.289C66.495 257.289 9.84497 257.234 9.84497 257.124C9.84497 257.069 66.495 256.959 136.4 256.959C206.25 256.959 262.955 257.014 262.955 257.124Z" fill="#263238"/>
</svg>
