<svg width="500" height="500" viewBox="0 0 500 500" fill="none" xmlns="http://www.w3.org/2000/svg">
<g clip-path="url(#clip0_1443_7410)">
<path fill-rule="evenodd" clip-rule="evenodd" d="M316.493 93.1254C322.095 93.5084 323.999 85.8043 318.864 83.5342L243.545 50.2367C241.983 49.546 240.176 49.6979 238.751 50.6398L157.943 104.053C156.538 104.981 155.693 106.553 155.693 108.237V243.917C155.693 245.576 156.513 247.127 157.884 248.061L183.268 265.36C186.597 267.629 191.108 265.244 191.108 261.215V126.62C191.108 124.901 191.988 123.302 193.441 122.382L245.747 89.262C246.648 88.6914 247.708 88.4229 248.772 88.4957L316.493 93.1254ZM206.209 134.27C206.204 132.424 207.213 130.724 208.836 129.845L234.505 115.946C237.847 114.136 241.909 116.556 241.909 120.356V144.87C241.909 147.64 244.154 149.886 246.924 149.886H263.865C267.63 149.886 270.053 153.881 268.312 157.22L254.895 182.958C254.031 184.615 252.317 185.655 250.447 185.655H246.924C244.154 185.655 241.909 187.901 241.909 190.671V251.513C241.909 254.942 245.272 257.36 248.522 256.268L301.186 238.57C306.619 236.744 310.371 243.99 305.744 247.373L236.956 297.671C235.229 298.934 232.892 298.962 231.135 297.743L208.785 282.224C207.439 281.29 206.634 279.757 206.63 278.119L206.209 134.27Z" fill="white" fill-opacity="0.9"/>
<path d="M24.888 392.744C21.6174 392.744 18.569 392.219 15.7426 391.169C12.9565 390.079 10.5339 388.544 8.47465 386.566C6.41541 384.587 4.80032 382.266 3.62938 379.601C2.49882 376.936 1.93354 374.009 1.93354 370.819C1.93354 367.629 2.49882 364.702 3.62938 362.037C4.80032 359.372 6.41541 357.05 8.47465 355.072C10.5743 353.093 13.0171 351.579 15.8031 350.529C18.5892 349.439 21.6376 348.894 24.9486 348.894C28.6229 348.894 31.9338 349.54 34.8814 350.832C37.8693 352.084 40.3727 353.941 42.3915 356.404L36.0927 362.218C34.6391 360.563 33.024 359.331 31.2474 358.524C29.4708 357.676 27.5327 357.252 25.4331 357.252C23.4546 357.252 21.6376 357.575 19.9822 358.221C18.3267 358.867 16.8933 359.796 15.682 361.007C14.4707 362.218 13.5218 363.652 12.8354 365.307C12.1894 366.963 11.8663 368.8 11.8663 370.819C11.8663 372.838 12.1894 374.675 12.8354 376.33C13.5218 377.986 14.4707 379.419 15.682 380.63C16.8933 381.842 18.3267 382.77 19.9822 383.416C21.6376 384.063 23.4546 384.386 25.4331 384.386C27.5327 384.386 29.4708 383.982 31.2474 383.174C33.024 382.326 34.6391 381.054 36.0927 379.359L42.3915 385.173C40.3727 387.636 37.8693 389.513 34.8814 390.806C31.9338 392.098 28.6027 392.744 24.888 392.744ZM68.7225 392.744C65.3712 392.744 62.2622 392.199 59.3954 391.108C56.569 390.018 54.106 388.484 52.0064 386.505C49.9471 384.527 48.332 382.205 47.1611 379.54C46.0305 376.875 45.4653 373.968 45.4653 370.819C45.4653 367.669 46.0305 364.762 47.1611 362.097C48.332 359.432 49.9673 357.111 52.0669 355.132C54.1665 353.154 56.6296 351.619 59.456 350.529C62.2824 349.439 65.351 348.894 68.662 348.894C72.0133 348.894 75.082 349.439 77.868 350.529C80.6944 351.619 83.1372 353.154 85.1965 355.132C87.2961 357.111 88.9314 359.432 90.1023 362.097C91.2732 364.722 91.8587 367.629 91.8587 370.819C91.8587 373.968 91.2732 376.896 90.1023 379.601C88.9314 382.266 87.2961 384.587 85.1965 386.566C83.1372 388.504 80.6944 390.018 77.868 391.108C75.082 392.199 72.0335 392.744 68.7225 392.744ZM68.662 384.386C70.5597 384.386 72.2959 384.063 73.8706 383.416C75.4857 382.77 76.8989 381.842 78.1103 380.63C79.3216 379.419 80.2502 377.986 80.8963 376.33C81.5827 374.675 81.9259 372.838 81.9259 370.819C81.9259 368.8 81.5827 366.963 80.8963 365.307C80.2502 363.652 79.3216 362.218 78.1103 361.007C76.9393 359.796 75.5463 358.867 73.9312 358.221C72.3161 357.575 70.5597 357.252 68.662 357.252C66.7642 357.252 65.0078 357.575 63.3927 358.221C61.818 358.867 60.425 359.796 59.2137 361.007C58.0024 362.218 57.0535 363.652 56.3671 365.307C55.7211 366.963 55.3981 368.8 55.3981 370.819C55.3981 372.797 55.7211 374.634 56.3671 376.33C57.0535 377.986 57.9822 379.419 59.1531 380.63C60.3645 381.842 61.7777 382.77 63.3927 383.416C65.0078 384.063 66.7642 384.386 68.662 384.386ZM99.2326 392.017V349.621H107.348L132.362 380.146H128.425V349.621H138.116V392.017H130.061L104.986 361.492H108.923V392.017H99.2326ZM156.929 392.017V357.615H143.362V349.621H180.307V357.615H166.74V392.017H156.929ZM194.611 366.7H215.021V374.332H194.611V366.7ZM195.337 384.143H218.413V392.017H185.586V349.621H217.626V357.494H195.337V384.143ZM226.22 392.017V349.621H234.336L259.349 380.146H255.413V349.621H265.103V392.017H257.048L231.974 361.492H235.91V392.017H226.22ZM275.134 392.017V349.621H294.394C298.997 349.621 303.055 350.509 306.568 352.286C310.08 354.022 312.826 356.465 314.804 359.614C316.783 362.764 317.772 366.498 317.772 370.819C317.772 375.099 316.783 378.834 314.804 382.023C312.826 385.173 310.08 387.636 306.568 389.413C303.055 391.149 298.997 392.017 294.394 392.017H275.134ZM284.946 383.962H293.909C296.736 383.962 299.178 383.437 301.238 382.387C303.337 381.297 304.952 379.762 306.083 377.784C307.254 375.805 307.839 373.484 307.839 370.819C307.839 368.114 307.254 365.792 306.083 363.854C304.952 361.875 303.337 360.361 301.238 359.311C299.178 358.221 296.736 357.676 293.909 357.676H284.946V383.962ZM319.008 392.017L337.905 349.621H347.595L366.552 392.017H356.256L340.751 354.587H344.627L329.062 392.017H319.008ZM328.456 382.932L331.061 375.482H352.864L355.529 382.932H328.456ZM370.951 392.017V349.621H379.067L404.08 380.146H400.144V349.621H409.834V392.017H401.779L376.705 361.492H380.641V392.017H370.951ZM440.155 392.744C436.884 392.744 433.835 392.219 431.009 391.169C428.223 390.079 425.8 388.544 423.741 386.566C421.682 384.587 420.067 382.266 418.896 379.601C417.765 376.936 417.2 374.009 417.2 370.819C417.2 367.629 417.765 364.702 418.896 362.037C420.067 359.372 421.682 357.05 423.741 355.072C425.841 353.093 428.284 351.579 431.07 350.529C433.856 349.439 436.904 348.894 440.215 348.894C443.889 348.894 447.2 349.54 450.148 350.832C453.136 352.084 455.639 353.941 457.658 356.404L451.359 362.218C449.906 360.563 448.291 359.331 446.514 358.524C444.737 357.676 442.799 357.252 440.7 357.252C438.721 357.252 436.904 357.575 435.249 358.221C433.593 358.867 432.16 359.796 430.949 361.007C429.737 362.218 428.788 363.652 428.102 365.307C427.456 366.963 427.133 368.8 427.133 370.819C427.133 372.838 427.456 374.675 428.102 376.33C428.788 377.986 429.737 379.419 430.949 380.63C432.16 381.842 433.593 382.77 435.249 383.416C436.904 384.063 438.721 384.386 440.7 384.386C442.799 384.386 444.737 383.982 446.514 383.174C448.291 382.326 449.906 381.054 451.359 379.359L457.658 385.173C455.639 387.636 453.136 389.513 450.148 390.806C447.2 392.098 443.869 392.744 440.155 392.744ZM473.308 366.7H493.719V374.332H473.308V366.7ZM474.035 384.143H497.111V392.017H464.284V349.621H496.323V357.494H474.035V384.143Z" fill="white" fill-opacity="0.9"/>
<path d="M51.7099 438.771V420.208H44.442V417.573H61.9758V420.208H54.7079V438.771H51.7099ZM72.6631 422.57C73.9754 422.57 75.1261 422.822 76.1154 423.327C77.1248 423.832 77.9121 424.599 78.4774 425.628C79.0427 426.658 79.3253 427.96 79.3253 429.535V438.771H76.4182V429.868C76.4182 428.314 76.0346 427.143 75.2674 426.355C74.5205 425.568 73.4605 425.174 72.0877 425.174C71.0581 425.174 70.1597 425.376 69.3925 425.78C68.6254 426.184 68.0298 426.779 67.6058 427.567C67.2021 428.354 67.0002 429.333 67.0002 430.504V438.771H64.093V416.301H67.0002V427.052L66.4248 425.901C66.9497 424.851 67.7573 424.034 68.8474 423.448C69.9376 422.863 71.2095 422.57 72.6631 422.57ZM91.0952 438.953C89.3792 438.953 87.8651 438.6 86.5528 437.893C85.2607 437.186 84.2513 436.217 83.5245 434.986C82.8179 433.754 82.4646 432.341 82.4646 430.746C82.4646 429.151 82.8078 427.738 83.4942 426.507C84.2008 425.275 85.1598 424.316 86.3711 423.63C87.6026 422.923 88.9855 422.57 90.5199 422.57C92.0744 422.57 93.4472 422.913 94.6383 423.599C95.8295 424.286 96.7581 425.255 97.4244 426.507C98.1108 427.738 98.454 429.182 98.454 430.837C98.454 430.958 98.4439 431.1 98.4237 431.261C98.4237 431.423 98.4136 431.574 98.3934 431.715H84.7358V429.626H96.8793L95.6982 430.353C95.7184 429.323 95.5064 428.404 95.0623 427.597C94.6181 426.789 94.0024 426.163 93.215 425.719C92.4479 425.255 91.5495 425.023 90.5199 425.023C89.5104 425.023 88.612 425.255 87.8247 425.719C87.0373 426.163 86.4216 426.799 85.9774 427.627C85.5333 428.435 85.3112 429.363 85.3112 430.413V430.898C85.3112 431.968 85.5535 432.927 86.038 433.775C86.5427 434.602 87.2392 435.248 88.1275 435.713C89.0158 436.177 90.0353 436.409 91.1861 436.409C92.1349 436.409 92.993 436.248 93.7601 435.925C94.5475 435.602 95.2339 435.117 95.8194 434.471L97.4244 436.349C96.6976 437.197 95.7891 437.843 94.6989 438.287C93.6289 438.731 92.4277 438.953 91.0952 438.953ZM112.289 426.719H123.191V429.293H112.289V426.719ZM112.562 436.137H124.917V438.771H109.533V417.573H124.493V420.208H112.562V436.137ZM138.396 438.771V435.38L138.244 434.744V428.96C138.244 427.728 137.881 426.779 137.154 426.113C136.447 425.427 135.377 425.083 133.944 425.083C132.995 425.083 132.066 425.245 131.158 425.568C130.249 425.871 129.482 426.285 128.856 426.809L127.645 424.629C128.473 423.963 129.462 423.458 130.613 423.115C131.784 422.752 133.005 422.57 134.277 422.57C136.478 422.57 138.173 423.105 139.365 424.175C140.556 425.245 141.151 426.88 141.151 429.081V438.771H138.396ZM133.126 438.953C131.935 438.953 130.885 438.751 129.977 438.347C129.089 437.944 128.402 437.388 127.918 436.682C127.433 435.955 127.191 435.137 127.191 434.229C127.191 433.361 127.393 432.573 127.796 431.867C128.22 431.16 128.897 430.595 129.825 430.171C130.774 429.747 132.046 429.535 133.641 429.535H138.729V431.624H133.762C132.309 431.624 131.329 431.867 130.825 432.351C130.32 432.836 130.068 433.421 130.068 434.108C130.068 434.895 130.381 435.531 131.006 436.015C131.632 436.48 132.5 436.712 133.611 436.712C134.701 436.712 135.65 436.47 136.457 435.985C137.285 435.501 137.881 434.794 138.244 433.865L138.819 435.864C138.436 436.813 137.76 437.57 136.791 438.135C135.821 438.68 134.6 438.953 133.126 438.953ZM150.377 438.953C149.045 438.953 147.773 438.771 146.561 438.408C145.37 438.044 144.432 437.6 143.745 437.075L144.956 434.774C145.643 435.238 146.491 435.632 147.5 435.955C148.51 436.278 149.539 436.439 150.589 436.439C151.942 436.439 152.911 436.248 153.496 435.864C154.102 435.48 154.405 434.945 154.405 434.259C154.405 433.754 154.223 433.361 153.86 433.078C153.496 432.795 153.012 432.583 152.406 432.442C151.821 432.301 151.164 432.18 150.438 432.079C149.711 431.958 148.984 431.816 148.257 431.655C147.531 431.473 146.864 431.231 146.259 430.928C145.653 430.605 145.168 430.171 144.805 429.626C144.442 429.061 144.26 428.314 144.26 427.385C144.26 426.416 144.533 425.568 145.078 424.841C145.623 424.114 146.39 423.559 147.379 423.176C148.389 422.772 149.58 422.57 150.953 422.57C152.002 422.57 153.062 422.701 154.132 422.964C155.222 423.206 156.111 423.559 156.797 424.023L155.556 426.325C154.829 425.84 154.072 425.507 153.284 425.326C152.497 425.144 151.71 425.053 150.922 425.053C149.65 425.053 148.701 425.265 148.076 425.689C147.45 426.093 147.137 426.618 147.137 427.264C147.137 427.809 147.319 428.233 147.682 428.536C148.066 428.818 148.55 429.04 149.136 429.202C149.741 429.363 150.407 429.505 151.134 429.626C151.861 429.727 152.588 429.868 153.315 430.05C154.041 430.211 154.698 430.443 155.283 430.746C155.889 431.049 156.373 431.473 156.737 432.018C157.12 432.563 157.312 433.29 157.312 434.199C157.312 435.168 157.029 436.005 156.464 436.712C155.899 437.419 155.101 437.974 154.072 438.378C153.042 438.761 151.811 438.953 150.377 438.953ZM160.188 438.771V422.721H163.095V438.771H160.188ZM161.642 419.632C161.076 419.632 160.602 419.451 160.218 419.087C159.855 418.724 159.673 418.28 159.673 417.755C159.673 417.21 159.855 416.756 160.218 416.392C160.602 416.029 161.076 415.847 161.642 415.847C162.207 415.847 162.671 416.029 163.035 416.392C163.418 416.735 163.61 417.169 163.61 417.694C163.61 418.239 163.428 418.704 163.065 419.087C162.702 419.451 162.227 419.632 161.642 419.632ZM175.036 438.953C173.32 438.953 171.806 438.6 170.493 437.893C169.201 437.186 168.192 436.217 167.465 434.986C166.758 433.754 166.405 432.341 166.405 430.746C166.405 429.151 166.748 427.738 167.435 426.507C168.141 425.275 169.1 424.316 170.312 423.63C171.543 422.923 172.926 422.57 174.46 422.57C176.015 422.57 177.388 422.913 178.579 423.599C179.77 424.286 180.699 425.255 181.365 426.507C182.051 427.738 182.394 429.182 182.394 430.837C182.394 430.958 182.384 431.1 182.364 431.261C182.364 431.423 182.354 431.574 182.334 431.715H168.676V429.626H180.82L179.639 430.353C179.659 429.323 179.447 428.404 179.003 427.597C178.559 426.789 177.943 426.163 177.156 425.719C176.388 425.255 175.49 425.023 174.46 425.023C173.451 425.023 172.553 425.255 171.765 425.719C170.978 426.163 170.362 426.799 169.918 427.627C169.474 428.435 169.252 429.363 169.252 430.413V430.898C169.252 431.968 169.494 432.927 169.978 433.775C170.483 434.602 171.18 435.248 172.068 435.713C172.956 436.177 173.976 436.409 175.127 436.409C176.075 436.409 176.933 436.248 177.701 435.925C178.488 435.602 179.174 435.117 179.76 434.471L181.365 436.349C180.638 437.197 179.73 437.843 178.639 438.287C177.569 438.731 176.368 438.953 175.036 438.953ZM190.277 438.953C188.945 438.953 187.673 438.771 186.462 438.408C185.27 438.044 184.332 437.6 183.645 437.075L184.857 434.774C185.543 435.238 186.391 435.632 187.4 435.955C188.41 436.278 189.439 436.439 190.489 436.439C191.842 436.439 192.811 436.248 193.396 435.864C194.002 435.48 194.305 434.945 194.305 434.259C194.305 433.754 194.123 433.361 193.76 433.078C193.396 432.795 192.912 432.583 192.306 432.442C191.721 432.301 191.065 432.18 190.338 432.079C189.611 431.958 188.884 431.816 188.157 431.655C187.431 431.473 186.764 431.231 186.159 430.928C185.553 430.605 185.069 430.171 184.705 429.626C184.342 429.061 184.16 428.314 184.16 427.385C184.16 426.416 184.433 425.568 184.978 424.841C185.523 424.114 186.29 423.559 187.279 423.176C188.289 422.772 189.48 422.57 190.853 422.57C191.902 422.57 192.962 422.701 194.032 422.964C195.123 423.206 196.011 423.559 196.697 424.023L195.456 426.325C194.729 425.84 193.972 425.507 193.184 425.326C192.397 425.144 191.61 425.053 190.822 425.053C189.55 425.053 188.602 425.265 187.976 425.689C187.35 426.093 187.037 426.618 187.037 427.264C187.037 427.809 187.219 428.233 187.582 428.536C187.966 428.818 188.45 429.04 189.036 429.202C189.641 429.363 190.308 429.505 191.034 429.626C191.761 429.727 192.488 429.868 193.215 430.05C193.942 430.211 194.598 430.443 195.183 430.746C195.789 431.049 196.273 431.473 196.637 432.018C197.02 432.563 197.212 433.29 197.212 434.199C197.212 435.168 196.929 436.005 196.364 436.712C195.799 437.419 195.001 437.974 193.972 438.378C192.942 438.761 191.711 438.953 190.277 438.953ZM205.6 438.953C203.985 438.953 202.733 438.519 201.845 437.651C200.956 436.783 200.512 435.541 200.512 433.926V419.208H203.419V433.805C203.419 434.673 203.631 435.339 204.055 435.804C204.499 436.268 205.125 436.5 205.933 436.5C206.841 436.5 207.598 436.248 208.204 435.743L209.113 437.832C208.668 438.216 208.133 438.499 207.508 438.68C206.902 438.862 206.266 438.953 205.6 438.953ZM197.787 425.114V422.721H208.022V425.114H197.787ZM224.545 438.771L217.459 417.573H220.578L227.089 437.136H225.514L232.267 417.573H235.053L241.655 437.136H240.141L246.743 417.573H249.62L242.533 438.771H239.354L233.176 420.632H233.994L227.786 438.771H224.545ZM260.894 438.771V435.38L260.742 434.744V428.96C260.742 427.728 260.379 426.779 259.652 426.113C258.945 425.427 257.875 425.083 256.442 425.083C255.493 425.083 254.564 425.245 253.656 425.568C252.747 425.871 251.98 426.285 251.354 426.809L250.143 424.629C250.971 423.963 251.96 423.458 253.111 423.115C254.282 422.752 255.503 422.57 256.775 422.57C258.976 422.57 260.671 423.105 261.863 424.175C263.054 425.245 263.649 426.88 263.649 429.081V438.771H260.894ZM255.624 438.953C254.433 438.953 253.383 438.751 252.475 438.347C251.587 437.944 250.9 437.388 250.416 436.682C249.931 435.955 249.689 435.137 249.689 434.229C249.689 433.361 249.891 432.573 250.294 431.867C250.718 431.16 251.395 430.595 252.323 430.171C253.272 429.747 254.544 429.535 256.139 429.535H261.227V431.624H256.26C254.807 431.624 253.827 431.867 253.323 432.351C252.818 432.836 252.566 433.421 252.566 434.108C252.566 434.895 252.879 435.531 253.504 436.015C254.13 436.48 254.998 436.712 256.109 436.712C257.199 436.712 258.148 436.47 258.955 435.985C259.783 435.501 260.379 434.794 260.742 433.865L261.317 435.864C260.934 436.813 260.258 437.57 259.289 438.135C258.319 438.68 257.098 438.953 255.624 438.953ZM268.673 444.828C267.906 444.828 267.159 444.697 266.432 444.434C265.705 444.192 265.079 443.828 264.554 443.344L265.796 441.164C266.2 441.547 266.644 441.84 267.128 442.042C267.613 442.244 268.128 442.345 268.673 442.345C269.38 442.345 269.965 442.163 270.429 441.8C270.894 441.436 271.328 440.79 271.731 439.861L272.731 437.651L273.034 437.287L279.333 422.721H282.179L274.396 440.376C273.932 441.507 273.407 442.395 272.822 443.041C272.256 443.687 271.631 444.141 270.944 444.404C270.258 444.687 269.501 444.828 268.673 444.828ZM272.489 439.286L265.16 422.721H268.188L274.427 437.015L272.489 439.286ZM297.022 438.953C295.407 438.953 294.155 438.519 293.267 437.651C292.379 436.783 291.935 435.541 291.935 433.926V419.208H294.842V433.805C294.842 434.673 295.054 435.339 295.478 435.804C295.922 436.268 296.548 436.5 297.355 436.5C298.264 436.5 299.021 436.248 299.627 435.743L300.535 437.832C300.091 438.216 299.556 438.499 298.93 438.68C298.324 438.862 297.688 438.953 297.022 438.953ZM289.209 425.114V422.721H299.445V425.114H289.209ZM309.635 438.953C308.02 438.953 306.586 438.6 305.334 437.893C304.083 437.186 303.093 436.217 302.367 434.986C301.64 433.734 301.277 432.321 301.277 430.746C301.277 429.151 301.64 427.738 302.367 426.507C303.093 425.275 304.083 424.316 305.334 423.63C306.586 422.923 308.02 422.57 309.635 422.57C311.23 422.57 312.653 422.923 313.905 423.63C315.176 424.316 316.166 425.275 316.872 426.507C317.599 427.718 317.962 429.131 317.962 430.746C317.962 432.341 317.599 433.754 316.872 434.986C316.166 436.217 315.176 437.186 313.905 437.893C312.653 438.6 311.23 438.953 309.635 438.953ZM309.635 436.409C310.664 436.409 311.583 436.177 312.39 435.713C313.218 435.248 313.864 434.592 314.328 433.744C314.793 432.876 315.025 431.877 315.025 430.746C315.025 429.596 314.793 428.606 314.328 427.779C313.864 426.931 313.218 426.274 312.39 425.81C311.583 425.346 310.664 425.114 309.635 425.114C308.605 425.114 307.686 425.346 306.879 425.81C306.071 426.274 305.425 426.931 304.941 427.779C304.456 428.606 304.214 429.596 304.214 430.746C304.214 431.877 304.456 432.876 304.941 433.744C305.425 434.592 306.071 435.248 306.879 435.713C307.686 436.177 308.605 436.409 309.635 436.409ZM329.025 438.771V417.573H337.293C339.15 417.573 340.735 417.866 342.047 418.451C343.359 419.037 344.369 419.885 345.075 420.995C345.782 422.106 346.135 423.428 346.135 424.962C346.135 426.497 345.782 427.819 345.075 428.929C344.369 430.019 343.359 430.867 342.047 431.473C340.735 432.059 339.15 432.351 337.293 432.351H330.691L332.054 430.928V438.771H329.025ZM332.054 431.231L330.691 429.717H337.202C339.14 429.717 340.604 429.303 341.593 428.475C342.602 427.647 343.107 426.476 343.107 424.962C343.107 423.448 342.602 422.277 341.593 421.449C340.604 420.622 339.14 420.208 337.202 420.208H330.691L332.054 418.694V431.231ZM349.107 438.771V422.721H351.893V427.082L351.621 425.992C352.065 424.881 352.812 424.034 353.862 423.448C354.912 422.863 356.204 422.57 357.738 422.57V425.386C357.617 425.366 357.496 425.356 357.375 425.356C357.274 425.356 357.173 425.356 357.072 425.356C355.517 425.356 354.286 425.82 353.377 426.749C352.469 427.678 352.015 429.02 352.015 430.777V438.771H349.107ZM367.563 438.953C365.847 438.953 364.333 438.6 363.021 437.893C361.728 437.186 360.719 436.217 359.992 434.986C359.286 433.754 358.932 432.341 358.932 430.746C358.932 429.151 359.276 427.738 359.962 426.507C360.669 425.275 361.628 424.316 362.839 423.63C364.07 422.923 365.453 422.57 366.988 422.57C368.542 422.57 369.915 422.913 371.106 423.599C372.297 424.286 373.226 425.255 373.892 426.507C374.579 427.738 374.922 429.182 374.922 430.837C374.922 430.958 374.912 431.1 374.891 431.261C374.891 431.423 374.881 431.574 374.861 431.715H361.204V429.626H373.347L372.166 430.353C372.186 429.323 371.974 428.404 371.53 427.597C371.086 426.789 370.47 426.163 369.683 425.719C368.916 425.255 368.017 425.023 366.988 425.023C365.978 425.023 365.08 425.255 364.292 425.719C363.505 426.163 362.889 426.799 362.445 427.627C362.001 428.435 361.779 429.363 361.779 430.413V430.898C361.779 431.968 362.021 432.927 362.506 433.775C363.01 434.602 363.707 435.248 364.595 435.713C365.484 436.177 366.503 436.409 367.654 436.409C368.603 436.409 369.461 436.248 370.228 435.925C371.015 435.602 371.702 435.117 372.287 434.471L373.892 436.349C373.165 437.197 372.257 437.843 371.167 438.287C370.097 438.731 368.895 438.953 367.563 438.953ZM382.805 438.953C381.472 438.953 380.2 438.771 378.989 438.408C377.798 438.044 376.859 437.6 376.173 437.075L377.384 434.774C378.07 435.238 378.918 435.632 379.928 435.955C380.937 436.278 381.967 436.439 383.017 436.439C384.369 436.439 385.338 436.248 385.924 435.864C386.529 435.48 386.832 434.945 386.832 434.259C386.832 433.754 386.65 433.361 386.287 433.078C385.924 432.795 385.439 432.583 384.834 432.442C384.248 432.301 383.592 432.18 382.865 432.079C382.138 431.958 381.412 431.816 380.685 431.655C379.958 431.473 379.292 431.231 378.686 430.928C378.08 430.605 377.596 430.171 377.232 429.626C376.869 429.061 376.687 428.314 376.687 427.385C376.687 426.416 376.96 425.568 377.505 424.841C378.05 424.114 378.817 423.559 379.807 423.176C380.816 422.772 382.007 422.57 383.38 422.57C384.43 422.57 385.49 422.701 386.56 422.964C387.65 423.206 388.538 423.559 389.225 424.023L387.983 426.325C387.256 425.84 386.499 425.507 385.712 425.326C384.924 425.144 384.137 425.053 383.35 425.053C382.078 425.053 381.129 425.265 380.503 425.689C379.877 426.093 379.564 426.618 379.564 427.264C379.564 427.809 379.746 428.233 380.109 428.536C380.493 428.818 380.977 429.04 381.563 429.202C382.169 429.363 382.835 429.505 383.562 429.626C384.288 429.727 385.015 429.868 385.742 430.05C386.469 430.211 387.125 430.443 387.71 430.746C388.316 431.049 388.801 431.473 389.164 432.018C389.548 432.563 389.739 433.29 389.739 434.199C389.739 435.168 389.457 436.005 388.891 436.712C388.326 437.419 387.529 437.974 386.499 438.378C385.469 438.761 384.238 438.953 382.805 438.953ZM399.762 438.953C398.046 438.953 396.532 438.6 395.22 437.893C393.928 437.186 392.918 436.217 392.192 434.986C391.485 433.754 391.132 432.341 391.132 430.746C391.132 429.151 391.475 427.738 392.161 426.507C392.868 425.275 393.827 424.316 395.038 423.63C396.27 422.923 397.653 422.57 399.187 422.57C400.741 422.57 402.114 422.913 403.305 423.599C404.496 424.286 405.425 425.255 406.091 426.507C406.778 427.738 407.121 429.182 407.121 430.837C407.121 430.958 407.111 431.1 407.091 431.261C407.091 431.423 407.081 431.574 407.06 431.715H393.403V429.626H405.546L404.365 430.353C404.385 429.323 404.173 428.404 403.729 427.597C403.285 426.789 402.669 426.163 401.882 425.719C401.115 425.255 400.217 425.023 399.187 425.023C398.177 425.023 397.279 425.255 396.492 425.719C395.704 426.163 395.089 426.799 394.644 427.627C394.2 428.435 393.978 429.363 393.978 430.413V430.898C393.978 431.968 394.22 432.927 394.705 433.775C395.21 434.602 395.906 435.248 396.795 435.713C397.683 436.177 398.702 436.409 399.853 436.409C400.802 436.409 401.66 436.248 402.427 435.925C403.215 435.602 403.901 435.117 404.486 434.471L406.091 436.349C405.365 437.197 404.456 437.843 403.366 438.287C402.296 438.731 401.095 438.953 399.762 438.953ZM418.971 422.57C420.283 422.57 421.434 422.822 422.423 423.327C423.433 423.832 424.22 424.599 424.785 425.628C425.351 426.658 425.633 427.96 425.633 429.535V438.771H422.726V429.868C422.726 428.314 422.342 427.143 421.575 426.355C420.828 425.568 419.768 425.174 418.396 425.174C417.366 425.174 416.468 425.376 415.7 425.78C414.933 426.184 414.338 426.779 413.914 427.567C413.51 428.354 413.308 429.333 413.308 430.504V438.771H410.401V422.721H413.187V427.052L412.733 425.901C413.258 424.851 414.065 424.034 415.155 423.448C416.245 422.863 417.517 422.57 418.971 422.57ZM437.252 438.953C435.616 438.953 434.153 438.6 432.861 437.893C431.589 437.186 430.589 436.217 429.863 434.986C429.136 433.754 428.772 432.341 428.772 430.746C428.772 429.151 429.136 427.738 429.863 426.507C430.589 425.275 431.589 424.316 432.861 423.63C434.153 422.923 435.616 422.57 437.252 422.57C438.705 422.57 439.997 422.863 441.128 423.448C442.279 424.013 443.167 424.861 443.793 425.992L441.582 427.415C441.057 426.628 440.411 426.052 439.644 425.689C438.897 425.305 438.089 425.114 437.221 425.114C436.172 425.114 435.233 425.346 434.405 425.81C433.577 426.274 432.921 426.931 432.437 427.779C431.952 428.606 431.71 429.596 431.71 430.746C431.71 431.897 431.952 432.896 432.437 433.744C432.921 434.592 433.577 435.248 434.405 435.713C435.233 436.177 436.172 436.409 437.221 436.409C438.089 436.409 438.897 436.227 439.644 435.864C440.411 435.48 441.057 434.895 441.582 434.108L443.793 435.501C443.167 436.611 442.279 437.469 441.128 438.075C439.997 438.66 438.705 438.953 437.252 438.953ZM453.71 438.953C451.994 438.953 450.479 438.6 449.167 437.893C447.875 437.186 446.866 436.217 446.139 434.986C445.432 433.754 445.079 432.341 445.079 430.746C445.079 429.151 445.422 427.738 446.109 426.507C446.815 425.275 447.774 424.316 448.986 423.63C450.217 422.923 451.6 422.57 453.134 422.57C454.689 422.57 456.062 422.913 457.253 423.599C458.444 424.286 459.373 425.255 460.039 426.507C460.725 427.738 461.068 429.182 461.068 430.837C461.068 430.958 461.058 431.1 461.038 431.261C461.038 431.423 461.028 431.574 461.008 431.715H447.35V429.626H459.494L458.313 430.353C458.333 429.323 458.121 428.404 457.677 427.597C457.233 426.789 456.617 426.163 455.829 425.719C455.062 425.255 454.164 425.023 453.134 425.023C452.125 425.023 451.226 425.255 450.439 425.719C449.652 426.163 449.036 426.799 448.592 427.627C448.148 428.435 447.926 429.363 447.926 430.413V430.898C447.926 431.968 448.168 432.927 448.652 433.775C449.157 434.602 449.854 435.248 450.742 435.713C451.63 436.177 452.65 436.409 453.8 436.409C454.749 436.409 455.607 436.248 456.375 435.925C457.162 435.602 457.848 435.117 458.434 434.471L460.039 436.349C459.312 437.197 458.404 437.843 457.313 438.287C456.243 438.731 455.042 438.953 453.71 438.953Z" fill="white" fill-opacity="0.75"/>
</g>
<defs>
<clipPath id="clip0_1443_7410">
<rect width="500" height="500" fill="white"/>
</clipPath>
</defs>
</svg>
