<svg width="182" height="171" viewBox="0 0 182 171" fill="none" xmlns="http://www.w3.org/2000/svg">
<path fill-rule="evenodd" clip-rule="evenodd" d="M126 16.8631L87.5644 0L56 20.7053V72.4687L69.0982 81.3271V27.4292L89.819 14.4084L126 16.8631ZM74.6799 30.1503L87.8865 23.0534V36.9824H99.0657L92.1694 50.1113H87.8865V76.8445L121.169 65.7448L84.9877 92L74.8415 85.0088L74.6799 30.1503Z" fill="white" fill-opacity="0.9"/>
<path d="M9.32784 146.264C7.7585 146.264 6.33584 145.927 5.05984 145.252C3.7985 144.563 2.80117 143.617 2.06784 142.414C1.34917 141.197 0.989836 139.825 0.989836 138.3C0.989836 136.775 1.34917 135.411 2.06784 134.208C2.80117 132.991 3.7985 132.045 5.05984 131.37C6.33584 130.681 7.76584 130.336 9.34984 130.336C10.6845 130.336 11.8872 130.571 12.9578 131.04C14.0432 131.509 14.9525 132.184 15.6858 133.064L13.3978 135.176C12.3565 133.973 11.0658 133.372 9.52584 133.372C8.5725 133.372 7.72184 133.585 6.97384 134.01C6.22584 134.421 5.63917 135 5.21384 135.748C4.80317 136.496 4.59784 137.347 4.59784 138.3C4.59784 139.253 4.80317 140.104 5.21384 140.852C5.63917 141.6 6.22584 142.187 6.97384 142.612C7.72184 143.023 8.5725 143.228 9.52584 143.228C11.0658 143.228 12.3565 142.619 13.3978 141.402L15.6858 143.514C14.9525 144.409 14.0432 145.091 12.9578 145.56C11.8725 146.029 10.6625 146.264 9.32784 146.264ZM25.2283 146.264C23.6297 146.264 22.185 145.919 20.8943 145.23C19.6183 144.541 18.6137 143.595 17.8803 142.392C17.1617 141.175 16.8023 139.811 16.8023 138.3C16.8023 136.789 17.1617 135.433 17.8803 134.23C18.6137 133.013 19.6183 132.059 20.8943 131.37C22.185 130.681 23.6297 130.336 25.2283 130.336C26.827 130.336 28.2643 130.681 29.5403 131.37C30.8163 132.059 31.821 133.013 32.5543 134.23C33.2877 135.433 33.6543 136.789 33.6543 138.3C33.6543 139.811 33.2877 141.175 32.5543 142.392C31.821 143.595 30.8163 144.541 29.5403 145.23C28.2643 145.919 26.827 146.264 25.2283 146.264ZM25.2283 143.228C26.1377 143.228 26.959 143.023 27.6923 142.612C28.4257 142.187 28.9977 141.6 29.4083 140.852C29.8337 140.104 30.0463 139.253 30.0463 138.3C30.0463 137.347 29.8337 136.496 29.4083 135.748C28.9977 135 28.4257 134.421 27.6923 134.01C26.959 133.585 26.1377 133.372 25.2283 133.372C24.319 133.372 23.4977 133.585 22.7643 134.01C22.031 134.421 21.4517 135 21.0263 135.748C20.6157 136.496 20.4103 137.347 20.4103 138.3C20.4103 139.253 20.6157 140.104 21.0263 140.852C21.4517 141.6 22.031 142.187 22.7643 142.612C23.4977 143.023 24.319 143.228 25.2283 143.228ZM50.4568 130.6V146H47.5308L39.8528 136.65V146H36.3328V130.6H39.2808L46.9368 139.95V130.6H50.4568ZM57.2904 133.504H52.3624V130.6H65.7824V133.504H60.8544V146H57.2904V133.504ZM79.624 143.14V146H67.7V130.6H79.338V133.46H71.242V136.804H78.392V139.576H71.242V143.14H79.624ZM96.5838 130.6V146H93.6578L85.9798 136.65V146H82.4598V130.6H85.4078L93.0638 139.95V130.6H96.5838ZM100.227 130.6H107.223C108.895 130.6 110.369 130.923 111.645 131.568C112.936 132.199 113.933 133.093 114.637 134.252C115.356 135.411 115.715 136.76 115.715 138.3C115.715 139.84 115.356 141.189 114.637 142.348C113.933 143.507 112.936 144.409 111.645 145.054C110.369 145.685 108.895 146 107.223 146H100.227V130.6ZM107.047 143.074C108.587 143.074 109.812 142.649 110.721 141.798C111.645 140.933 112.107 139.767 112.107 138.3C112.107 136.833 111.645 135.675 110.721 134.824C109.812 133.959 108.587 133.526 107.047 133.526H103.791V143.074H107.047ZM128.33 142.7H121.18L119.816 146H116.164L123.028 130.6H126.548L133.434 146H129.694L128.33 142.7ZM127.208 139.994L124.766 134.098L122.324 139.994H127.208ZM149.156 130.6V146H146.23L138.552 136.65V146H135.032V130.6H137.98L145.636 139.95V130.6H149.156ZM160.17 146.264C158.6 146.264 157.178 145.927 155.902 145.252C154.64 144.563 153.643 143.617 152.91 142.414C152.191 141.197 151.832 139.825 151.832 138.3C151.832 136.775 152.191 135.411 152.91 134.208C153.643 132.991 154.64 132.045 155.902 131.37C157.178 130.681 158.608 130.336 160.192 130.336C161.526 130.336 162.729 130.571 163.8 131.04C164.885 131.509 165.794 132.184 166.528 133.064L164.24 135.176C163.198 133.973 161.908 133.372 160.368 133.372C159.414 133.372 158.564 133.585 157.816 134.01C157.068 134.421 156.481 135 156.056 135.748C155.645 136.496 155.44 137.347 155.44 138.3C155.44 139.253 155.645 140.104 156.056 140.852C156.481 141.6 157.068 142.187 157.816 142.612C158.564 143.023 159.414 143.228 160.368 143.228C161.908 143.228 163.198 142.619 164.24 141.402L166.528 143.514C165.794 144.409 164.885 145.091 163.8 145.56C162.714 146.029 161.504 146.264 160.17 146.264ZM180.858 143.14V146H168.934V130.6H180.572V133.46H172.476V136.804H179.626V139.576H172.476V143.14H180.858Z" fill="white" fill-opacity="0.9"/>
<path d="M11.0624 158.644H8.18238V157.6H15.1304V158.644H12.2504V166H11.0624V158.644ZM19.3653 159.58C20.1733 159.58 20.8133 159.816 21.2853 160.288C21.7653 160.752 22.0053 161.436 22.0053 162.34V166H20.8533V162.472C20.8533 161.856 20.7053 161.392 20.4093 161.08C20.1133 160.768 19.6893 160.612 19.1373 160.612C18.5133 160.612 18.0213 160.796 17.6613 161.164C17.3013 161.524 17.1213 162.044 17.1213 162.724V166H15.9693V157.096H17.1213V160.54C17.3613 160.236 17.6733 160 18.0573 159.832C18.4493 159.664 18.8853 159.58 19.3653 159.58ZM29.6205 162.856C29.6205 162.944 29.6125 163.06 29.5965 163.204H24.4365C24.5085 163.764 24.7525 164.216 25.1685 164.56C25.5925 164.896 26.1165 165.064 26.7405 165.064C27.5005 165.064 28.1125 164.808 28.5765 164.296L29.2125 165.04C28.9245 165.376 28.5645 165.632 28.1325 165.808C27.7085 165.984 27.2325 166.072 26.7045 166.072C26.0325 166.072 25.4365 165.936 24.9165 165.664C24.3965 165.384 23.9925 164.996 23.7045 164.5C23.4245 164.004 23.2845 163.444 23.2845 162.82C23.2845 162.204 23.4205 161.648 23.6925 161.152C23.9725 160.656 24.3525 160.272 24.8325 160C25.3205 159.72 25.8685 159.58 26.4765 159.58C27.0845 159.58 27.6245 159.72 28.0965 160C28.5765 160.272 28.9485 160.656 29.2125 161.152C29.4845 161.648 29.6205 162.216 29.6205 162.856ZM26.4765 160.552C25.9245 160.552 25.4605 160.72 25.0845 161.056C24.7165 161.392 24.5005 161.832 24.4365 162.376H28.5165C28.4525 161.84 28.2325 161.404 27.8565 161.068C27.4885 160.724 27.0285 160.552 26.4765 160.552ZM40.1068 164.956V166H34.0108V157.6H39.9388V158.644H35.2108V161.224H39.4228V162.244H35.2108V164.956H40.1068ZM43.8158 159.58C44.6958 159.58 45.3678 159.796 45.8318 160.228C46.3038 160.66 46.5398 161.304 46.5398 162.16V166H45.4478V165.16C45.2558 165.456 44.9798 165.684 44.6198 165.844C44.2678 165.996 43.8478 166.072 43.3598 166.072C42.6478 166.072 42.0758 165.9 41.6438 165.556C41.2198 165.212 41.0078 164.76 41.0078 164.2C41.0078 163.64 41.2118 163.192 41.6198 162.856C42.0278 162.512 42.6758 162.34 43.5638 162.34H45.3878V162.112C45.3878 161.616 45.2438 161.236 44.9558 160.972C44.6678 160.708 44.2438 160.576 43.6838 160.576C43.3078 160.576 42.9398 160.64 42.5798 160.768C42.2198 160.888 41.9158 161.052 41.6678 161.26L41.1878 160.396C41.5158 160.132 41.9078 159.932 42.3638 159.796C42.8198 159.652 43.3038 159.58 43.8158 159.58ZM43.5518 165.184C43.9918 165.184 44.3718 165.088 44.6918 164.896C45.0118 164.696 45.2438 164.416 45.3878 164.056V163.168H43.6118C42.6358 163.168 42.1478 163.496 42.1478 164.152C42.1478 164.472 42.2718 164.724 42.5198 164.908C42.7678 165.092 43.1118 165.184 43.5518 165.184ZM50.1957 166.072C49.6757 166.072 49.1757 166.004 48.6957 165.868C48.2157 165.724 47.8397 165.544 47.5677 165.328L48.0477 164.416C48.3277 164.616 48.6677 164.776 49.0677 164.896C49.4677 165.016 49.8717 165.076 50.2797 165.076C51.2877 165.076 51.7917 164.788 51.7917 164.212C51.7917 164.02 51.7237 163.868 51.5877 163.756C51.4517 163.644 51.2797 163.564 51.0717 163.516C50.8717 163.46 50.5837 163.4 50.2077 163.336C49.6957 163.256 49.2757 163.164 48.9477 163.06C48.6277 162.956 48.3517 162.78 48.1197 162.532C47.8877 162.284 47.7717 161.936 47.7717 161.488C47.7717 160.912 48.0117 160.452 48.4917 160.108C48.9717 159.756 49.6157 159.58 50.4237 159.58C50.8477 159.58 51.2717 159.632 51.6957 159.736C52.1197 159.84 52.4677 159.98 52.7397 160.156L52.2477 161.068C51.7277 160.732 51.1157 160.564 50.4117 160.564C49.9237 160.564 49.5517 160.644 49.2957 160.804C49.0397 160.964 48.9117 161.176 48.9117 161.44C48.9117 161.648 48.9837 161.812 49.1277 161.932C49.2717 162.052 49.4477 162.14 49.6557 162.196C49.8717 162.252 50.1717 162.316 50.5557 162.388C51.0677 162.476 51.4797 162.572 51.7917 162.676C52.1117 162.772 52.3837 162.94 52.6077 163.18C52.8317 163.42 52.9437 163.756 52.9437 164.188C52.9437 164.764 52.6957 165.224 52.1997 165.568C51.7117 165.904 51.0437 166.072 50.1957 166.072ZM54.0834 159.64H55.2354V166H54.0834V159.64ZM54.6594 158.416C54.4354 158.416 54.2474 158.344 54.0954 158.2C53.9514 158.056 53.8794 157.88 53.8794 157.672C53.8794 157.464 53.9514 157.288 54.0954 157.144C54.2474 156.992 54.4354 156.916 54.6594 156.916C54.8834 156.916 55.0674 156.988 55.2114 157.132C55.3634 157.268 55.4394 157.44 55.4394 157.648C55.4394 157.864 55.3634 158.048 55.2114 158.2C55.0674 158.344 54.8834 158.416 54.6594 158.416ZM62.883 162.856C62.883 162.944 62.875 163.06 62.859 163.204H57.699C57.771 163.764 58.015 164.216 58.431 164.56C58.855 164.896 59.379 165.064 60.003 165.064C60.763 165.064 61.375 164.808 61.839 164.296L62.475 165.04C62.187 165.376 61.827 165.632 61.395 165.808C60.971 165.984 60.495 166.072 59.967 166.072C59.295 166.072 58.699 165.936 58.179 165.664C57.659 165.384 57.255 164.996 56.967 164.5C56.687 164.004 56.547 163.444 56.547 162.82C56.547 162.204 56.683 161.648 56.955 161.152C57.235 160.656 57.615 160.272 58.095 160C58.583 159.72 59.131 159.58 59.739 159.58C60.347 159.58 60.887 159.72 61.359 160C61.839 160.272 62.211 160.656 62.475 161.152C62.747 161.648 62.883 162.216 62.883 162.856ZM59.739 160.552C59.187 160.552 58.723 160.72 58.347 161.056C57.979 161.392 57.763 161.832 57.699 162.376H61.779C61.715 161.84 61.495 161.404 61.119 161.068C60.751 160.724 60.291 160.552 59.739 160.552ZM66.0066 166.072C65.4866 166.072 64.9866 166.004 64.5066 165.868C64.0266 165.724 63.6506 165.544 63.3786 165.328L63.8586 164.416C64.1386 164.616 64.4786 164.776 64.8786 164.896C65.2786 165.016 65.6826 165.076 66.0906 165.076C67.0986 165.076 67.6026 164.788 67.6026 164.212C67.6026 164.02 67.5346 163.868 67.3986 163.756C67.2626 163.644 67.0906 163.564 66.8826 163.516C66.6826 163.46 66.3946 163.4 66.0186 163.336C65.5066 163.256 65.0866 163.164 64.7586 163.06C64.4386 162.956 64.1626 162.78 63.9306 162.532C63.6986 162.284 63.5826 161.936 63.5826 161.488C63.5826 160.912 63.8226 160.452 64.3026 160.108C64.7826 159.756 65.4266 159.58 66.2346 159.58C66.6586 159.58 67.0826 159.632 67.5066 159.736C67.9306 159.84 68.2786 159.98 68.5506 160.156L68.0586 161.068C67.5386 160.732 66.9266 160.564 66.2226 160.564C65.7346 160.564 65.3626 160.644 65.1066 160.804C64.8506 160.964 64.7226 161.176 64.7226 161.44C64.7226 161.648 64.7946 161.812 64.9386 161.932C65.0826 162.052 65.2586 162.14 65.4666 162.196C65.6826 162.252 65.9826 162.316 66.3666 162.388C66.8786 162.476 67.2906 162.572 67.6026 162.676C67.9226 162.772 68.1946 162.94 68.4186 163.18C68.6426 163.42 68.7546 163.756 68.7546 164.188C68.7546 164.764 68.5066 165.224 68.0106 165.568C67.5226 165.904 66.8546 166.072 66.0066 166.072ZM73.4703 165.628C73.3023 165.772 73.0943 165.884 72.8463 165.964C72.5983 166.036 72.3423 166.072 72.0783 166.072C71.4383 166.072 70.9423 165.9 70.5903 165.556C70.2383 165.212 70.0623 164.72 70.0623 164.08V160.588H68.9823V159.64H70.0623V158.248H71.2143V159.64H73.0383V160.588H71.2143V164.032C71.2143 164.376 71.2983 164.64 71.4663 164.824C71.6423 165.008 71.8903 165.1 72.2103 165.1C72.5623 165.1 72.8623 165 73.1103 164.8L73.4703 165.628ZM89.5218 157.6L86.7138 166H85.4538L83.1618 159.292L80.8698 166H79.5858L76.7778 157.6H78.0138L80.2818 164.428L82.6458 157.6H83.7498L86.0658 164.464L88.3818 157.6H89.5218ZM92.3572 159.58C93.2372 159.58 93.9092 159.796 94.3732 160.228C94.8452 160.66 95.0812 161.304 95.0812 162.16V166H93.9892V165.16C93.7972 165.456 93.5212 165.684 93.1612 165.844C92.8092 165.996 92.3892 166.072 91.9012 166.072C91.1892 166.072 90.6172 165.9 90.1852 165.556C89.7612 165.212 89.5492 164.76 89.5492 164.2C89.5492 163.64 89.7532 163.192 90.1612 162.856C90.5692 162.512 91.2172 162.34 92.1052 162.34H93.9292V162.112C93.9292 161.616 93.7852 161.236 93.4972 160.972C93.2092 160.708 92.7852 160.576 92.2252 160.576C91.8492 160.576 91.4812 160.64 91.1212 160.768C90.7612 160.888 90.4572 161.052 90.2092 161.26L89.7292 160.396C90.0572 160.132 90.4492 159.932 90.9052 159.796C91.3612 159.652 91.8452 159.58 92.3572 159.58ZM92.0932 165.184C92.5332 165.184 92.9132 165.088 93.2332 164.896C93.5532 164.696 93.7852 164.416 93.9292 164.056V163.168H92.1532C91.1772 163.168 90.6892 163.496 90.6892 164.152C90.6892 164.472 90.8132 164.724 91.0612 164.908C91.3092 165.092 91.6532 165.184 92.0932 165.184ZM102.424 159.64L99.3399 166.636C99.0679 167.284 98.7479 167.74 98.3799 168.004C98.0199 168.268 97.5839 168.4 97.0719 168.4C96.7599 168.4 96.4559 168.348 96.1599 168.244C95.8719 168.148 95.6319 168.004 95.4399 167.812L95.9319 166.948C96.2599 167.26 96.6399 167.416 97.0719 167.416C97.3519 167.416 97.5839 167.34 97.7679 167.188C97.9599 167.044 98.1319 166.792 98.2839 166.432L98.4879 165.988L95.6799 159.64H96.8799L99.0999 164.728L101.296 159.64H102.424ZM109.698 165.628C109.53 165.772 109.322 165.884 109.074 165.964C108.826 166.036 108.57 166.072 108.306 166.072C107.666 166.072 107.17 165.9 106.818 165.556C106.466 165.212 106.29 164.72 106.29 164.08V160.588H105.21V159.64H106.29V158.248H107.442V159.64H109.266V160.588H107.442V164.032C107.442 164.376 107.526 164.64 107.694 164.824C107.87 165.008 108.118 165.1 108.438 165.1C108.79 165.1 109.09 165 109.338 164.8L109.698 165.628ZM113.304 166.072C112.672 166.072 112.104 165.932 111.6 165.652C111.096 165.372 110.7 164.988 110.412 164.5C110.132 164.004 109.992 163.444 109.992 162.82C109.992 162.196 110.132 161.64 110.412 161.152C110.7 160.656 111.096 160.272 111.6 160C112.104 159.72 112.672 159.58 113.304 159.58C113.936 159.58 114.5 159.72 114.996 160C115.5 160.272 115.892 160.656 116.172 161.152C116.46 161.64 116.604 162.196 116.604 162.82C116.604 163.444 116.46 164.004 116.172 164.5C115.892 164.988 115.5 165.372 114.996 165.652C114.5 165.932 113.936 166.072 113.304 166.072ZM113.304 165.064C113.712 165.064 114.076 164.972 114.396 164.788C114.724 164.596 114.98 164.332 115.164 163.996C115.348 163.652 115.44 163.26 115.44 162.82C115.44 162.38 115.348 161.992 115.164 161.656C114.98 161.312 114.724 161.048 114.396 160.864C114.076 160.68 113.712 160.588 113.304 160.588C112.896 160.588 112.528 160.68 112.2 160.864C111.88 161.048 111.624 161.312 111.432 161.656C111.248 161.992 111.156 162.38 111.156 162.82C111.156 163.26 111.248 163.652 111.432 163.996C111.624 164.332 111.88 164.596 112.2 164.788C112.528 164.972 112.896 165.064 113.304 165.064ZM124.263 157.6C125.351 157.6 126.207 157.86 126.831 158.38C127.455 158.9 127.767 159.616 127.767 160.528C127.767 161.44 127.455 162.156 126.831 162.676C126.207 163.196 125.351 163.456 124.263 163.456H122.187V166H120.987V157.6H124.263ZM124.227 162.412C124.987 162.412 125.567 162.252 125.967 161.932C126.367 161.604 126.567 161.136 126.567 160.528C126.567 159.92 126.367 159.456 125.967 159.136C125.567 158.808 124.987 158.644 124.227 158.644H122.187V162.412H124.227ZM130.061 160.708C130.261 160.34 130.557 160.06 130.949 159.868C131.341 159.676 131.817 159.58 132.377 159.58V160.696C132.313 160.688 132.225 160.684 132.113 160.684C131.489 160.684 130.997 160.872 130.637 161.248C130.285 161.616 130.109 162.144 130.109 162.832V166H128.957V159.64H130.061V160.708ZM139.186 162.856C139.186 162.944 139.178 163.06 139.162 163.204H134.002C134.074 163.764 134.318 164.216 134.734 164.56C135.158 164.896 135.682 165.064 136.306 165.064C137.066 165.064 137.678 164.808 138.142 164.296L138.778 165.04C138.49 165.376 138.13 165.632 137.698 165.808C137.274 165.984 136.798 166.072 136.27 166.072C135.598 166.072 135.002 165.936 134.482 165.664C133.962 165.384 133.558 164.996 133.27 164.5C132.99 164.004 132.85 163.444 132.85 162.82C132.85 162.204 132.986 161.648 133.258 161.152C133.538 160.656 133.918 160.272 134.398 160C134.886 159.72 135.434 159.58 136.042 159.58C136.65 159.58 137.19 159.72 137.662 160C138.142 160.272 138.514 160.656 138.778 161.152C139.05 161.648 139.186 162.216 139.186 162.856ZM136.042 160.552C135.49 160.552 135.026 160.72 134.65 161.056C134.282 161.392 134.066 161.832 134.002 162.376H138.082C138.018 161.84 137.798 161.404 137.422 161.068C137.054 160.724 136.594 160.552 136.042 160.552ZM142.31 166.072C141.79 166.072 141.29 166.004 140.81 165.868C140.33 165.724 139.954 165.544 139.682 165.328L140.162 164.416C140.442 164.616 140.782 164.776 141.182 164.896C141.582 165.016 141.986 165.076 142.394 165.076C143.402 165.076 143.906 164.788 143.906 164.212C143.906 164.02 143.838 163.868 143.702 163.756C143.566 163.644 143.394 163.564 143.186 163.516C142.986 163.46 142.698 163.4 142.322 163.336C141.81 163.256 141.39 163.164 141.062 163.06C140.742 162.956 140.466 162.78 140.234 162.532C140.002 162.284 139.886 161.936 139.886 161.488C139.886 160.912 140.126 160.452 140.606 160.108C141.086 159.756 141.73 159.58 142.538 159.58C142.962 159.58 143.386 159.632 143.81 159.736C144.234 159.84 144.582 159.98 144.854 160.156L144.362 161.068C143.842 160.732 143.23 160.564 142.526 160.564C142.038 160.564 141.666 160.644 141.41 160.804C141.154 160.964 141.026 161.176 141.026 161.44C141.026 161.648 141.098 161.812 141.242 161.932C141.386 162.052 141.562 162.14 141.77 162.196C141.986 162.252 142.286 162.316 142.67 162.388C143.182 162.476 143.594 162.572 143.906 162.676C144.226 162.772 144.498 162.94 144.722 163.18C144.946 163.42 145.058 163.756 145.058 164.188C145.058 164.764 144.81 165.224 144.314 165.568C143.826 165.904 143.158 166.072 142.31 166.072ZM151.945 162.856C151.945 162.944 151.937 163.06 151.921 163.204H146.761C146.833 163.764 147.077 164.216 147.493 164.56C147.917 164.896 148.441 165.064 149.065 165.064C149.825 165.064 150.437 164.808 150.901 164.296L151.537 165.04C151.249 165.376 150.889 165.632 150.457 165.808C150.033 165.984 149.557 166.072 149.029 166.072C148.357 166.072 147.761 165.936 147.241 165.664C146.721 165.384 146.317 164.996 146.029 164.5C145.749 164.004 145.609 163.444 145.609 162.82C145.609 162.204 145.745 161.648 146.017 161.152C146.297 160.656 146.677 160.272 147.157 160C147.645 159.72 148.193 159.58 148.801 159.58C149.409 159.58 149.949 159.72 150.421 160C150.901 160.272 151.273 160.656 151.537 161.152C151.809 161.648 151.945 162.216 151.945 162.856ZM148.801 160.552C148.249 160.552 147.785 160.72 147.409 161.056C147.041 161.392 146.825 161.832 146.761 162.376H150.841C150.777 161.84 150.557 161.404 150.181 161.068C149.813 160.724 149.353 160.552 148.801 160.552ZM156.641 159.58C157.449 159.58 158.089 159.816 158.561 160.288C159.041 160.752 159.281 161.436 159.281 162.34V166H158.129V162.472C158.129 161.856 157.981 161.392 157.685 161.08C157.389 160.768 156.965 160.612 156.413 160.612C155.789 160.612 155.297 160.796 154.937 161.164C154.577 161.524 154.397 162.044 154.397 162.724V166H153.245V159.64H154.349V160.6C154.581 160.272 154.893 160.02 155.285 159.844C155.685 159.668 156.137 159.58 156.641 159.58ZM163.92 166.072C163.272 166.072 162.692 165.932 162.18 165.652C161.676 165.372 161.28 164.988 160.992 164.5C160.704 164.004 160.56 163.444 160.56 162.82C160.56 162.196 160.704 161.64 160.992 161.152C161.28 160.656 161.676 160.272 162.18 160C162.692 159.72 163.272 159.58 163.92 159.58C164.496 159.58 165.008 159.696 165.456 159.928C165.912 160.16 166.264 160.496 166.512 160.936L165.636 161.5C165.436 161.196 165.188 160.968 164.892 160.816C164.596 160.664 164.268 160.588 163.908 160.588C163.492 160.588 163.116 160.68 162.78 160.864C162.452 161.048 162.192 161.312 162 161.656C161.816 161.992 161.724 162.38 161.724 162.82C161.724 163.268 161.816 163.664 162 164.008C162.192 164.344 162.452 164.604 162.78 164.788C163.116 164.972 163.492 165.064 163.908 165.064C164.268 165.064 164.596 164.988 164.892 164.836C165.188 164.684 165.436 164.456 165.636 164.152L166.512 164.704C166.264 165.144 165.912 165.484 165.456 165.724C165.008 165.956 164.496 166.072 163.92 166.072ZM173.358 162.856C173.358 162.944 173.35 163.06 173.334 163.204H168.174C168.246 163.764 168.49 164.216 168.906 164.56C169.33 164.896 169.854 165.064 170.478 165.064C171.238 165.064 171.85 164.808 172.314 164.296L172.95 165.04C172.662 165.376 172.302 165.632 171.87 165.808C171.446 165.984 170.97 166.072 170.442 166.072C169.77 166.072 169.174 165.936 168.654 165.664C168.134 165.384 167.73 164.996 167.442 164.5C167.162 164.004 167.022 163.444 167.022 162.82C167.022 162.204 167.158 161.648 167.43 161.152C167.71 160.656 168.09 160.272 168.57 160C169.058 159.72 169.606 159.58 170.214 159.58C170.822 159.58 171.362 159.72 171.834 160C172.314 160.272 172.686 160.656 172.95 161.152C173.222 161.648 173.358 162.216 173.358 162.856ZM170.214 160.552C169.662 160.552 169.198 160.72 168.822 161.056C168.454 161.392 168.238 161.832 168.174 162.376H172.254C172.19 161.84 171.97 161.404 171.594 161.068C171.226 160.724 170.766 160.552 170.214 160.552Z" fill="white" fill-opacity="0.75"/>
</svg>
