<svg width="33" height="34" viewBox="0 0 33 34" fill="none" xmlns="http://www.w3.org/2000/svg">
<circle cx="16.5002" cy="17.0002" r="4.61538" fill="white" fill-opacity="0.9"/>
<mask id="path-2-inside-1_454_3938" fill="white">
<path d="M26.7611 15.4042C26.3812 12.9609 25.1419 10.7334 23.2663 9.1223C21.3906 7.5112 19.0016 6.62222 16.529 6.61528C14.0564 6.60833 11.6625 7.48387 9.77779 9.08441C7.8931 10.685 6.64135 12.9055 6.24769 15.3465L7.78904 15.5951C8.12352 13.521 9.18707 11.6344 10.7884 10.2744C12.3898 8.91454 14.4238 8.17063 16.5246 8.17653C18.6255 8.18243 20.6553 8.93776 22.249 10.3066C23.8427 11.6755 24.8956 13.5681 25.2184 15.6441L26.7611 15.4042Z"/>
</mask>
<path d="M26.7611 15.4042C26.3812 12.9609 25.1419 10.7334 23.2663 9.1223C21.3906 7.5112 19.0016 6.62222 16.529 6.61528C14.0564 6.60833 11.6625 7.48387 9.77779 9.08441C7.8931 10.685 6.64135 12.9055 6.24769 15.3465L7.78904 15.5951C8.12352 13.521 9.18707 11.6344 10.7884 10.2744C12.3898 8.91454 14.4238 8.17063 16.5246 8.17653C18.6255 8.18243 20.6553 8.93776 22.249 10.3066C23.8427 11.6755 24.8956 13.5681 25.2184 15.6441L26.7611 15.4042Z" stroke="white" stroke-opacity="0.75" stroke-width="4" mask="url(#path-2-inside-1_454_3938)"/>
<mask id="path-3-inside-2_454_3938" fill="white">
<path d="M26.7783 18.4812C26.4256 20.9286 25.2113 23.1698 23.3538 24.8017C21.4962 26.4336 19.1173 27.3492 16.6449 27.3838C14.1725 27.4183 11.769 26.5695 9.86653 24.9901C7.9641 23.4107 6.68765 21.2043 6.26678 18.7678L7.80526 18.502C8.16285 20.5722 9.24739 22.4469 10.8638 23.7889C12.4802 25.1308 14.5224 25.852 16.6231 25.8226C18.7237 25.7933 20.745 25.0154 22.3233 23.6288C23.9016 22.2422 24.9334 20.338 25.233 18.2586L26.7783 18.4812Z"/>
</mask>
<path d="M26.7783 18.4812C26.4256 20.9286 25.2113 23.1698 23.3538 24.8017C21.4962 26.4336 19.1173 27.3492 16.6449 27.3838C14.1725 27.4183 11.769 26.5695 9.86653 24.9901C7.9641 23.4107 6.68765 21.2043 6.26678 18.7678L7.80526 18.502C8.16285 20.5722 9.24739 22.4469 10.8638 23.7889C12.4802 25.1308 14.5224 25.852 16.6231 25.8226C18.7237 25.7933 20.745 25.0154 22.3233 23.6288C23.9016 22.2422 24.9334 20.338 25.233 18.2586L26.7783 18.4812Z" stroke="white" stroke-opacity="0.75" stroke-width="4" mask="url(#path-3-inside-2_454_3938)"/>
<mask id="path-4-inside-3_454_3938" fill="white">
<path d="M23.5931 31.5128C27.4423 29.6316 30.3865 26.2984 31.778 22.2464C33.1696 18.1944 32.8945 13.7556 31.0133 9.90645C29.1321 6.05729 25.7989 3.1131 21.7469 1.72155C17.6949 0.329997 13.2561 0.605083 9.40694 2.48629L10.244 4.19901C13.6389 2.53981 17.5539 2.29719 21.1277 3.52452C24.7015 4.75185 27.6414 7.3486 29.3006 10.7435C30.9598 14.1384 31.2024 18.0534 29.9751 21.6272C28.7477 25.201 26.151 28.1409 22.7561 29.8001L23.5931 31.5128Z"/>
</mask>
<path d="M23.5931 31.5128C27.4423 29.6316 30.3865 26.2984 31.778 22.2464C33.1696 18.1944 32.8945 13.7556 31.0133 9.90645C29.1321 6.05729 25.7989 3.1131 21.7469 1.72155C17.6949 0.329997 13.2561 0.605083 9.40694 2.48629L10.244 4.19901C13.6389 2.53981 17.5539 2.29719 21.1277 3.52452C24.7015 4.75185 27.6414 7.3486 29.3006 10.7435C30.9598 14.1384 31.2024 18.0534 29.9751 21.6272C28.7477 25.201 26.151 28.1409 22.7561 29.8001L23.5931 31.5128Z" stroke="white" stroke-opacity="0.5" stroke-width="4" mask="url(#path-4-inside-3_454_3938)"/>
<mask id="path-5-inside-4_454_3938" fill="white">
<path d="M18.7921 32.9909C15.3745 33.4807 11.8899 32.8628 8.84918 31.2276C5.80847 29.5924 3.37165 27.026 1.89602 23.9048C0.42039 20.7835 -0.0164083 17.2716 0.649673 13.8839C1.31575 10.4963 3.04967 7.41118 5.59718 5.08095L6.88384 6.48759C4.63696 8.54282 3.10767 11.2639 2.52019 14.2517C1.93271 17.2396 2.31797 20.3371 3.61945 23.09C4.92094 25.8429 7.0702 28.1064 9.75207 29.5486C12.4339 30.9908 15.5073 31.5359 18.5216 31.1038L18.7921 32.9909Z"/>
</mask>
<path d="M18.7921 32.9909C15.3745 33.4807 11.8899 32.8628 8.84918 31.2276C5.80847 29.5924 3.37165 27.026 1.89602 23.9048C0.42039 20.7835 -0.0164083 17.2716 0.649673 13.8839C1.31575 10.4963 3.04967 7.41118 5.59718 5.08095L6.88384 6.48759C4.63696 8.54282 3.10767 11.2639 2.52019 14.2517C1.93271 17.2396 2.31797 20.3371 3.61945 23.09C4.92094 25.8429 7.0702 28.1064 9.75207 29.5486C12.4339 30.9908 15.5073 31.5359 18.5216 31.1038L18.7921 32.9909Z" stroke="white" stroke-opacity="0.5" stroke-width="4" mask="url(#path-5-inside-4_454_3938)"/>
</svg>
