<svg width="275" height="275" viewBox="0 0 275 275" fill="none" xmlns="http://www.w3.org/2000/svg">
<path d="M24.5295 122.485L42.2945 128.755L37.8395 131.395L25.4095 138.49L21.3945 140.745L24.5295 122.485Z" fill="#EBEBEB"/>
<path d="M101.969 220.055L113.024 215.05L88.9344 173.965L78.0444 183.645L58.9594 150.15L48.4544 157.245L31.3494 126.39L25.0244 129.03L45.9244 170.665L57.8044 160.38L75.7894 197.78L86.5694 186.12L101.969 220.055Z" fill="#EBEBEB"/>
<path d="M261.91 196.24L248.545 195.745L250.855 198.605L257.18 206.525L259.215 209.11L261.91 196.24Z" fill="#F5F5F5"/>
<path d="M185.46 240.35L179.465 234.19L206.03 213.4L210.705 222.585L232.045 205.48L237.105 212.905L256.41 197.065L259.875 200.42L235.235 222.42L230.12 212.52L208.505 232.485L204.435 221.98L185.46 240.35Z" fill="#F5F5F5"/>
<path d="M236.5 77.275L218.68 86.79L223.85 88.825L238.15 94.38L242.77 96.195L236.5 77.275Z" fill="#E0E0E0"/>
<path d="M170.005 193.05L157.465 189.53L176.44 142.12L189.53 150.645L204.435 112.09L216.7 117.975L229.955 82.5551L237.05 84.3151L221.485 131.725L207.295 122.76L194.15 165.275L180.895 154.605L170.005 193.05Z" fill="#E0E0E0"/>
<path d="M262.57 260.425C262.57 260.48 206.03 260.59 136.29 260.59C66.5498 260.59 10.0098 260.535 10.0098 260.425C10.0098 260.37 66.5498 260.26 136.29 260.26C206.03 260.26 262.57 260.315 262.57 260.425Z" fill="#263238"/>
<path d="M156.955 260.269H170.54V238.049H156.955V260.269Z" fill="#FF725E"/>
<path d="M211.649 260.259H225.234V222.584H211.649V260.259Z" fill="#1C85E8"/>
<path d="M239.024 260.262H252.609V246.567H239.024V260.262Z" fill="#1C85E8"/>
<path d="M184.33 260.277H197.915V227.497H184.33V260.277Z" fill="#FF725E"/>
<path d="M129.58 260.307H143.165V219.497H129.58V260.307Z" fill="#FF725E"/>
<path d="M102.261 260.281H115.846V207.811H102.261V260.281Z" fill="#FF725E"/>
<path d="M74.8857 260.302H88.4707L88.4707 194.797H74.8857L74.8857 260.302Z" fill="#FF725E"/>
<path d="M47.5107 260.306H61.0957L61.0957 177.146H47.5107L47.5107 260.306Z" fill="#1C85E8"/>
<path d="M20.1914 260.277H33.7764L33.7764 150.937H20.1914L20.1914 260.277Z" fill="#1C85E8"/>
<path d="M228.909 245.575C224.564 237.16 215.434 231.385 205.974 231.165C211.749 224.785 212.849 214.94 209.549 207.02C206.249 199.1 198.934 193.215 190.739 190.685C182.544 188.155 173.579 188.76 165.439 191.345C166.374 185.185 160.214 178.97 153.999 179.96C156.419 178.31 157.244 174.68 155.814 172.15C154.384 169.565 150.864 168.465 148.169 169.675L148.554 124.355H139.644H130.569H121.659L122.044 169.675C119.349 168.465 115.829 169.62 114.399 172.15C112.969 174.735 113.794 178.31 116.214 179.96C110.054 179.025 103.839 185.185 104.774 191.345C96.6344 188.705 87.6694 188.1 79.4744 190.685C71.2794 193.215 63.9644 199.1 60.6644 207.02C57.3644 214.94 58.4644 224.785 64.2394 231.165C54.7794 231.385 45.5944 237.16 41.3044 245.575C38.7744 250.47 38.5544 257.73 43.4494 260.315H130.679H139.754H226.984C231.604 257.73 231.384 250.47 228.909 245.575Z" fill="#EBEBEB"/>
<path d="M43.2296 260.26C43.2296 260.26 43.0096 260.15 42.5696 259.875C42.1296 259.6 41.5796 259.105 40.9196 258.335C40.3146 257.51 39.7646 256.41 39.4896 254.925C39.2146 253.495 39.2146 251.735 39.5446 249.865C39.8746 247.995 40.6446 245.96 41.9096 243.925C43.1196 241.89 44.7696 239.91 46.8046 238.04C48.8946 236.225 51.3146 234.465 54.2296 233.255C54.6146 233.09 54.9446 232.925 55.3296 232.815C55.7146 232.705 56.0996 232.54 56.4846 232.43C56.8696 232.265 57.2546 232.155 57.6396 232.045C58.0246 231.935 58.4646 231.825 58.8496 231.715C60.4996 231.33 62.2046 231.11 63.9646 231.055L63.9096 231.22C62.2596 229.35 60.8846 227.095 59.8946 224.51C58.9596 221.98 58.4646 219.175 58.4646 216.26C58.4646 213.345 58.9596 210.375 60.1146 207.515C60.6646 206.085 61.3796 204.655 62.2046 203.335C63.0296 202.015 64.0196 200.695 65.1196 199.485C69.4646 194.645 75.6796 191.015 82.6646 189.695C86.1296 188.98 89.8146 188.815 93.4996 189.035C97.1846 189.31 100.925 190.08 104.555 191.235L104.5 191.4C104.28 189.915 104.445 188.375 104.995 186.945C105.49 185.515 106.37 184.195 107.415 183.04C108.515 181.94 109.835 181.005 111.32 180.4C112.805 179.795 114.455 179.575 116.05 179.795L115.94 180.015C113.63 178.42 112.64 174.9 114.015 172.205C115.39 169.51 119.075 168.19 121.935 169.455L121.715 169.565C121.605 155.1 121.495 139.92 121.33 124.245V124.08H121.495C125.785 124.08 130.35 124.08 134.97 124.08C139.48 124.08 143.99 124.08 148.445 124.08H148.61V124.245C148.5 139.865 148.335 155.045 148.225 169.565L148.005 169.455C150.81 168.19 154.385 169.455 155.87 172.095C157.3 174.735 156.42 178.31 154 180.015L153.89 179.795C155.485 179.52 157.135 179.795 158.565 180.345C160.05 180.895 161.37 181.83 162.47 182.93C163.57 184.03 164.395 185.35 164.945 186.835C165.495 188.265 165.66 189.86 165.44 191.345L165.275 191.18C168.905 190.025 172.645 189.255 176.33 188.98C180.015 188.705 183.7 188.925 187.165 189.64C194.15 191.015 200.365 194.59 204.71 199.43C205.81 200.64 206.745 201.905 207.625 203.28C208.505 204.6 209.165 206.03 209.715 207.46C210.32 208.89 210.65 210.375 210.98 211.805C211.255 213.29 211.365 214.775 211.365 216.205C211.365 219.12 210.87 221.925 209.935 224.455C209 226.985 207.625 229.295 205.92 231.165L205.865 231C207.625 231.055 209.385 231.275 210.98 231.66C211.365 231.77 211.805 231.88 212.19 231.99C212.575 232.1 212.96 232.21 213.345 232.375C213.73 232.485 214.115 232.65 214.5 232.76C214.885 232.925 215.215 233.09 215.6 233.2C218.515 234.465 220.99 236.17 223.08 237.985C225.115 239.855 226.765 241.835 227.975 243.87C229.185 245.85 229.955 247.885 230.285 249.81C230.615 251.68 230.615 253.44 230.34 254.87C230.065 256.3 229.515 257.455 228.91 258.225C228.305 258.995 227.7 259.49 227.26 259.765C226.82 260.04 226.6 260.15 226.6 260.15C226.6 260.15 226.82 259.985 227.26 259.71C227.7 259.435 228.25 258.94 228.855 258.17C229.46 257.4 229.955 256.245 230.23 254.815C230.505 253.385 230.505 251.68 230.175 249.81C229.845 247.94 229.075 245.905 227.81 243.925C226.6 241.945 224.95 239.91 222.915 238.095C220.88 236.28 218.405 234.575 215.49 233.31C215.105 233.145 214.775 232.98 214.39 232.87C214.005 232.76 213.62 232.595 213.235 232.485C212.85 232.32 212.465 232.21 212.08 232.1C211.695 231.99 211.31 231.88 210.87 231.77C209.22 231.385 207.515 231.165 205.755 231.11H205.59L205.7 230.945C207.35 229.075 208.725 226.82 209.66 224.29C210.595 221.76 211.09 218.955 211.09 216.095C211.09 214.665 210.925 213.18 210.705 211.75C210.43 210.32 210.045 208.835 209.44 207.405C208.89 205.975 208.175 204.6 207.35 203.28C206.525 201.96 205.59 200.695 204.49 199.485C200.145 194.7 194.04 191.125 187.055 189.805C183.59 189.09 179.96 188.925 176.275 189.2C172.59 189.475 168.905 190.245 165.275 191.4L165.055 191.455L165.11 191.235C165.33 189.75 165.165 188.265 164.615 186.835C164.12 185.405 163.24 184.14 162.195 183.04C161.15 181.94 159.83 181.06 158.4 180.51C156.97 179.96 155.375 179.74 153.835 179.96L153.23 180.07L153.725 179.74C156.035 178.145 156.86 174.68 155.54 172.15C154.165 169.62 150.7 168.465 148.06 169.62L147.84 169.73V169.51C147.95 154.99 148.06 139.81 148.17 124.19L148.335 124.355C143.88 124.355 139.37 124.355 134.86 124.355C130.24 124.355 125.675 124.355 121.385 124.355L121.55 124.19C121.66 139.865 121.77 155.1 121.88 169.51V169.73L121.66 169.62C118.91 168.41 115.39 169.675 114.125 172.205C112.805 174.79 113.74 178.145 115.94 179.685L116.435 180.015L115.83 179.905C114.29 179.685 112.64 179.905 111.21 180.455C109.78 181.005 108.46 181.94 107.415 183.04C105.27 185.24 104.115 188.265 104.555 191.125L104.61 191.345L104.39 191.29C100.76 190.135 97.0746 189.365 93.3896 189.09C89.7046 188.815 86.0746 188.98 82.6096 189.695C75.6796 191.07 69.5196 194.645 65.1746 199.43C64.0746 200.64 63.1396 201.905 62.3146 203.225C61.4896 204.545 60.7746 205.92 60.2246 207.35C59.1246 210.21 58.6296 213.18 58.5746 216.04C58.5746 218.9 59.0696 221.705 60.0046 224.235C60.9396 226.765 62.3146 229.02 63.9646 230.89L64.0746 231.055H63.9096C62.1496 231.11 60.4446 231.33 58.7946 231.715C58.4096 231.825 57.9696 231.935 57.5846 232.045C57.1996 232.155 56.8146 232.265 56.4296 232.43C56.0446 232.54 55.6596 232.705 55.2746 232.815C54.8896 232.98 54.5596 233.145 54.1746 233.255C51.2596 234.465 48.7846 236.17 46.7496 238.04C44.7146 239.855 43.0646 241.89 41.8546 243.87C40.6446 245.85 39.8196 247.885 39.4896 249.755C39.1596 251.625 39.1046 253.33 39.4346 254.76C39.7096 256.19 40.2596 257.345 40.8096 258.115C41.4146 258.885 42.0196 259.38 42.4046 259.655C43.0096 260.15 43.2296 260.26 43.2296 260.26Z" fill="#263238"/>
<path d="M100.045 62.15L133.98 22.66L166.595 62.15H153.89V126.61H114.345V62.26L100.045 62.15Z" fill="#1C85E8"/>
<path d="M261.249 126.39L237.214 133.76L243.044 137.445L259.214 147.51L264.384 150.755L261.249 126.39Z" fill="#1C85E8"/>
<path d="M152.789 251.405L138.324 244.2L172.644 191.125L186.614 204.49L213.894 161.15L227.534 171.105L251.954 131.23L260.204 135.08L230.119 188.98L214.884 174.79L188.869 223.3L175.174 207.295L152.789 251.405Z" fill="#1C85E8"/>
<g opacity="0.3">
<path d="M166.979 237.765C163.679 235.565 159.444 235.345 155.539 236.115C154.274 236.39 152.844 236.72 151.744 236.005C150.644 235.345 150.259 233.97 149.819 232.705C147.564 226.49 141.349 222.2 134.804 221.1C128.259 220 123.034 220.55 117.094 223.52C113.574 225.28 109.889 227.755 106.809 232.375C105.929 233.695 104.334 236.39 104.334 236.39C103.124 237.27 101.584 237.325 100.154 237.545C94.159 238.535 88.9889 243.375 87.6689 249.315L170.774 247.94C172.204 244.42 170.279 239.91 166.979 237.765Z" fill="black"/>
</g>
<path d="M82.9941 254.815C85.5791 245.63 95.8091 239.305 105.214 241.12C107.194 231.11 116.764 223.19 126.994 223.08C137.169 223.025 146.904 230.78 149.049 240.79C154.714 239.47 160.764 238.535 166.154 240.625C171.544 242.77 175.669 249.04 173.414 254.375" fill="#EBEBEB"/>
<path d="M173.414 254.375C173.414 254.375 173.414 254.32 173.469 254.21C173.524 254.1 173.579 253.935 173.634 253.77C173.689 253.55 173.799 253.33 173.854 253C173.909 252.67 174.019 252.34 174.019 251.955C174.184 250.36 173.799 247.83 172.039 245.355C171.159 244.145 170.004 242.935 168.464 241.89C166.979 240.845 165.109 240.185 163.019 239.8C160.984 239.415 158.729 239.36 156.419 239.58C154.109 239.8 151.689 240.24 149.159 240.845L149.049 240.9L148.994 240.79C148.114 236.83 145.969 232.815 142.614 229.68C139.314 226.545 134.914 224.125 130.019 223.41C126.994 222.97 123.914 223.245 121.109 224.125C118.304 225.005 115.719 226.435 113.519 228.14C111.319 229.9 109.504 231.935 108.129 234.135C106.754 236.335 105.819 238.755 105.379 241.065V241.175H105.269C103.179 240.79 101.089 240.79 99.1645 241.12C98.1745 241.23 97.2945 241.505 96.4145 241.725C95.9745 241.89 95.5345 242 95.1495 242.165C94.7095 242.275 94.3245 242.495 93.9395 242.66C93.1145 242.99 92.4545 243.43 91.7395 243.815C91.4095 244.035 91.0795 244.255 90.7495 244.475C90.5845 244.585 90.4195 244.695 90.2545 244.805C90.0895 244.915 89.9795 245.025 89.8145 245.135C89.5395 245.355 89.2645 245.575 88.9345 245.85C88.6595 246.07 88.4395 246.345 88.1645 246.565C87.9445 246.785 87.6695 247.005 87.4495 247.28C87.2295 247.5 87.0095 247.775 86.8445 247.995C85.2495 249.865 84.3145 251.625 83.8195 252.835C83.5445 253.44 83.4345 253.935 83.2695 254.265C83.1595 254.595 83.1045 254.76 83.1045 254.76C83.1045 254.76 83.2695 254.1 83.7645 252.835C84.2595 251.625 85.1395 249.81 86.7895 247.94C87.0095 247.72 87.2295 247.445 87.3945 247.225C87.6145 247.005 87.8895 246.73 88.1095 246.51C88.3845 246.29 88.6045 246.015 88.8795 245.795C89.1545 245.575 89.4295 245.355 89.7595 245.08C89.9245 244.97 90.0345 244.86 90.1995 244.695C90.3645 244.585 90.5295 244.475 90.6945 244.365C91.0245 244.145 91.3545 243.925 91.6845 243.705C92.3995 243.32 93.1145 242.88 93.9395 242.495C94.3245 242.33 94.7095 242.11 95.1495 241.945C95.5895 241.78 96.0295 241.615 96.4695 241.505C97.3495 241.285 98.2845 241.01 99.2745 240.845C101.199 240.515 103.289 240.515 105.434 240.9L105.269 241.01C105.764 238.645 106.644 236.225 108.074 233.97C109.449 231.715 111.319 229.625 113.519 227.865C115.719 226.105 118.304 224.675 121.164 223.795C124.024 222.86 127.159 222.64 130.239 223.08C135.189 223.795 139.644 226.215 142.944 229.405C146.299 232.595 148.444 236.665 149.379 240.68L149.214 240.57C151.744 240.02 154.164 239.525 156.474 239.305C158.839 239.085 161.094 239.14 163.184 239.525C165.274 239.91 167.144 240.625 168.684 241.67C170.224 242.715 171.379 243.925 172.259 245.19C174.019 247.72 174.404 250.25 174.239 251.845C174.239 252.23 174.129 252.615 174.074 252.89C174.019 253.22 173.909 253.44 173.854 253.66C173.799 253.825 173.744 253.99 173.689 254.1C173.469 254.32 173.414 254.375 173.414 254.375Z" fill="#263238"/>
<path d="M121.715 113.245C122.045 135.355 104.445 153.615 82.4995 153.945C60.4995 154.275 42.3495 136.62 41.9645 114.51C41.6345 92.4 59.2345 74.14 81.1795 73.81C103.18 73.425 121.33 91.135 121.715 113.245ZM62.7545 114.18C62.9195 124.74 71.6095 133.21 82.1145 133.045C92.6195 132.88 101.035 124.135 100.87 113.575C100.705 103.015 92.0145 94.545 81.5095 94.71C71.0045 94.875 62.5895 103.62 62.7545 114.18Z" fill="#E0E0E0"/>
<path d="M121.715 113.245C122.045 135.355 104.445 153.615 82.5004 153.945L82.1703 133.045C92.6754 132.88 101.09 124.135 100.925 113.575C100.76 103.015 92.0704 94.545 81.5654 94.71L81.2354 73.81C103.18 73.425 121.33 91.135 121.715 113.245Z" fill="#455A64"/>
<path d="M82.1703 154.22L81.8403 132.77H82.1153C92.4553 132.605 100.76 123.97 100.595 113.575C100.54 108.515 98.5053 103.84 94.8753 100.32C91.2453 96.8 86.5153 94.93 81.5103 94.985H81.2353L80.9053 73.535H81.1803C91.9053 73.37 102.025 77.385 109.725 84.92C117.425 92.4 121.77 102.465 121.935 113.245C122.265 135.465 104.555 153.89 82.4453 154.22H82.1703ZM82.3903 133.265L82.7203 153.615C104.445 153.12 121.77 135.025 121.44 113.19C121.275 102.575 116.985 92.675 109.395 85.25C101.86 77.935 91.9603 73.92 81.5103 74.03L81.8403 94.38C86.9003 94.38 91.6853 96.305 95.3153 99.88C99.0553 103.51 101.145 108.35 101.2 113.52C101.31 124.19 92.9503 132.99 82.3903 133.265Z" fill="#455A64"/>
<path d="M86.0199 157.135C60.2799 157.575 39.7649 137.61 39.3799 111.76L63.7449 111.375C63.9649 123.75 73.3699 131.505 85.6349 131.34L86.0199 157.135Z" fill="#1C85E8"/>
<path d="M53.3502 112.2C53.5152 112.31 51.2052 115.94 48.2352 120.285C45.2652 124.63 42.6802 128.04 42.5152 127.985C42.3502 127.875 44.6602 124.245 47.6302 119.9C50.6552 115.5 53.1852 112.09 53.3502 112.2Z" fill="#263238"/>
<path d="M63.9652 114.235C64.1302 114.345 60.7202 119.57 56.3752 125.895C52.0302 132.22 48.3452 137.225 48.2352 137.17C48.0702 137.06 51.4802 131.835 55.8252 125.51C60.1152 119.13 63.8002 114.125 63.9652 114.235Z" fill="#263238"/>
<path d="M69.0795 125.015C69.2445 125.125 66.1645 129.855 62.2595 135.575C58.2995 141.295 54.9995 145.805 54.8345 145.75C54.6695 145.64 57.7495 140.91 61.6545 135.19C65.6145 129.47 68.9145 124.905 69.0795 125.015Z" fill="#263238"/>
<path d="M78.0453 131.01C78.2103 131.12 75.1303 135.85 71.2253 141.57C67.2653 147.29 63.9653 151.8 63.8003 151.745C63.6353 151.635 66.7153 146.905 70.6203 141.185C74.5803 135.465 77.8803 130.9 78.0453 131.01Z" fill="#263238"/>
<path d="M85.7444 138.6C85.9094 138.71 83.3794 142.615 80.1344 147.29C76.8894 152.02 74.1394 155.705 73.9744 155.595C73.8094 155.485 76.3394 151.58 79.5844 146.905C82.8294 142.23 85.5794 138.545 85.7444 138.6Z" fill="#263238"/>
</svg>
