<svg width="75" height="75" viewBox="0 0 75 75" fill="none" xmlns="http://www.w3.org/2000/svg">
<path opacity="0.4" fill-rule="evenodd" clip-rule="evenodd" d="M31.6606 28.3155C30.7454 27.4002 29.2615 27.4 28.3461 28.3152C27.4307 29.2304 27.4305 30.7144 28.3457 31.6298L34.1836 37.4689L28.3537 43.2987C27.4384 44.214 27.4384 45.698 28.3537 46.6133C29.269 47.5286 30.753 47.5286 31.6683 46.6133L37.4978 40.7838L43.3332 46.6204C44.2484 47.5358 45.7324 47.5359 46.6478 46.6207C47.5632 45.7055 47.5633 44.2216 46.6481 43.3062L40.8124 37.4692L46.6433 31.6383C47.5586 30.723 47.5586 29.239 46.6433 28.3237C45.728 27.4085 44.244 27.4085 43.3287 28.3237L37.4982 34.1543L31.6606 28.3155Z" fill="#64749F"/>
<path fill-rule="evenodd" clip-rule="evenodd" d="M51.045 8.58594H23.9543C14.5137 8.58594 8.59497 15.2703 8.59497 24.7297V50.2547C8.59497 59.7141 14.4856 66.3984 23.9543 66.3984H51.0418C60.5137 66.3984 66.4075 59.7141 66.4075 50.2547V24.7297C66.4075 15.2703 60.5137 8.58594 51.045 8.58594Z" stroke="#64749F" stroke-width="4.6875" stroke-linecap="round" stroke-linejoin="round"/>
</svg>
